v 1.203327 -0.707183 0.2525147
v 1.279424 -0.7071834 0.2097857
v 1.215941 -0.6957947 0.2213507
v 1.308932 -0.7071831 0.2180721
v 1.195041 -0.7071834 0.2820212
v 1.327003 -0.7140647 0.2423978
v 1.242893 -0.6777823 0.1960082
v 1.189717 -0.6957942 0.3155912
v 1.213682 -0.7071835 0.3391724
v 1.348023 -0.7071831 0.2637399
v 1.24036 -0.7164681 0.3464692
v 1.35166 -0.7071834 0.2941687
v 1.262959 -0.6992544 0.3730466
v 1.343373 -0.7071831 0.323676
v 1.300848 -0.6957943 0.3717279
v 1.336732 -0.6777825 0.3615138
v 1.256067 -0.2294671 0.4293896
v 1.25616 -0.2218059 0.3185114
v 1.269109 -0.2218059 0.3227744
v 1.186684 -0.2627423 0.4414421
v 1.282703 -0.2218059 0.3217584
v 1.313305 -0.2433185 0.4449078
v 1.294874 -0.2218059 0.3156164
v 1.370274 -0.2433185 0.4176812
v 1.303768 -0.2218059 0.3052855
v 1.412487 -0.2433185 0.370726
v 1.308031 -0.2218059 0.2923364
v 1.433517 -0.2433186 0.3111903
v 1.307015 -0.2218059 0.2787424
v 1.430164 -0.2433185 0.24814
v 1.300873 -0.2218059 0.2665714
v 1.402937 -0.2433185 0.1911708
v 1.290542 -0.2218059 0.2576784
v 1.355981 -0.2433186 0.1489584
v 1.277593 -0.2218059 0.2534144
v 1.296447 -0.2433185 0.1279282
v 1.263999 -0.2218059 0.2544314
v 1.240465 -0.2437718 0.1298503
v 1.251828 -0.2218059 0.2605724
v 1.169452 -0.242206 0.1368818
v 1.242934 -0.2218059 0.2709044
v 1.136046 -0.2426637 0.1624884
v 1.238671 -0.2218059 0.2838523
v 1.112193 -0.2435941 0.2700828
v 1.239688 -0.2218059 0.2974474
v 1.116539 -0.2433185 0.3280503
v 1.245829 -0.2218059 0.3096174
v 1.143766 -0.2433186 0.3850182
v 1.263197 -0.4331576 0.3711088
v 1.203312 -0.4331577 0.4120201
v 1.251964 -0.3998825 0.4629352
v 1.215573 -0.3998827 0.3903259
v 1.320008 -0.4193062 0.4430457
v 1.297588 -0.4193062 0.3883349
v 1.375754 -0.4193062 0.4133957
v 1.334104 -0.4193062 0.3714295
v 1.41591 -0.4193062 0.3646695
v 1.361371 -0.4193063 0.3418359
v 1.434362 -0.4193062 0.3042857
v 1.375236 -0.4193061 0.3040607
v 1.428302 -0.4193062 0.2414368
v 1.373592 -0.4193062 0.2638573
v 1.398651 -0.4193062 0.1856908
v 1.356685 -0.4193062 0.2273405
v 1.349925 -0.4193062 0.1455357
v 1.327093 -0.4193062 0.2000755
v 1.289542 -0.4193062 0.1270836
v 1.289318 -0.4193063 0.1862094
v 1.240797 -0.4188529 0.1298286
v 1.249112 -0.4193061 0.1878551
v 1.157598 -0.4204187 0.1421842
v 1.212598 -0.4193062 0.2047603
v 1.131025 -0.4199611 0.1721666
v 1.185331 -0.4193063 0.2343536
v 1.111982 -0.4190306 0.2744352
v 1.171466 -0.4193061 0.2721275
v 1.1184 -0.4193063 0.3347533
v 1.173111 -0.4193064 0.3123334
v 1.148051 -0.4193061 0.390498
v 1.190017 -0.419306 0.348848
v 1.261084 -0.3334979 0.3912526
v 1.231489 -0.3326367 0.3629817
v 1.259231 -0.3654182 0.4049807
v 1.206777 -0.366166 0.4063022
v 1.303949 -0.3464831 0.387747
v 1.302185 -0.3472648 0.4067841
v 1.339589 -0.3463251 0.3683924
v 1.345775 -0.3472441 0.3864455
v 1.365764 -0.3465059 0.3363384
v 1.378252 -0.347212 0.3506397
v 1.377243 -0.3465471 0.2970957
v 1.394268 -0.3473347 0.3060364
v 1.373004 -0.3464836 0.2574955
v 1.392041 -0.3472648 0.2592632
v 1.353647 -0.3463252 0.2218556
v 1.371702 -0.3472442 0.2156716
v 1.321597 -0.3465059 0.1956826
v 1.335897 -0.3472115 0.1831944
v 1.282351 -0.3465458 0.1842036
v 1.291292 -0.3473326 0.1671786
v 1.242752 -0.3464831 0.1884428
v 1.244518 -0.3472645 0.1694047
v 1.207113 -0.3463251 0.2077973
v 1.200926 -0.3472442 0.189745
v 1.180938 -0.3465059 0.2398509
v 1.168451 -0.3472117 0.2255497
v 1.16946 -0.346546 0.2790926
v 1.152435 -0.3473324 0.2701524
v 1.173699 -0.3464829 0.3186951
v 1.154661 -0.3472648 0.3169278
v 1.193053 -0.3463252 0.354332
v 1.175 -0.3472441 0.360518
v 1.215573 -0.3998827 0.3903259
v 1.190017 -0.419306 0.348848
v 1.173111 -0.4193064 0.3123334
v 1.171466 -0.4193061 0.2721275
v 1.185331 -0.4193063 0.2343536
v 1.212598 -0.4193062 0.2047603
v 1.249112 -0.4193061 0.1878551
v 1.289318 -0.4193063 0.1862094
v 1.327093 -0.4193062 0.2000755
v 1.356685 -0.4193062 0.2273405
v 1.373592 -0.4193062 0.2638573
v 1.375236 -0.4193061 0.3040607
v 1.361371 -0.4193063 0.3418359
v 1.334104 -0.4193062 0.3714295
v 1.297588 -0.4193062 0.3883349
v 1.263197 -0.4331576 0.3711088
v 1.262917 -0.5629957 0.3733875
v 1.22337 -0.5629957 0.3765291
v 1.256915 -0.5297205 0.4224702
v 1.214444 -0.5297203 0.3923245
v 1.309096 -0.5491441 0.4037657
v 1.298204 -0.5491443 0.3905467
v 1.35064 -0.5491442 0.3812819
v 1.335519 -0.5491442 0.3732369
v 1.380419 -0.5491443 0.3446103
v 1.363369 -0.5491443 0.3429645
v 1.393896 -0.5491441 0.2993355
v 1.377514 -0.5491441 0.3043397
v 1.389022 -0.5491443 0.2523497
v 1.375802 -0.5491442 0.2632427
v 1.366538 -0.5491441 0.2108054
v 1.358493 -0.5491441 0.2259275
v 1.329866 -0.5491443 0.1810265
v 1.328222 -0.5491444 0.1980768
v 1.284593 -0.5491441 0.1675495
v 1.289595 -0.5491441 0.1839309
v 1.237605 -0.5491443 0.1724235
v 1.248498 -0.5491443 0.1856432
v 1.19606 -0.5491441 0.1949085
v 1.211184 -0.5491441 0.2029526
v 1.166283 -0.5491441 0.2315785
v 1.183333 -0.5491442 0.2332235
v 1.152805 -0.5491443 0.2768537
v 1.169187 -0.5491442 0.2718489
v 1.15768 -0.5491441 0.3238402
v 1.170899 -0.5491442 0.3129471
v 1.180164 -0.5491442 0.3653846
v 1.188209 -0.5491443 0.3502631
v 1.264669 -0.6079957 0.3590757
v 1.231072 -0.6079956 0.3629024
v 1.258813 -0.5747205 0.4069331
v 1.221537 -0.5747206 0.3797717
v 1.304906 -0.5941442 0.3886845
v 1.294344 -0.5941441 0.3766538
v 1.340998 -0.5941452 0.3689515
v 1.326636 -0.5941443 0.3618791
v 1.366792 -0.5941452 0.336908
v 1.350817 -0.5941452 0.33587
v 1.378359 -0.5941451 0.2974351
v 1.363202 -0.5941451 0.3025894
v 1.37394 -0.5941452 0.2565399
v 1.36191 -0.5941454 0.2671025
v 1.354208 -0.5941452 0.2204479
v 1.347134 -0.5941441 0.2348082
v 1.322165 -0.5941443 0.1946535
v 1.321127 -0.5941442 0.2106293
v 1.282691 -0.5941441 0.1830865
v 1.287846 -0.594144 0.1982431
v 1.241795 -0.5941442 0.1875054
v 1.252358 -0.5941445 0.1995353
v 1.205703 -0.5941442 0.207238
v 1.220065 -0.5941439 0.2143109
v 1.17991 -0.5941442 0.23928
v 1.195886 -0.5941443 0.2403169
v 1.168342 -0.5941442 0.2787541
v 1.183499 -0.5941442 0.2736004
v 1.172761 -0.5941442 0.3196498
v 1.184792 -0.5941443 0.3090878
v 1.192495 -0.5941443 0.3557437
v 1.199567 -0.594144 0.3413805
v 1.266184 -0.6802458 0.3466884
v 1.238166 -0.6802458 0.3503498
v 1.260565 -0.6469705 0.3926213
v 1.227678 -0.6469703 0.368907
v 1.301046 -0.6663941 0.3747919
v 1.291005 -0.6663941 0.3646294
v 1.332116 -0.6663943 0.3575933
v 1.318949 -0.6663942 0.3520477
v 1.354239 -0.6663942 0.3298137
v 1.339951 -0.6663941 0.3297316
v 1.364047 -0.6663941 0.2956856
v 1.350815 -0.6663944 0.3010751
v 1.360048 -0.6663944 0.2603982
v 1.349886 -0.6663939 0.2704422
v 1.342849 -0.6663941 0.2293286
v 1.337304 -0.6663944 0.2424971
v 1.315069 -0.6663942 0.2072062
v 1.314986 -0.6663941 0.221494
v 1.280941 -0.6663941 0.1973985
v 1.286331 -0.6663944 0.2106305
v 1.245654 -0.6663944 0.2013978
v 1.255698 -0.6663939 0.2115599
v 1.214585 -0.666394 0.2185953
v 1.227754 -0.6663945 0.2241402
v 1.192462 -0.6663943 0.2463745
v 1.206749 -0.666394 0.2464601
v 1.182654 -0.6663941 0.2805043
v 1.195886 -0.6663944 0.2751148
v 1.186653 -0.6663944 0.3157914
v 1.196816 -0.6663941 0.305749
v 1.203852 -0.666394 0.3468598
v 1.209397 -0.6663942 0.3336919
v 1.173085 -0.5068153 0.5119727
v 1.084798 -0.5283173 0.5119729
v 1.062853 -0.5056619 0.5188541
v 1.151539 -0.5341679 0.5005839
v 1.11755 -0.5516173 0.482572
v 1.198663 -0.4825989 0.5005839
v 1.194557 -0.4480219 0.5119727
v 1.038696 -0.4859812 0.5119729
v 1.187006 -0.4170185 0.5119728
v 1.031145 -0.4549778 0.5119728
v 1.162554 -0.4017972 0.5212578
v 1.036034 -0.4234463 0.5119729
v 1.146845 -0.3694386 0.5040436
v 1.052617 -0.3961845 0.5119728
v 1.108743 -0.3603189 0.5005842
v 1.070194 -0.3608027 0.482572
v 1.146658 -0.3698809 0.3608243
v 1.182241 -0.3821095 0.3608243
v 1.199217 -0.3651343 0.3275491
v 1.163338 -0.3296138 0.3275491
v 1.109373 -0.3339303 0.3469728
v 1.116329 -0.3437193 0.3469728
v 1.064647 -0.3442103 0.3469728
v 1.074819 -0.3505923 0.3469728
v 1.027257 -0.3708246 0.3469728
v 1.039098 -0.3728277 0.3469729
v 1.0029 -0.4097213 0.3469728
v 1.014606 -0.4070415 0.3469728
v 0.9952814 -0.4549782 0.3469728
v 1.00507 -0.4480216 0.3469728
v 1.005561 -0.4997042 0.3469728
v 1.011943 -0.4895315 0.3469728
v 1.032176 -0.5370936 0.3469728
v 1.034179 -0.5252526 0.3469729
v 1.071072 -0.5614514 0.3469728
v 1.068393 -0.5497454 0.3469728
v 1.116329 -0.5690695 0.3469728
v 1.109373 -0.5592805 0.3469728
v 1.161055 -0.5587895 0.3469727
v 1.150883 -0.5524074 0.3469728
v 1.198445 -0.5321752 0.3469727
v 1.186604 -0.5301721 0.3469729
v 1.222803 -0.4932784 0.3469727
v 1.211097 -0.4959583 0.3469727
v 1.230421 -0.4480218 0.3469727
v 1.220632 -0.4549782 0.3469727
v 1.22014 -0.4032941 0.3469727
v 1.213759 -0.4134682 0.3469727
v 1.211097 -0.4070415 0.3925637
v 1.175319 -0.3890315 0.4064153
v 1.202112 -0.4182907 0.3925636
v 1.208027 -0.4549786 0.3925638
v 1.220632 -0.4480216 0.3925637
v 1.199451 -0.4911352 0.3925636
v 1.213759 -0.4895315 0.3925637
v 1.177691 -0.5212592 0.3925638
v 1.191523 -0.5252526 0.3925638
v 1.14606 -0.5407614 0.3925636
v 1.157309 -0.5497454 0.3925638
v 1.109372 -0.5466753 0.3925639
v 1.116329 -0.5592805 0.3925638
v 1.073216 -0.5380995 0.3925637
v 1.074819 -0.5524074 0.3925638
v 1.043092 -0.5163394 0.3925639
v 1.039098 -0.5301721 0.3925639
v 1.02359 -0.4847091 0.3925637
v 1.014606 -0.4959583 0.3925638
v 1.017676 -0.4480212 0.3925639
v 1.00507 -0.4549782 0.3925638
v 1.026251 -0.4118645 0.3925637
v 1.011943 -0.4134682 0.3925638
v 1.048012 -0.3817406 0.3925639
v 1.034179 -0.3777472 0.3925639
v 1.079642 -0.3622384 0.3925637
v 1.068393 -0.3532543 0.3925638
v 1.11633 -0.3563244 0.3925639
v 1.109373 -0.3437193 0.3925638
v 1.141835 -0.3815269 0.4064153
v 1.159591 -0.3386577 0.37314
v 1.190304 -0.3740473 0.3731402
v 1.199451 -0.4118645 0.4629727
v 1.166406 -0.3979446 0.4768243
v 1.189669 -0.4234463 0.4629729
v 1.194557 -0.4549778 0.4629727
v 1.208027 -0.4480212 0.4629729
v 1.187006 -0.4859812 0.4629729
v 1.202113 -0.4847091 0.4629727
v 1.168167 -0.5117337 0.4629727
v 1.182611 -0.5163394 0.4629729
v 1.140905 -0.5283173 0.4629729
v 1.152486 -0.5380995 0.4629727
v 1.109373 -0.5332056 0.4629727
v 1.11633 -0.5466753 0.4629729
v 1.07837 -0.5256548 0.462973
v 1.079642 -0.5407614 0.4629727
v 1.052617 -0.5068153 0.4629727
v 1.048012 -0.5212592 0.462973
v 1.036034 -0.4795535 0.462973
v 1.026251 -0.4911352 0.4629728
v 1.031145 -0.4480219 0.4629727
v 1.017676 -0.4549786 0.462973
v 1.038696 -0.4170185 0.462973
v 1.02359 -0.4182907 0.4629728
v 1.057536 -0.391266 0.4629727
v 1.043092 -0.3866604 0.462973
v 1.084795 -0.3746833 0.4629727
v 1.073216 -0.3649002 0.4629727
v 1.116331 -0.3697937 0.4629731
v 1.109372 -0.3563244 0.462973
v 1.136682 -0.3939716 0.4768242
v 1.154768 -0.3503037 0.443549
v 1.180779 -0.3835722 0.443549
v 1.187006 -0.4170185 0.5119728
v 1.162554 -0.4017972 0.5212578
v 1.194557 -0.4480219 0.5119727
v 1.198663 -0.4825989 0.5005839
v 1.173085 -0.5068153 0.5119727
v 1.151539 -0.5341679 0.5005839
v 1.11755 -0.5516173 0.482572
v 1.084798 -0.5283173 0.5119729
v 1.062853 -0.5056619 0.5188541
v 1.038696 -0.4859812 0.5119729
v 1.031145 -0.4549778 0.5119728
v 1.036034 -0.4234463 0.5119729
v 1.052617 -0.3961845 0.5119728
v 1.070194 -0.3608027 0.482572
v 1.108743 -0.3603189 0.5005842
v 1.146845 -0.3694386 0.5040436
v 1.211924 -0.3524269 0.1579744
v 1.244043 -0.4025292 0.1579743
v 1.252797 -0.4564615 0.1579743
v 1.240245 -0.5096393 0.1579743
v 1.208298 -0.553966 0.1579744
v 1.161821 -0.5826921 0.1579744
v 1.10789 -0.5914456 0.1579744
v 1.054712 -0.5788943 0.1579744
v 1.010385 -0.5469473 0.1579744
v 0.9816588 -0.5004694 0.1579745
v 0.9729052 -0.4465384 0.1579745
v 0.9854566 -0.3933604 0.1579745
v 1.017403 -0.3490338 0.1579744
v 1.063882 -0.3203077 0.1579744
v 1.117812 -0.3115542 0.1579744
v 1.166469 -0.3220548 0.1579744
v 1.213682 -0.7071835 0.3391724
v 1.227678 -0.6469703 0.368907
v 1.24036 -0.7164681 0.3464692
v 1.209397 -0.6663942 0.3336919
v 1.189717 -0.6957942 0.3155912
v 1.196816 -0.6663941 0.305749
v 1.195041 -0.7071834 0.2820212
v 1.195886 -0.6663944 0.2751148
v 1.203327 -0.707183 0.2525147
v 1.206749 -0.666394 0.2464601
v 1.215941 -0.6957947 0.2213507
v 1.227754 -0.6663945 0.2241402
v 1.242893 -0.6777823 0.1960082
v 1.255698 -0.6663939 0.2115599
v 1.279424 -0.7071834 0.2097857
v 1.286331 -0.6663944 0.2106305
v 1.308932 -0.7071831 0.2180721
v 1.314986 -0.6663941 0.221494
v 1.327003 -0.7140647 0.2423978
v 1.337304 -0.6663944 0.2424971
v 1.348023 -0.7071831 0.2637399
v 1.349886 -0.6663939 0.2704422
v 1.35166 -0.7071834 0.2941687
v 1.350815 -0.6663944 0.3010751
v 1.343373 -0.7071831 0.323676
v 1.339951 -0.6663941 0.3297316
v 1.336732 -0.6777825 0.3615138
v 1.318949 -0.6663942 0.3520477
v 1.300848 -0.6957943 0.3717279
v 1.291005 -0.6663941 0.3646294
v 1.262959 -0.6992544 0.3730466
v 1.266184 -0.6802458 0.3466884
v 1.203852 -0.666394 0.3468598
v 1.221537 -0.5747206 0.3797717
v 1.238166 -0.6802458 0.3503498
v 1.199567 -0.594144 0.3413805
v 1.186653 -0.6663944 0.3157914
v 1.184792 -0.5941443 0.3090878
v 1.182654 -0.6663941 0.2805043
v 1.183499 -0.5941442 0.2736004
v 1.192462 -0.6663943 0.2463745
v 1.195886 -0.5941443 0.2403169
v 1.214585 -0.666394 0.2185953
v 1.220065 -0.5941439 0.2143109
v 1.245654 -0.6663944 0.2013978
v 1.252358 -0.5941445 0.1995353
v 1.280941 -0.6663941 0.1973985
v 1.287846 -0.594144 0.1982431
v 1.315069 -0.6663942 0.2072062
v 1.321127 -0.5941442 0.2106293
v 1.342849 -0.6663941 0.2293286
v 1.347134 -0.5941441 0.2348082
v 1.360048 -0.6663944 0.2603982
v 1.36191 -0.5941454 0.2671025
v 1.364047 -0.6663941 0.2956856
v 1.363202 -0.5941451 0.3025894
v 1.354239 -0.6663942 0.3298137
v 1.350817 -0.5941452 0.33587
v 1.332116 -0.6663943 0.3575933
v 1.326636 -0.5941443 0.3618791
v 1.301046 -0.6663941 0.3747919
v 1.294344 -0.5941441 0.3766538
v 1.260565 -0.6469705 0.3926213
v 1.264669 -0.6079957 0.3590757
v 1.192495 -0.5941443 0.3557437
v 1.214444 -0.5297203 0.3923245
v 1.231072 -0.6079956 0.3629024
v 1.188209 -0.5491443 0.3502631
v 1.172761 -0.5941442 0.3196498
v 1.170899 -0.5491442 0.3129471
v 1.168342 -0.5941442 0.2787541
v 1.169187 -0.5491442 0.2718489
v 1.17991 -0.5941442 0.23928
v 1.183333 -0.5491442 0.2332235
v 1.205703 -0.5941442 0.207238
v 1.211184 -0.5491441 0.2029526
v 1.241795 -0.5941442 0.1875054
v 1.248498 -0.5491443 0.1856432
v 1.282691 -0.5941441 0.1830865
v 1.289595 -0.5491441 0.1839309
v 1.322165 -0.5941443 0.1946535
v 1.328222 -0.5491444 0.1980768
v 1.354208 -0.5941452 0.2204479
v 1.358493 -0.5491441 0.2259275
v 1.37394 -0.5941452 0.2565399
v 1.375802 -0.5491442 0.2632427
v 1.378359 -0.5941451 0.2974351
v 1.377514 -0.5491441 0.3043397
v 1.366792 -0.5941452 0.336908
v 1.363369 -0.5491443 0.3429645
v 1.340998 -0.5941452 0.3689515
v 1.335519 -0.5491442 0.3732369
v 1.304906 -0.5941442 0.3886845
v 1.298204 -0.5491443 0.3905467
v 1.258813 -0.5747205 0.4069331
v 1.262917 -0.5629957 0.3733875
v 1.180164 -0.5491442 0.3653846
v 1.206777 -0.366166 0.4063022
v 1.22337 -0.5629957 0.3765291
v 1.175 -0.3472441 0.360518
v 1.15768 -0.5491441 0.3238402
v 1.154661 -0.3472648 0.3169278
v 1.152805 -0.5491443 0.2768537
v 1.152435 -0.3473324 0.2701524
v 1.166283 -0.5491441 0.2315785
v 1.168451 -0.3472117 0.2255497
v 1.19606 -0.5491441 0.1949085
v 1.200926 -0.3472442 0.189745
v 1.237605 -0.5491443 0.1724235
v 1.244518 -0.3472645 0.1694047
v 1.284593 -0.5491441 0.1675495
v 1.291292 -0.3473326 0.1671786
v 1.329866 -0.5491443 0.1810265
v 1.335897 -0.3472115 0.1831944
v 1.366538 -0.5491441 0.2108054
v 1.371702 -0.3472442 0.2156716
v 1.389022 -0.5491443 0.2523497
v 1.392041 -0.3472648 0.2592632
v 1.393896 -0.5491441 0.2993355
v 1.394268 -0.3473347 0.3060364
v 1.380419 -0.5491443 0.3446103
v 1.378252 -0.347212 0.3506397
v 1.35064 -0.5491442 0.3812819
v 1.345775 -0.3472441 0.3864455
v 1.309096 -0.5491441 0.4037657
v 1.302185 -0.3472648 0.4067841
v 1.256915 -0.5297205 0.4224702
v 1.261084 -0.3334979 0.3912526
v 1.251964 -0.3998825 0.4629352
v 1.186684 -0.2627423 0.4414421
v 1.256067 -0.2294671 0.4293896
v 1.203312 -0.4331577 0.4120201
v 1.313305 -0.2433185 0.4449078
v 1.320008 -0.4193062 0.4430457
v 1.370274 -0.2433185 0.4176812
v 1.375754 -0.4193062 0.4133957
v 1.412487 -0.2433185 0.370726
v 1.41591 -0.4193062 0.3646695
v 1.433517 -0.2433186 0.3111903
v 1.434362 -0.4193062 0.3042857
v 1.430164 -0.2433185 0.24814
v 1.428302 -0.4193062 0.2414368
v 1.402937 -0.2433185 0.1911708
v 1.398651 -0.4193062 0.1856908
v 1.355981 -0.2433186 0.1489584
v 1.349925 -0.4193062 0.1455357
v 1.296447 -0.2433185 0.1279282
v 1.289542 -0.4193062 0.1270836
v 1.240465 -0.2437718 0.1298503
v 1.240797 -0.4188529 0.1298286
v 1.169452 -0.242206 0.1368818
v 1.157598 -0.4204187 0.1421842
v 1.136046 -0.2426637 0.1624884
v 1.131025 -0.4199611 0.1721666
v 1.112193 -0.2435941 0.2700828
v 1.111982 -0.4190306 0.2744352
v 1.116539 -0.2433185 0.3280503
v 1.1184 -0.4193063 0.3347533
v 1.143766 -0.2433186 0.3850182
v 1.148051 -0.4193061 0.390498
v 1.155061 -0.5424497 0.392463
v 1.130613 -0.5536877 0.3391102
v 1.114316 -0.4506489 0.3107763
v 1.232548 -0.5899066 0.3162994
v 1.234143 -0.5585108 0.3608568
v 1.242233 -0.5436932 0.3863834
v 1.120771 -0.4506489 0.3324328
v 1.140853 -0.5581259 0.346999
v 1.104597 -0.4506489 0.3016545
v 1.14136 -0.5930809 0.3131369
v 1.118514 -0.3322921 0.3122533
v 1.135091 -0.3435467 0.3402057
v 1.138689 -0.3390805 0.3407962
v 1.1552 -0.3573541 0.3902635
v 1.221654 -0.3079732 0.3178811
v 1.237627 -0.3426186 0.3529285
v 1.236407 -0.3578997 0.3915165
v 1.154442 -0.3948853 0.4152175
v 1.257353 -0.3991213 0.4012271
v 1.244965 -0.4257173 0.4136629
v 1.147375 -0.4307857 0.413039
v 1.245283 -0.4474969 0.4082957
v 1.147057 -0.4550239 0.4047131
v 1.264154 -0.448944 0.3857338
v 1.146225 -0.4435323 0.4062173
v 1.24943 -0.4535418 0.4025952
v 1.125944 -0.4589584 0.3847055
v 1.165328 -0.4418269 0.4120943
v 1.256358 -0.4543641 0.398047
v 1.143704 -0.4700061 0.4102853
v 1.25663 -0.4712633 0.4033528
v 1.256961 -0.4958566 0.4031285
v 1.146738 -0.5077558 0.4099029
v 1.273235 -0.3942009 0.1667477
v 1.246167 -0.4698645 0.1330155
v 1.13034 -0.4509394 0.1312869
v 1.252204 -0.3842289 0.1449802
v 1.213879 -0.3376331 0.1258668
v 1.109398 -0.3584059 0.1625556
v 1.153747 -0.3038397 0.1684629
v 1.217593 -0.3003592 0.1810286
v 1.13604 -0.3086573 0.2268923
v 1.2353 -0.3103605 0.2351902
v 1.13604 -0.3133605 0.2421902
v 1.19317 -0.2988226 0.2356242
v 1.117824 -0.3289682 0.2514915
v 1.169106 -0.3043997 0.2392203
v 1.154106 -0.3013997 0.2467202
v 1.217234 -0.2996786 0.2556573
v 1.135449 -0.5404975 0.1281004
v 1.133386 -0.580382 0.1543323
v 1.235891 -0.5523462 0.1316879
v 1.219331 -0.5999828 0.169827
v 1.246966 -0.523932 0.1413247
v 1.144629 -0.5016489 0.1215124
v 1.262204 -0.5070688 0.1449802
v 1.257057 -0.4670639 0.1380976
v 1.124283 -0.4670639 0.1380977
v 1.135738 -0.450542 0.135286
v 1.256961 -0.4624412 0.1420603
v 1.143145 -0.4715041 0.1308075
v 1.266594 -0.4630389 0.1556961
v 1.059146 -0.5489539 0.228648
v 1.135451 -0.3182529 0.2122333
v 1.062271 -0.3409627 0.2396157
v 1.13545 -0.5850449 0.2122333
v 1.133151 -0.3150784 0.2297141
v 1.151852 -0.6043596 0.2484167
v 1.049183 -0.3638058 0.2985731
v 1.072882 -0.5410841 0.3287428
v 1.126372 -0.320718 0.3259556
v 1.126371 -0.5825798 0.3259556
v 1.12775 -0.3139403 0.2999488
v 1.136797 -0.5991142 0.2884608
v 1.17953 -0.6050729 0.3029771
v 1.114442 -0.5806696 0.2995711
v 1.179531 -0.2970835 0.2990488
v 1.105672 -0.3333108 0.2951462
v 1.136797 -0.5991142 0.2504608
v 1.155838 -0.3011836 0.2614806
v 1.126371 -0.5825798 0.2879556
v 1.126372 -0.320718 0.2879556
v 1.058926 -0.5361371 0.2792742
v 1.059147 -0.3543439 0.2715409
v 1.179531 -0.2959771 0.202042
v 1.052999 -0.3508215 0.2023297
v 1.070092 -0.5556254 0.1779147
v 1.138842 -0.3374458 0.1555993
v 1.133781 -0.5944958 0.1805842
v 1.117913 -0.3180304 0.2058883
v 1.144289 -0.3087099 0.1803972
v 1.179531 -0.3377402 0.1453802
v 1.125917 -0.3602289 0.1510603
v 1.179531 -0.4237803 0.1428092
v 1.113705 -0.4127736 0.1651623
v 1.156007 -0.4220876 0.1525077
v 1.179531 -0.4337803 0.1558091
v 1.17953 -0.4808529 0.1513313
v 1.127975 -0.4806904 0.164648
v 1.17953 -0.469057 0.1490637
v 1.143712 -0.4921851 0.1427174
v 1.17953 -0.5563501 0.1408035
v 1.114442 -0.5471255 0.1630737
v 1.125916 -0.5862958 0.1852546
v 1.17953 -0.6078167 0.2049529
v 1.149485 -0.5937827 0.1830052
v 1.125916 -0.5574888 0.3397414
v 1.17953 -0.5456032 0.3596598
v 1.14453 -0.4606489 0.3370945
v 1.097361 -0.4962151 0.2945282
v 1.17953 -0.4576159 0.3331274
v 1.109397 -0.4126935 0.3201837
v 1.179531 -0.4597309 0.3136355
v 1.119531 -0.4426489 0.3120945
v 1.149941 -0.348944 0.3539799
v 1.179531 -0.3479476 0.3563854
v 1.179531 -0.4261899 0.3541764
v 1.17953 -0.4576159 0.3401275
v 1.173458 -0.5036591 0.4176742
v 1.256785 -0.5422959 0.3759342
v 1.159557 -0.548683 0.3605145
v 1.268259 -0.5021255 0.3991151
v 1.238171 -0.5396489 0.2790945
v 1.15987 -0.5329502 0.2857931
v 1.135331 -0.5052623 0.3064811
v 1.283882 -0.5003266 0.3114167
v 1.273305 -0.5227381 0.2311389
v 1.134706 -0.4963419 0.2384806
v 1.263171 -0.5146489 0.2610943
v 1.172552 -0.5508862 0.2417131
v 1.232761 -0.5565343 0.1673895
v 1.148083 -0.5366696 0.1756178
v 1.177929 -0.5004975 0.1197623
v 1.281258 -0.494685 0.1590366
v 1.229537 -0.5073816 0.122629
v 1.249551 -0.4322685 0.1335239
v 1.226864 -0.464035 0.119629
v 1.148619 -0.4090053 0.1375368
v 1.25326 -0.4056043 0.1279605
v 1.256785 -0.387809 0.1354474
v 1.177929 -0.3517099 0.1583972
v 1.238413 -0.3443168 0.1762458
v 1.166659 -0.3538752 0.2380346
v 1.277537 -0.378112 0.2261004
v 1.224717 -0.3538389 0.2373978
v 1.13474 -0.3981104 0.2326544
v 1.147677 -0.3773744 0.3064324
v 1.24359 -0.3614742 0.2969838
v 1.15882 -0.3634325 0.295941
v 1.257522 -0.3547777 0.3135177
v 1.183581 -0.3457634 0.3737994
v 1.248868 -0.3517099 0.3713362
v 1.268019 -0.3927933 0.3962326
v 1.15492 -0.4101192 0.4088753
v 1.235784 -0.4030355 0.4199345
v 1.245904 -0.4530152 0.4175598
v 1.230849 -0.4509712 0.4228051
v 1.265394 -0.4877047 0.4043177
v 1.245842 -0.3649788 0.3955145
v 1.25633 -0.49051 0.4010253
v 1.247251 -0.4147878 0.4034905
v 1.25633 -0.52851 0.4010253
v 1.312609 -0.3804691 0.3740709
v 1.323775 -0.4818286 0.3545827
v 1.329703 -0.4048841 0.1692669
v 1.323555 -0.4740954 0.1727893
v 1.25633 -0.49051 0.1391635
v 1.245842 -0.3649788 0.1446743
v 1.323555 -0.4312024 0.3673995
v 1.309819 -0.5312973 0.3595296
v 1.333519 -0.5011275 0.1822513
v 1.320431 -0.4421702 0.1594082
v 1.25633 -0.52851 0.1391635
v 1.247251 -0.4147878 0.1366984

vn 0.7131611 0.3037823 -0.6317577
vn 0.7131667 0.6999153 0.03888226
vn 0.5613173 0.6167563 -0.5518467
vn 0.7131631 0.6317493 0.3037949
vn 0.7131667 0.03888242 -0.6999153
vn 0.804917 0.3956753 0.44221
vn 0.321152 0.8937099 -0.3132796
vn 0.5613104 -0.2737978 -0.781003
vn 0.7131675 -0.4674131 -0.5224147
vn 0.7131624 0.2319126 0.6615255
vn 0.8369629 -0.4764373 -0.2692593
vn 0.7131667 -0.0388831 0.6999153
vn 0.6074467 -0.7884836 -0.09644833
vn 0.713163 -0.3037949 0.6317493
vn 0.5613119 -0.7809939 0.2738205
vn 0.3211544 -0.705766 0.63147
vn -0.8978507 -0.4370422 -0.05346271
vn -1 0 0
vn -1 0 0
vn -0.4541816 -0.7756078 -0.4383512
vn -1 0 0
vn -0.7131646 -0.6863522 0.1425378
vn -1 0 0
vn -0.7131644 -0.5795571 0.394348
vn -1 0 0
vn -0.7131647 -0.3845274 0.5861186
vn -1 0 0
vn -0.7131636 -0.1309599 0.6886561
vn -1 0 0
vn -0.7131647 0.142538 0.6863521
vn -1 0 0
vn -0.7131646 0.3943552 0.5795519
vn -1 0 0
vn -0.7131642 0.5861201 0.384526
vn -1 0 0
vn -0.7131646 0.6886555 0.1309578
vn -1 0 0
vn -0.7071207 0.7054415 -0.04829725
vn -1 0 0
vn -0.7279981 0.6561677 -0.1986526
vn -1 0 0
vn -0.7218957 0.3814138 -0.5773995
vn -1 0 0
vn -0.7094902 0.06316943 -0.7018785
vn -1 0 0
vn -0.7131647 -0.1425449 -0.6863507
vn -1 0 0
vn -0.7131637 -0.3943568 -0.5795518
vn 0.8978501 -0.4370441 -0.05345733
vn 0.8978509 -0.3833159 -0.2166391
vn 0.454181 -0.8843176 -0.1081772
vn 0.4541838 -0.7756073 -0.4383498
vn 0.7131647 -0.6615241 0.23191
vn 0.7131644 -0.6863534 0.1425331
vn 0.7131644 -0.5224182 0.467414
vn 0.7131644 -0.5795615 0.3943415
vn 0.7131646 -0.3037752 0.631757
vn 0.7131657 -0.384527 0.5861176
vn 0.7131636 -0.03889712 0.6999177
vn 0.7131627 -0.1309506 0.6886588
vn 0.713165 0.2319148 0.661522
vn 0.7131644 0.1425332 0.6863534
vn 0.713164 0.4674207 0.5224128
vn 0.7131649 0.3943573 0.5795501
vn 0.7131644 0.6317558 0.3037784
vn 0.7131636 0.5861188 0.3845288
vn 0.7131646 0.6999173 0.03888774
vn 0.7131658 0.6886537 0.1309607
vn 0.7071207 0.7057311 -0.04386285
vn 0.713163 0.68635 -0.1425565
vn 0.7279981 0.58547 -0.3567126
vn 0.7131643 0.5795614 -0.3943417
vn 0.7218957 0.2523704 -0.6443414
vn 0.7131653 0.3845304 -0.5861158
vn 0.70949 0.005136671 -0.7046969
vn 0.7131631 0.1309585 -0.6886569
vn 0.7131654 -0.231919 -0.6615201
vn 0.7131667 -0.142546 -0.6863484
vn 0.7131634 -0.4674202 -0.522414
vn 0.7131619 -0.3943545 -0.5795556
vn -0.8821191 -0.4680836 -0.05257073
vn -0.8831359 -0.4110174 -0.2261319
vn -0.4460487 -0.8886701 -0.1063297
vn -0.4465448 -0.7802918 -0.4378842
vn -0.6985179 -0.6785163 0.2273509
vn -0.6985617 -0.7017696 0.139753
vn -0.7006232 -0.5390683 0.4674746
vn -0.6988371 -0.5912679 0.4025286
vn -0.6982135 -0.3112265 0.6446985
vn -0.6992645 -0.3841644 0.6028657
vn -0.6976632 -0.03808426 0.7154129
vn -0.6976417 -0.1282281 0.7048786
vn -0.6985105 0.2273583 0.6785215
vn -0.6985615 0.1397356 0.7017733
vn -0.7006227 0.4674903 0.5390554
vn -0.698836 0.4025301 0.5912681
vn -0.6982124 0.6446901 0.3112462
vn -0.6992718 0.6028534 0.3841704
vn -0.6976805 0.7153968 0.03807255
vn -0.6976568 0.7048631 0.1282305
vn -0.6985167 0.6785138 -0.2273625
vn -0.6985645 0.7017692 -0.1397425
vn -0.7006235 0.5390679 -0.4674748
vn -0.6988361 0.5912598 -0.4025419
vn -0.698213 0.3112331 -0.6446957
vn -0.6992692 0.3841695 -0.6028569
vn -0.6976781 0.03809045 -0.7153981
vn -0.6976596 0.1282406 -0.7048585
vn -0.6985195 -0.2273695 -0.6785085
vn -0.6985617 -0.1397523 -0.7017698
vn -0.700622 -0.4674737 -0.5390707
vn -0.6988371 -0.4025286 -0.5912679
vn 0.4541838 -0.7756073 -0.4383498
vn 0.7131619 -0.3943545 -0.5795556
vn 0.7131667 -0.142546 -0.6863484
vn 0.7131631 0.1309585 -0.6886569
vn 0.7131653 0.3845304 -0.5861158
vn 0.7131643 0.5795614 -0.3943417
vn 0.713163 0.68635 -0.1425565
vn 0.7131658 0.6886537 0.1309607
vn 0.7131636 0.5861188 0.3845288
vn 0.7131649 0.3943573 0.5795501
vn 0.7131644 0.1425332 0.6863534
vn 0.7131627 -0.1309506 0.6886588
vn 0.7131657 -0.384527 0.5861176
vn 0.7131644 -0.5795615 0.3943415
vn 0.7131644 -0.6863534 0.1425331
vn 0.8978501 -0.4370441 -0.05345733
vn 0.8978512 -0.4370407 -0.05346703
vn 0.8978507 -0.3833165 -0.2166394
vn 0.4541824 -0.8843179 -0.1081672
vn 0.4541792 -0.7756135 -0.4383436
vn 0.7131636 -0.6615228 0.2319167
vn 0.7131652 -0.6863499 0.1425456
vn 0.7131643 -0.5224203 0.4674118
vn 0.7131643 -0.5795525 0.394355
vn 0.7131657 -0.3037728 0.631757
vn 0.7131649 -0.3845212 0.5861224
vn 0.7131628 -0.03889563 0.6999186
vn 0.7131634 -0.1309512 0.688658
vn 0.7131653 0.2319154 0.6615215
vn 0.7131646 0.1425417 0.6863515
vn 0.7131628 0.4674135 0.5224208
vn 0.7131636 0.3943452 0.5795599
vn 0.7131657 0.6317571 0.3037727
vn 0.7131663 0.5861149 0.3845299
vn 0.7131631 0.6999182 0.03889889
vn 0.7131628 0.6886599 0.1309443
vn 0.7131659 0.6615185 -0.231922
vn 0.7131653 0.6863498 -0.1425464
vn 0.7131636 0.5224112 -0.4674229
vn 0.7131632 0.5795572 -0.3943498
vn 0.7131635 0.3037854 -0.6317534
vn 0.7131643 0.3845327 -0.5861155
vn 0.7131653 0.03888937 -0.6999164
vn 0.7131643 0.1309654 -0.6886544
vn 0.7131637 -0.231916 -0.6615229
vn 0.7131646 -0.1425416 -0.6863515
vn 0.7131647 -0.4674165 -0.5224156
vn 0.7131657 -0.3943571 -0.5795492
vn 0.8978509 -0.4370432 -0.05345052
vn 0.8978498 -0.3833203 -0.2166362
vn 0.454182 -0.884316 -0.1081853
vn 0.4541829 -0.775604 -0.4383566
vn 0.7131649 -0.6615213 0.2319175
vn 0.7131631 -0.6863514 0.1425493
vn 0.7131646 -0.5224151 0.4674172
vn 0.7131657 -0.5795569 0.3943457
vn 0.7131649 -0.3037669 0.6317608
vn 0.7131643 -0.3845148 0.5861272
vn 0.7131633 -0.03889038 0.6999183
vn 0.7131622 -0.1309608 0.6886575
vn 0.7131646 0.2319129 0.6615232
vn 0.713167 0.142532 0.6863509
vn 0.7131636 0.4674067 0.5224258
vn 0.7131625 0.3943625 0.5795496
vn 0.7131663 0.6317595 0.3037663
vn 0.713165 0.5861208 0.3845232
vn 0.7131629 0.699919 0.03888705
vn 0.7131621 0.6886574 0.1309617
vn 0.7131649 0.6615211 -0.2319177
vn 0.713168 0.6863488 -0.1425377
vn 0.7131642 0.5224197 -0.4674129
vn 0.7131605 0.5795539 -0.3943596
vn 0.7131637 0.3037794 -0.6317559
vn 0.7131664 0.384541 -0.5861075
vn 0.7131643 0.03889757 -0.699917
vn 0.7131642 0.1309465 -0.6886582
vn 0.7131646 -0.2319129 -0.6615231
vn 0.7131652 -0.1425391 -0.6863514
vn 0.7131657 -0.4674295 -0.5224026
vn 0.7131623 -0.3943611 -0.5795506
vn 0.8978522 -0.4370394 -0.05345922
vn 0.8978514 -0.3833124 -0.2166435
vn 0.4541818 -0.8843194 -0.1081583
vn 0.454179 -0.7756085 -0.4383528
vn 0.7131632 -0.6615257 0.2319096
vn 0.7131637 -0.6863471 0.1425671
vn 0.7131657 -0.5224118 0.4674192
vn 0.7131639 -0.5795511 0.3943577
vn 0.7131643 -0.3037639 0.6317629
vn 0.713163 -0.3845357 0.586115
vn 0.7131622 -0.03890925 0.6999185
vn 0.7131667 -0.1309692 0.6886512
vn 0.713167 0.2319214 0.6615175
vn 0.7131611 0.1425481 0.6863539
vn 0.7131631 0.4674233 0.5224116
vn 0.7131671 0.3943509 0.5795516
vn 0.7131643 0.6317627 0.303764
vn 0.7131621 0.5861239 0.384524
vn 0.7131621 0.6999185 0.03890995
vn 0.7131667 0.6886513 0.1309686
vn 0.7131674 0.6615149 -0.2319278
vn 0.713161 0.6863539 -0.1425484
vn 0.7131618 0.5224275 -0.4674076
vn 0.7131686 0.5795624 -0.3943326
vn 0.7131656 0.3037726 -0.6317571
vn 0.7131611 0.3845112 -0.5861336
vn 0.7131631 0.03889557 -0.6999183
vn 0.7131667 0.1309688 -0.6886512
vn 0.7131671 -0.2319203 -0.6615177
vn 0.7131636 -0.1425676 -0.686347
vn 0.7131614 -0.4674197 -0.5224172
vn 0.7131652 -0.3943395 -0.5795618
vn 0.4618053 -0.7131627 0.5273849
vn 0.6639655 -0.7131658 -0.224821
vn 0.4464269 -0.8049157 -0.3909142
vn 0.7419736 -0.561314 0.3666087
vn 0.9449526 -0.3211539 0.062648
vn 0.2654264 -0.5613138 0.7838851
vn -0.04637253 -0.7131629 0.699463
vn 0.3105244 -0.7131659 -0.6284657
vn -0.3105244 -0.7131655 0.6284662
vn 0.04637253 -0.7131634 -0.6994624
vn -0.3869694 -0.8369642 0.3869698
vn -0.2248212 -0.7131659 -0.6639653
vn -0.7338829 -0.6074421 0.3040232
vn -0.4618053 -0.7131631 -0.5273845
vn -0.8257864 -0.5613171 -0.05477188
vn -0.8490295 -0.321154 -0.4195344
vn -0.4067857 -0.8978506 0.1684925
vn -0.3113389 -0.8978509 0.3113392
vn -0.6299675 -0.4541827 0.6299676
vn -0.8230942 -0.454182 0.3409323
vn -0.6994615 -0.713164 -0.04637776
vn -0.699461 -0.7131645 0.0463777
vn -0.628475 -0.7131641 -0.3105099
vn -0.6639673 -0.7131639 -0.2248218
vn -0.4618039 -0.7131652 -0.527383
vn -0.5273893 -0.7131657 -0.4617958
vn -0.2248204 -0.713165 -0.6639666
vn -0.3105119 -0.713164 -0.6284741
vn 0.04637801 -0.7131643 -0.6994613
vn -0.04637744 -0.7131648 -0.6994609
vn 0.3105101 -0.7131642 -0.6284748
vn 0.224822 -0.713164 -0.6639671
vn 0.5273832 -0.7131651 -0.4618036
vn 0.461796 -0.7131658 -0.5273891
vn 0.6639668 -0.7131649 -0.2248202
vn 0.6284742 -0.7131639 -0.3105117
vn 0.6994615 -0.713164 0.04637827
vn 0.699461 -0.7131646 -0.04637719
vn 0.628475 -0.7131639 0.3105104
vn 0.6639673 -0.7131637 0.2248223
vn 0.4618039 -0.7131647 0.5273835
vn 0.5273893 -0.7131654 0.4617963
vn 0.2248204 -0.7131646 0.6639671
vn 0.3105119 -0.7131636 0.6284746
vn -0.0463744 -0.7131634 0.6994623
vn 0.04637744 -0.7131643 0.6994614
vn -0.3105174 -0.7131646 0.6284707
vn -0.224822 -0.7131636 0.6639677
vn -0.3105119 -0.7131636 0.6284746
vn -0.3113379 -0.8978516 0.3113382
vn -0.224829 -0.7131625 0.6639664
vn 0.04638244 -0.7131655 0.6994597
vn -0.04637744 -0.7131643 0.6994614
vn 0.3105113 -0.7131625 0.628476
vn 0.224822 -0.7131635 0.6639676
vn 0.5273907 -0.7131662 0.4617935
vn 0.461796 -0.7131653 0.5273896
vn 0.6639661 -0.7131627 0.2248293
vn 0.6284742 -0.7131637 0.3105122
vn 0.6994593 -0.7131658 -0.04638219
vn 0.699461 -0.7131645 0.0463777
vn 0.6284757 -0.7131628 -0.3105111
vn 0.6639673 -0.7131639 -0.2248218
vn 0.4617932 -0.7131665 -0.5273905
vn 0.5273893 -0.7131657 -0.4617958
vn 0.224829 -0.713163 -0.6639659
vn 0.3105119 -0.713164 -0.6284741
vn -0.04638244 -0.7131661 -0.6994591
vn 0.04637744 -0.7131648 -0.6994609
vn -0.3105113 -0.713163 -0.6284755
vn -0.224822 -0.713164 -0.6639671
vn -0.5273907 -0.7131665 -0.461793
vn -0.461796 -0.7131658 -0.5273891
vn -0.6639661 -0.7131628 -0.2248288
vn -0.6284742 -0.7131639 -0.3105117
vn -0.6994593 -0.7131658 0.0463827
vn -0.699461 -0.7131646 -0.04637719
vn -0.4067862 -0.8978502 0.1684946
vn -0.823096 -0.4541808 0.3409296
vn -0.6299671 -0.4541836 0.6299673
vn -0.3105114 -0.7131625 0.628476
vn -0.3113372 -0.897852 0.3113376
vn -0.2248212 -0.7131655 0.6639659
vn 0.04637253 -0.7131629 0.699463
vn -0.04638244 -0.7131655 0.6994597
vn 0.3105244 -0.7131656 0.6284662
vn 0.224829 -0.7131625 0.6639664
vn 0.5273846 -0.7131628 0.4618056
vn 0.4617932 -0.7131661 0.527391
vn 0.6639655 -0.7131656 0.2248215
vn 0.6284757 -0.7131627 0.3105116
vn 0.6994626 -0.7131632 -0.04637228
vn 0.6994593 -0.7131658 0.0463827
vn 0.6284658 -0.7131659 -0.3105242
vn 0.663966 -0.7131628 -0.2248288
vn 0.4618053 -0.7131631 -0.5273845
vn 0.5273907 -0.7131665 -0.461793
vn 0.2248212 -0.7131659 -0.6639653
vn 0.3105114 -0.713163 -0.6284755
vn -0.04637253 -0.7131634 -0.6994624
vn 0.04638244 -0.7131661 -0.6994591
vn -0.3105244 -0.713166 -0.6284657
vn -0.224829 -0.713163 -0.6639658
vn -0.5273846 -0.7131631 -0.4618051
vn -0.4617932 -0.7131665 -0.5273905
vn -0.663955 -0.7131631 -0.2248603
vn -0.6284757 -0.7131628 -0.3105111
vn -0.6994559 -0.7131686 0.04639319
vn -0.6994593 -0.7131658 -0.04638219
vn -0.4067775 -0.8978503 0.1685146
vn -0.8230951 -0.4541796 0.3409332
vn -0.6299685 -0.4541797 0.6299688
vn -0.3105244 -0.7131655 0.6284662
vn -0.3869694 -0.8369642 0.3869698
vn -0.04637253 -0.7131629 0.699463
vn 0.2654264 -0.5613138 0.7838851
vn 0.4618053 -0.7131627 0.5273849
vn 0.7419736 -0.561314 0.3666087
vn 0.9449526 -0.3211539 0.062648
vn 0.6639655 -0.7131658 -0.224821
vn 0.4464269 -0.8049157 -0.3909142
vn 0.3105244 -0.7131659 -0.6284657
vn 0.04637253 -0.7131634 -0.6994624
vn -0.2248212 -0.7131659 -0.6639653
vn -0.4618053 -0.7131631 -0.5273845
vn -0.8490295 -0.321154 -0.4195344
vn -0.8257864 -0.5613171 -0.05477188
vn -0.7338829 -0.6074421 0.3040232
vn -0.7071067 2.528811E-07 0.7071068
vn -0.3207155 3.387364E-07 0.9471757
vn 0.06615486 3.568444E-07 0.9978095
vn 0.4429657 3.206272E-07 0.8965387
vn 0.7523482 2.35593E-07 0.6587657
vn 0.9471762 1.146961E-07 0.3207135
vn 0.9978096 -2.365793E-08 -0.06615236
vn 0.8965386 -1.584169E-07 -0.4429657
vn 0.6587657 -2.690607E-07 -0.7523483
vn 0.3207135 -3.387366E-07 -0.9471763
vn -0.06615236 -3.568445E-07 -0.9978097
vn -0.4429657 -3.206272E-07 -0.8965387
vn -0.7523482 -2.35593E-07 -0.6587657
vn -0.9471762 -1.146961E-07 -0.3207135
vn -0.9978096 2.365793E-08 0.06615236
vn -0.9238814 1.368567E-07 0.3826791
vn 0.7131675 -0.4674131 -0.5224147
vn 0.454179 -0.7756085 -0.4383528
vn 0.8369629 -0.4764373 -0.2692593
vn 0.7131652 -0.3943395 -0.5795618
vn 0.5613104 -0.2737978 -0.781003
vn 0.7131636 -0.1425676 -0.686347
vn 0.7131667 0.03888242 -0.6999153
vn 0.7131667 0.1309688 -0.6886512
vn 0.7131611 0.3037823 -0.6317577
vn 0.7131611 0.3845112 -0.5861336
vn 0.5613173 0.6167563 -0.5518467
vn 0.7131686 0.5795624 -0.3943326
vn 0.321152 0.8937099 -0.3132796
vn 0.713161 0.6863539 -0.1425484
vn 0.7131667 0.6999153 0.03888226
vn 0.7131667 0.6886513 0.1309686
vn 0.7131631 0.6317493 0.3037949
vn 0.7131621 0.5861239 0.384524
vn 0.804917 0.3956753 0.44221
vn 0.7131671 0.3943509 0.5795516
vn 0.7131624 0.2319126 0.6615255
vn 0.7131611 0.1425481 0.6863539
vn 0.7131667 -0.0388831 0.6999153
vn 0.7131667 -0.1309692 0.6886512
vn 0.713163 -0.3037949 0.6317493
vn 0.713163 -0.3845357 0.586115
vn 0.3211544 -0.705766 0.63147
vn 0.7131639 -0.5795511 0.3943577
vn 0.5613119 -0.7809939 0.2738205
vn 0.7131637 -0.6863471 0.1425671
vn 0.6074467 -0.7884836 -0.09644833
vn 0.8978522 -0.4370394 -0.05345922
vn 0.7131614 -0.4674197 -0.5224172
vn 0.4541829 -0.775604 -0.4383566
vn 0.8978514 -0.3833124 -0.2166435
vn 0.7131623 -0.3943611 -0.5795506
vn 0.7131671 -0.2319203 -0.6615177
vn 0.7131652 -0.1425391 -0.6863514
vn 0.7131631 0.03889557 -0.6999183
vn 0.7131642 0.1309465 -0.6886582
vn 0.7131656 0.3037726 -0.6317571
vn 0.7131664 0.384541 -0.5861075
vn 0.7131618 0.5224275 -0.4674076
vn 0.7131605 0.5795539 -0.3943596
vn 0.7131674 0.6615149 -0.2319278
vn 0.713168 0.6863488 -0.1425377
vn 0.7131621 0.6999185 0.03890995
vn 0.7131621 0.6886574 0.1309617
vn 0.7131643 0.6317627 0.303764
vn 0.713165 0.5861208 0.3845232
vn 0.7131631 0.4674233 0.5224116
vn 0.7131625 0.3943625 0.5795496
vn 0.713167 0.2319214 0.6615175
vn 0.713167 0.142532 0.6863509
vn 0.7131622 -0.03890925 0.6999185
vn 0.7131622 -0.1309608 0.6886575
vn 0.7131643 -0.3037639 0.6317629
vn 0.7131643 -0.3845148 0.5861272
vn 0.7131657 -0.5224118 0.4674192
vn 0.7131657 -0.5795569 0.3943457
vn 0.7131632 -0.6615257 0.2319096
vn 0.7131631 -0.6863514 0.1425493
vn 0.4541818 -0.8843194 -0.1081583
vn 0.8978509 -0.4370432 -0.05345052
vn 0.7131657 -0.4674295 -0.5224026
vn 0.4541792 -0.7756135 -0.4383436
vn 0.8978498 -0.3833203 -0.2166362
vn 0.7131657 -0.3943571 -0.5795492
vn 0.7131646 -0.2319129 -0.6615231
vn 0.7131646 -0.1425416 -0.6863515
vn 0.7131643 0.03889757 -0.699917
vn 0.7131643 0.1309654 -0.6886544
vn 0.7131637 0.3037794 -0.6317559
vn 0.7131643 0.3845327 -0.5861155
vn 0.7131642 0.5224197 -0.4674129
vn 0.7131632 0.5795572 -0.3943498
vn 0.7131649 0.6615211 -0.2319177
vn 0.7131653 0.6863498 -0.1425464
vn 0.7131629 0.699919 0.03888705
vn 0.7131628 0.6886599 0.1309443
vn 0.7131663 0.6317595 0.3037663
vn 0.7131663 0.5861149 0.3845299
vn 0.7131636 0.4674067 0.5224258
vn 0.7131636 0.3943452 0.5795599
vn 0.7131646 0.2319129 0.6615232
vn 0.7131646 0.1425417 0.6863515
vn 0.7131633 -0.03889038 0.6999183
vn 0.7131634 -0.1309512 0.688658
vn 0.7131649 -0.3037669 0.6317608
vn 0.7131649 -0.3845212 0.5861224
vn 0.7131646 -0.5224151 0.4674172
vn 0.7131643 -0.5795525 0.394355
vn 0.7131649 -0.6615213 0.2319175
vn 0.7131652 -0.6863499 0.1425456
vn 0.454182 -0.884316 -0.1081853
vn 0.8978512 -0.4370407 -0.05346703
vn 0.7131647 -0.4674165 -0.5224156
vn -0.4465448 -0.7802918 -0.4378842
vn 0.8978507 -0.3833165 -0.2166394
vn -0.6988371 -0.4025286 -0.5912679
vn 0.7131637 -0.231916 -0.6615229
vn -0.6985617 -0.1397523 -0.7017698
vn 0.7131653 0.03888937 -0.6999164
vn -0.6976596 0.1282406 -0.7048585
vn 0.7131635 0.3037854 -0.6317534
vn -0.6992692 0.3841695 -0.6028569
vn 0.7131636 0.5224112 -0.4674229
vn -0.6988361 0.5912598 -0.4025419
vn 0.7131659 0.6615185 -0.231922
vn -0.6985645 0.7017692 -0.1397425
vn 0.7131631 0.6999182 0.03889889
vn -0.6976568 0.7048631 0.1282305
vn 0.7131657 0.6317571 0.3037727
vn -0.6992718 0.6028534 0.3841704
vn 0.7131628 0.4674135 0.5224208
vn -0.698836 0.4025301 0.5912681
vn 0.7131653 0.2319154 0.6615215
vn -0.6985615 0.1397356 0.7017733
vn 0.7131628 -0.03889563 0.6999186
vn -0.6976417 -0.1282281 0.7048786
vn 0.7131657 -0.3037728 0.631757
vn -0.6992645 -0.3841644 0.6028657
vn 0.7131643 -0.5224203 0.4674118
vn -0.6988371 -0.5912679 0.4025286
vn 0.7131636 -0.6615228 0.2319167
vn -0.6985617 -0.7017696 0.139753
vn 0.4541824 -0.8843179 -0.1081672
vn -0.8821191 -0.4680836 -0.05257073
vn 0.454181 -0.8843176 -0.1081772
vn -0.4541816 -0.7756078 -0.4383512
vn -0.8978507 -0.4370422 -0.05346271
vn 0.8978509 -0.3833159 -0.2166391
vn -0.7131646 -0.6863522 0.1425378
vn 0.7131647 -0.6615241 0.23191
vn -0.7131644 -0.5795571 0.394348
vn 0.7131644 -0.5224182 0.467414
vn -0.7131647 -0.3845274 0.5861186
vn 0.7131646 -0.3037752 0.631757
vn -0.7131636 -0.1309599 0.6886561
vn 0.7131636 -0.03889712 0.6999177
vn -0.7131647 0.142538 0.6863521
vn 0.713165 0.2319148 0.661522
vn -0.7131646 0.3943552 0.5795519
vn 0.713164 0.4674207 0.5224128
vn -0.7131642 0.5861201 0.384526
vn 0.7131644 0.6317558 0.3037784
vn -0.7131646 0.6886555 0.1309578
vn 0.7131646 0.6999173 0.03888774
vn -0.7071207 0.7054415 -0.04829725
vn 0.7071207 0.7057311 -0.04386285
vn -0.7279981 0.6561677 -0.1986526
vn 0.7279981 0.58547 -0.3567126
vn -0.7218957 0.3814138 -0.5773995
vn 0.7218957 0.2523704 -0.6443414
vn -0.7094902 0.06316943 -0.7018785
vn 0.70949 0.005136671 -0.7046969
vn -0.7131647 -0.1425449 -0.6863507
vn 0.7131654 -0.231919 -0.6615201
vn -0.7131637 -0.3943568 -0.5795518
vn 0.7131634 -0.4674202 -0.522414
vn 0.6773435 -0.5782471 -0.4547925
vn 0.4434243 -0.4402101 -0.7807626
vn 0 -0.06242563 -0.9980497
vn 0.7567701 -0.3894001 0.5250397
vn 0.7581596 -0.3560188 0.5463009
vn 0.6939251 -0.4971865 0.5208395
vn 0 -0.4845114 -0.8747851
vn 0.4133461 -0.6787268 -0.6070216
vn 0 -0.1941349 -0.980975
vn 0.7990934 -0.3472318 -0.4907951
vn -0.5047573 -0.3354515 -0.7954198
vn -0.4317761 -0.588151 -0.683848
vn -0.5769518 -0.4626894 -0.6730864
vn -0.6972633 -0.5555876 -0.4529308
vn -0.8290093 -0.4104895 0.3797921
vn -0.7604036 -0.2653752 0.5927584
vn -0.6899894 -0.5722938 0.4431643
vn -0.2568474 -0.8483078 -0.4630372
vn -0.2003681 -0.6617692 0.7224364
vn 0.06757853 -0.8275794 0.5572662
vn 0.1351571 -0.8192605 -0.5572656
vn 0.30464 -0.7693501 0.5615115
vn 0.4050001 -0.721582 -0.5615109
vn 0.2439347 -0.5285249 0.8131159
vn 0.1717795 -0.8016379 -0.5725981
vn -0.2280938 -0.7533435 0.6168039
vn -0.1558729 -0.5148144 -0.8430126
vn -0.4642938 -0.8266646 -0.317895
vn -0.297131 -0.6393665 0.7091712
vn -0.1419033 -0.7825448 -0.6062073
vn -0.1251417 -0.6901099 0.7128031
vn 0.1161026 -0.6871208 0.7172067
vn 0.2747594 -0.7774454 -0.5657616
vn -0.205973 0.2912902 0.9341977
vn 0.349542 0.7410514 0.5732918
vn 0.09720775 0.7641008 -0.637731
vn -0.2055992 0.5815228 0.7871216
vn -0.4735439 0.8363692 0.276121
vn -0.1965724 0.3471841 -0.9169639
vn -0.8841223 0.3350863 -0.3256454
vn -0.9305291 0.1675433 0.3256452
vn -0.8198882 -0.1106386 -0.5617316
vn -0.7971789 -0.2212765 0.5617318
vn -0.7971789 -0.2212769 -0.5617316
vn -0.9910177 -0.1337311 4.782597E-08
vn -0.5890756 0.07470658 -0.8046173
vn -0.9166555 0.238322 -0.3208508
vn -0.9166555 0.238322 -0.3208508
vn -0.9396039 0.1191612 0.3208508
vn 0.1579822 0.8065867 -0.5696138
vn 0.6297754 0.4968283 -0.5971136
vn 0.3159644 0.758754 0.5696132
vn 0.8911191 0.2902323 0.3488155
vn 0.2971085 0.6302629 0.7172835
vn 0 0.8944271 -0.447214
vn 0.2055992 0.5815228 0.7871216
vn -0.1744669 0.6732908 0.7184991
vn -0.1744669 0.6732903 -0.7184996
vn -0.274758 0.7774455 -0.565762
vn -0.116102 0.6871215 0.717206
vn 0.2847358 0.8371587 -0.4670022
vn 0.1718671 0.5053109 0.8456494
vn 0.4307335 0.4992864 -0.7517858
vn -0.6852798 0.7181476 -0.1210607
vn -0.6091492 0.3530487 -0.7101365
vn 0.6852798 0.7181476 -0.1210607
vn -0.7276069 0.4850712 -0.4850715
vn 0.9428091 0.2357022 -0.2357024
vn -0.3045746 -0.3530493 -0.8846416
vn 0.3258031 -0.7553123 -0.5686438
vn -0.6524122 -0.7181477 -0.2421206
vn 0.6524122 -0.7181477 -0.2421205
vn -0.7427813 -0.3713909 -0.5570859
vn 0.8728715 -0.2182181 -0.4364357
vn 0.9523198 -0.3051016 1.091128E-07
vn 0.6269431 -0.2596886 -0.7345095
vn -0.9675382 -0.2527248 9.038141E-08
vn -0.4845082 -0.2006902 -0.8514549
vn 0.8728715 -0.2182181 -0.4364357
vn -0.9128709 -0.3651485 -0.1825741
vn 0.6524122 -0.7181477 -0.2421205
vn -0.6524122 -0.7181477 -0.2421206
vn 0.2598432 -0.602397 -0.7547183
vn -0.4307335 -0.4992869 -0.7517855
vn -0.9822902 0.1873655 -6.700714E-08
vn -0.4776988 0.276863 -0.833757
vn 0.5196863 0.6023965 -0.6058422
vn -0.429374 0.8999358 -0.07585283
vn 0.8112918 0.5668021 -0.1433217
vn -0.6882472 0.2294155 -0.6882474
vn -0.81252 0.4759631 -0.336557
vn -0.5054494 0.8628563 -3.085814E-07
vn -0.2055992 0.7871216 -0.5815228
vn 0.4417517 0.8971375 -3.208413E-07
vn 0.2949959 0.5990962 -0.744353
vn 0.285849 0.9411567 -0.1803185
vn 0.4417517 0.8971375 -3.208413E-07
vn -0.2906126 0.9568409 -3.421929E-07
vn -0.2927796 0.7792855 -0.5540708
vn -0.5812252 0.8137429 -2.910171E-07
vn -0.2728511 0.8983611 -0.3442382
vn 0.3826834 0.9238796 -3.30405E-07
vn 0.2596883 0.6269429 -0.7345098
vn 0.7019597 0.4111983 -0.5815227
vn 0.9889043 0.1485543 -5.312716E-08
vn 0.8017837 0.5345225 -0.2672615
vn 0.4111985 -0.70196 -0.5815223
vn 0.2527247 -0.9675384 3.460186E-07
vn -0.6666667 -0.6666669 -0.3333331
vn -0.1924501 -0.1924505 -0.9622505
vn -0.7071068 -0.7071068 2.528811E-07
vn 0.2672613 -0.5345229 -0.8017836
vn 0.8944272 -0.4472136 1.59936E-07
vn 0.6666667 -0.3333336 -0.6666666
vn -0.369398 -0.8918059 -0.2612036
vn -0.3826834 -0.9238796 3.30405E-07
vn 0.4472136 -0.8944273 3.198721E-07
vn -0.7071068 -0.7071068 2.528811E-07
vn 0.2801369 -0.8743972 -0.3961731
vn 0.7019597 -0.4111983 0.5815227
vn 0.7871217 -0.2055995 -0.5815225
vn 0.2596883 -0.6269429 0.7345098
vn 0.6666667 0.6666669 0.3333331
vn 0.5773503 0.5773501 -0.5773506
vn 0.3015113 0.301511 -0.9045343
vn 0.2357023 0.2357026 0.9428091
vn 0.5345225 -0.267261 0.8017839
vn 0.1825742 -0.3651487 -0.9128709
vn 0.3333333 -0.6666665 0.666667
vn 0.8164966 -0.4082485 -0.4082482
vn 0.8918058 0.3693982 0.2612038
vn 0.6269431 0.2596881 -0.7345097
vn 0.2379816 0.9110951 -0.3365571
vn 0.1604816 0.3874371 0.9078207
vn 0.4364358 0.8728717 0.2182176
vn -0.4850713 0.7276071 0.4850711
vn 0.3651484 0.9128711 0.1825739
vn -0.1285805 0.6741013 -0.7273615
vn -0.2672613 0.801784 0.5345223
vn -0.4111983 0.7019601 0.5815223
vn -0.8125198 0.4759632 -0.336557
vn -0.9110951 0.2379818 0.3365567
vn -0.7836486 -0.38587 -0.4868257
vn -0.4604925 -0.2267469 0.8582149
vn -0.9574664 -0.2440455 0.1539479
vn -0.3671789 -0.1807998 -0.9124097
vn -0.6436604 0.1954929 -0.7399216
vn -0.8556618 0.3214745 0.4055824
vn -0.656219 0.4687119 -0.5913425
vn -0.7716162 0.2343562 0.5913423
vn -0.8918057 -0.3693983 -0.2612038
vn -0.8125199 -0.3365568 0.4759634
vn -0.3447411 -0.5885101 0.7313069
vn -0.1137291 -0.7570786 -0.643349
vn -0.3015113 -0.904534 0.3015117
vn 0.2182179 -0.8728715 0.4364361
vn -0.2357023 -0.9428091 0.2357026
vn 0.1740777 -0.6963105 0.696311
vn -0.8089348 -0.578934 0.1022738
vn 0.7181476 -0.6524121 0.2421211
vn -0.7181475 -0.6852798 0.1210607
vn 0.7181476 -0.6524121 0.2421211
vn -0.6023965 -0.519686 0.6058423
vn 0.6023965 -0.2598429 0.7547186
vn -0.2768633 0.4776992 0.8337568
vn 0.4992866 0.4307339 0.7517855
vn 0.7181475 0.6524124 0.2421206
vn -0.8089348 0.5789341 0.1022733
vn -0.4992866 -0.4307333 0.7517859
vn 0.755312 -0.3258029 0.5686443
vn 0.353049 0.304575 0.8846416
vn -0.3530489 0.6091495 0.7101362
vn 0.7181475 0.6524124 0.2421206
vn -0.7181475 0.68528 0.1210602

vt 0.057566 0.83243
vt 0.036833 0.842893
vt 0.052246 0.838611
vt 0.029087 0.840342
vt 0.060117 0.824684
vt 0.022907 0.835022
vt 0.044965 0.842285
vt 0.059509 0.816552
vt 0.055835 0.809272
vt 0.019233 0.827741
vt 0.049654 0.803951
vt 0.018625 0.819609
vt 0.041908 0.801401
vt 0.021175 0.811863
vt 0.033776 0.802009
vt 0.026496 0.805683
vt 0.058512 0.578487
vt 0.058102 0.585927
vt 0.059187 0.585889
vt 0.055091 0.578434
vt 0.060305 0.586384
vt 0.061936 0.580142
vt 0.061292 0.58733
vt 0.064896 0.583084
vt 0.062007 0.588583
vt 0.067024 0.586881
vt 0.062347 0.589961
vt 0.068062 0.591032
vt 0.062263 0.591265
vt 0.067869 0.595005
vt 0.061762 0.592305
vt 0.066431 0.598266
vt 0.060913 0.592921
vt 0.063887 0.600321
vt 0.059836 0.593012
vt 0.060545 0.600782
vt 0.058694 0.592551
vt 0.056888 0.599465
vt 0.057666 0.591602
vt 0.05148 0.597643
vt 0.056916 0.590309
vt 0.051027 0.596972
vt 0.056568 0.588878
vt 0.049927 0.587634
vt 0.056676 0.587539
vt 0.050354 0.583323
vt 0.057218 0.586503
vt 0.052202 0.580099
vt 0.055239 0.585301
vt 0.05957 0.580442
vt 0.055676 0.579
vt 0.057005 0.585974
vt 0.051724 0.579379
vt 0.05343 0.585443
vt 0.048351 0.581462
vt 0.051863 0.586367
vt 0.046055 0.584861
vt 0.050771 0.587915
vt 0.045134 0.58902
vt 0.050312 0.589845
vt 0.045671 0.593317
vt 0.050542 0.591864
vt 0.047552 0.59715
vt 0.051419 0.593676
vt 0.050501 0.600002
vt 0.052811 0.59502
vt 0.054117 0.601479
vt 0.054518 0.5957
vt 0.057906 0.60135
vt 0.056292 0.595612
vt 0.063366 0.601279
vt 0.05787 0.594757
vt 0.063822 0.600796
vt 0.059011 0.593251
vt 0.065053 0.592194
vt 0.059529 0.591314
vt 0.06468 0.587647
vt 0.059335 0.589242
vt 0.062751 0.583495
vt 0.058447 0.587361
vt 0.122541 0.549567
vt 0.116545 0.549764
vt 0.118088 0.549764
vt 0.12045 0.549567
vt 0.11772 0.549764
vt 0.122043 0.549567
vt 0.115496 0.549764
vt 0.11903 0.549567
vt 0.111756 0.549764
vt 0.113963 0.549567
vt 0.107068 0.549764
vt 0.107612 0.549567
vt 0.102145 0.549764
vt 0.100945 0.549567
vt 0.097739 0.549764
vt 0.094975 0.549567
vt 0.094519 0.549764
vt 0.090613 0.549567
vt 0.092975 0.549764
vt 0.088522 0.549567
vt 0.093343 0.549764
vt 0.089021 0.549567
vt 0.095567 0.549764
vt 0.092033 0.549567
vt 0.099307 0.549764
vt 0.0971 0.549567
vt 0.103996 0.549764
vt 0.103451 0.549567
vt 0.108918 0.549764
vt 0.110119 0.549567
vt 0.113324 0.549764
vt 0.116088 0.549567
vt 0.116545 0.558025
vt 0.113324 0.558025
vt 0.108918 0.558025
vt 0.103996 0.558025
vt 0.099307 0.558025
vt 0.095567 0.558025
vt 0.093343 0.558025
vt 0.092975 0.558025
vt 0.094519 0.558025
vt 0.097739 0.558025
vt 0.102145 0.558025
vt 0.107068 0.558025
vt 0.111756 0.558025
vt 0.115496 0.558025
vt 0.11772 0.558025
vt 0.118088 0.558025
vt 0.118658 0.525572
vt 0.12045 0.525572
vt 0.122541 0.525572
vt 0.117044 0.525572
vt 0.122043 0.525572
vt 0.118273 0.525572
vt 0.11903 0.525572
vt 0.115948 0.525572
vt 0.113963 0.525572
vt 0.112038 0.525572
vt 0.107612 0.525572
vt 0.107137 0.525572
vt 0.100945 0.525572
vt 0.101992 0.525572
vt 0.094975 0.525572
vt 0.097385 0.525572
vt 0.090613 0.525572
vt 0.094019 0.525572
vt 0.088522 0.525572
vt 0.092406 0.525572
vt 0.089021 0.525572
vt 0.09279 0.525572
vt 0.092033 0.525572
vt 0.095115 0.525572
vt 0.0971 0.525572
vt 0.099025 0.525572
vt 0.103451 0.525572
vt 0.103926 0.525572
vt 0.110119 0.525572
vt 0.109071 0.525572
vt 0.116088 0.525572
vt 0.113678 0.525572
vt 0.11508 0.514324
vt 0.117044 0.514324
vt 0.118658 0.514324
vt 0.113907 0.514324
vt 0.118273 0.514324
vt 0.114801 0.514324
vt 0.115948 0.514324
vt 0.11311 0.514324
vt 0.112038 0.514324
vt 0.110265 0.514324
vt 0.107137 0.514324
vt 0.1067 0.514324
vt 0.101992 0.514324
vt 0.102957 0.514324
vt 0.097385 0.514324
vt 0.099605 0.514324
vt 0.094019 0.514324
vt 0.097157 0.514324
vt 0.092406 0.514324
vt 0.095983 0.514324
vt 0.09279 0.514324
vt 0.096263 0.514324
vt 0.095115 0.514324
vt 0.097954 0.514324
vt 0.099025 0.514324
vt 0.100798 0.514324
vt 0.103926 0.514324
vt 0.104364 0.514324
vt 0.109071 0.514324
vt 0.108107 0.514324
vt 0.113678 0.514324
vt 0.111458 0.514324
vt 0.111984 0.496265
vt 0.113907 0.496265
vt 0.11508 0.496265
vt 0.111191 0.496265
vt 0.114801 0.496265
vt 0.111795 0.496265
vt 0.11311 0.496265
vt 0.110652 0.496265
vt 0.110265 0.496265
vt 0.10873 0.496265
vt 0.1067 0.496265
vt 0.106321 0.496265
vt 0.102957 0.496265
vt 0.103792 0.496265
vt 0.099605 0.496265
vt 0.101527 0.496265
vt 0.097157 0.496265
vt 0.099872 0.496265
vt 0.095983 0.496265
vt 0.099079 0.496265
vt 0.096263 0.496265
vt 0.099268 0.496265
vt 0.097954 0.496265
vt 0.100411 0.496265
vt 0.100798 0.496265
vt 0.102333 0.496265
vt 0.104364 0.496265
vt 0.104742 0.496265
vt 0.108107 0.496265
vt 0.107272 0.496265
vt 0.111458 0.496265
vt 0.109536 0.496265
vt 0.025264 0.807805
vt 0.02092 0.829643
vt 0.025264 0.836144
vt 0.02092 0.814306
vt 0.019395 0.821975
vt 0.031765 0.803461
vt 0.039434 0.801936
vt 0.031765 0.840488
vt 0.047102 0.803461
vt 0.039434 0.842013
vt 0.053603 0.807805
vt 0.047102 0.840488
vt 0.057947 0.814306
vt 0.053603 0.836144
vt 0.059472 0.821975
vt 0.057947 0.829643
vt 0.055825 0.535855
vt 0.054475 0.535855
vt 0.052632 0.535855
vt 0.058232 0.535855
vt 0.059552 0.535855
vt 0.056946 0.535855
vt 0.058232 0.535855
vt 0.055825 0.535855
vt 0.054475 0.535855
vt 0.052632 0.535855
vt 0.048852 0.535855
vt 0.047855 0.535855
vt 0.042219 0.535855
vt 0.042219 0.535855
vt 0.035587 0.535855
vt 0.036584 0.535855
vt 0.029964 0.535855
vt 0.031807 0.535855
vt 0.026207 0.535855
vt 0.028614 0.535855
vt 0.024887 0.535855
vt 0.027493 0.535855
vt 0.026207 0.535855
vt 0.028614 0.535855
vt 0.029964 0.535855
vt 0.031807 0.535855
vt 0.035587 0.535855
vt 0.036584 0.535855
vt 0.042219 0.535855
vt 0.042219 0.535855
vt 0.048852 0.535855
vt 0.047855 0.535855
vt 0.047855 0.523718
vt 0.052632 0.523718
vt 0.046571 0.523718
vt 0.042219 0.523718
vt 0.042219 0.523718
vt 0.037868 0.523718
vt 0.036584 0.523718
vt 0.034179 0.523718
vt 0.031807 0.523718
vt 0.031714 0.523718
vt 0.028614 0.523718
vt 0.030849 0.523718
vt 0.027493 0.523718
vt 0.031714 0.523718
vt 0.028614 0.523718
vt 0.034179 0.523718
vt 0.031807 0.523718
vt 0.037868 0.523718
vt 0.036584 0.523718
vt 0.042219 0.523718
vt 0.042219 0.523718
vt 0.046571 0.523718
vt 0.047855 0.523718
vt 0.05026 0.523718
vt 0.052632 0.523718
vt 0.052725 0.523718
vt 0.055825 0.523718
vt 0.05359 0.523718
vt 0.056946 0.523718
vt 0.052725 0.523718
vt 0.055825 0.523718
vt 0.05026 0.523718
vt 0.046571 0.514775
vt 0.05026 0.514775
vt 0.045199 0.514775
vt 0.042219 0.514775
vt 0.042219 0.514775
vt 0.03924 0.514775
vt 0.037868 0.514775
vt 0.036714 0.514775
vt 0.034179 0.514775
vt 0.035027 0.514775
vt 0.031714 0.514775
vt 0.034434 0.514775
vt 0.030849 0.514775
vt 0.035027 0.514775
vt 0.031714 0.514775
vt 0.036714 0.514775
vt 0.034179 0.514775
vt 0.03924 0.514775
vt 0.037868 0.514775
vt 0.042219 0.514775
vt 0.042219 0.514775
vt 0.045199 0.514775
vt 0.046571 0.514775
vt 0.047725 0.514775
vt 0.05026 0.514775
vt 0.049412 0.514775
vt 0.052725 0.514775
vt 0.050005 0.514775
vt 0.05359 0.514775
vt 0.049412 0.514775
vt 0.052725 0.514775
vt 0.047725 0.514775
vt 0.045199 0.491932
vt 0.047725 0.491932
vt 0.042219 0.491932
vt 0.03924 0.491932
vt 0.036714 0.491932
vt 0.035027 0.491932
vt 0.034434 0.491932
vt 0.035027 0.491932
vt 0.036714 0.491932
vt 0.03924 0.491932
vt 0.042219 0.491932
vt 0.045199 0.491932
vt 0.047725 0.491932
vt 0.049412 0.491932
vt 0.050005 0.491932
vt 0.049412 0.491932
vt 0.054475 0.571927
vt 0.048852 0.571927
vt 0.042219 0.571927
vt 0.035587 0.571927
vt 0.029964 0.571927
vt 0.026207 0.571927
vt 0.024887 0.571927
vt 0.026207 0.571927
vt 0.029964 0.571927
vt 0.035587 0.571927
vt 0.042219 0.571927
vt 0.048852 0.571927
vt 0.054475 0.571927
vt 0.058232 0.571927
vt 0.059552 0.571927
vt 0.058232 0.571927
vt 0.109087 0.497005
vt 0.110742 0.5072
vt 0.110742 0.497005
vt 0.109087 0.5072
vt 0.106822 0.497005
vt 0.106822 0.5072
vt 0.104293 0.497005
vt 0.104293 0.5072
vt 0.101884 0.497005
vt 0.101884 0.5072
vt 0.099961 0.497005
vt 0.099961 0.5072
vt 0.098819 0.497005
vt 0.098819 0.5072
vt 0.09863 0.497005
vt 0.09863 0.5072
vt 0.099423 0.497005
vt 0.099423 0.5072
vt 0.101078 0.497005
vt 0.101078 0.5072
vt 0.103342 0.497005
vt 0.103342 0.5072
vt 0.105871 0.497005
vt 0.105871 0.5072
vt 0.108281 0.497005
vt 0.108281 0.5072
vt 0.110203 0.497005
vt 0.110203 0.5072
vt 0.111346 0.497005
vt 0.111346 0.5072
vt 0.111535 0.497005
vt 0.111535 0.5072
vt 0.111008 0.5072
vt 0.113457 0.525259
vt 0.113457 0.5072
vt 0.111008 0.525259
vt 0.107657 0.5072
vt 0.107657 0.525259
vt 0.103914 0.5072
vt 0.103914 0.525259
vt 0.100349 0.5072
vt 0.100349 0.525259
vt 0.097504 0.5072
vt 0.097504 0.525259
vt 0.095813 0.5072
vt 0.095813 0.525259
vt 0.095533 0.5072
vt 0.095533 0.525259
vt 0.096707 0.5072
vt 0.096707 0.525259
vt 0.099156 0.5072
vt 0.099156 0.525259
vt 0.102507 0.5072
vt 0.102507 0.525259
vt 0.10625 0.5072
vt 0.10625 0.525259
vt 0.109816 0.5072
vt 0.109816 0.525259
vt 0.11266 0.5072
vt 0.11266 0.525259
vt 0.114351 0.5072
vt 0.114351 0.525259
vt 0.114631 0.5072
vt 0.114631 0.525259
vt 0.113228 0.525259
vt 0.116595 0.536507
vt 0.116595 0.525259
vt 0.113228 0.536507
vt 0.108622 0.525259
vt 0.108622 0.536507
vt 0.103477 0.525259
vt 0.103477 0.536507
vt 0.098576 0.525259
vt 0.098576 0.536507
vt 0.094665 0.525259
vt 0.094665 0.536507
vt 0.092341 0.525259
vt 0.092341 0.536507
vt 0.091956 0.525259
vt 0.091956 0.536507
vt 0.09357 0.525259
vt 0.09357 0.536507
vt 0.096936 0.525259
vt 0.096936 0.536507
vt 0.101542 0.525259
vt 0.101542 0.536507
vt 0.106688 0.525259
vt 0.106688 0.536507
vt 0.111589 0.525259
vt 0.111589 0.536507
vt 0.115499 0.525259
vt 0.115499 0.536507
vt 0.117824 0.525259
vt 0.117824 0.536507
vt 0.118208 0.525259
vt 0.118208 0.536507
vt 0.053171 0.528282
vt 0.057533 0.555938
vt 0.057533 0.528282
vt 0.053171 0.555938
vt 0.047202 0.528282
vt 0.047202 0.555938
vt 0.040534 0.528282
vt 0.040534 0.555938
vt 0.034183 0.528282
vt 0.034183 0.555938
vt 0.029116 0.528282
vt 0.029116 0.555938
vt 0.026104 0.528282
vt 0.026104 0.555938
vt 0.025605 0.528282
vt 0.025605 0.555938
vt 0.027696 0.528282
vt 0.027696 0.555938
vt 0.032058 0.528282
vt 0.032058 0.555938
vt 0.038028 0.528282
vt 0.038028 0.555938
vt 0.044695 0.528282
vt 0.044695 0.555938
vt 0.051046 0.528282
vt 0.051046 0.555938
vt 0.056114 0.528282
vt 0.056114 0.555938
vt 0.059126 0.528282
vt 0.059126 0.555938
vt 0.059624 0.528282
vt 0.059624 0.555938
vt 0.066989 0.5816
vt 0.064109 0.596503
vt 0.066989 0.596503
vt 0.064109 0.5816
vt 0.066303 0.596503
vt 0.066303 0.5816
vt 0.062153 0.596503
vt 0.062153 0.5816
vt 0.055172 0.596503
vt 0.055172 0.5816
vt 0.046422 0.596503
vt 0.046422 0.5816
vt 0.037237 0.596503
vt 0.037237 0.5816
vt 0.029013 0.596503
vt 0.029013 0.5816
vt 0.023003 0.596503
vt 0.023003 0.5816
vt 0.020122 0.596503
vt 0.020122 0.5816
vt 0.020809 0.596503
vt 0.020809 0.5816
vt 0.02153 0.596503
vt 0.02153 0.5816
vt 0.022609 0.596503
vt 0.022609 0.5816
vt 0.040689 0.596503
vt 0.040689 0.5816
vt 0.049875 0.596503
vt 0.049875 0.5816
vt 0.058099 0.596503
vt 0.058099 0.5816
vt 0.05465 0.751526
vt 0.060042 0.75897
vt 0.060042 0.75897
vt 0.061732 0.762761
vt 0.055831 0.754614
vt 0.052226 0.753281
vt 0.061779 0.760352
vt 0.061779 0.760352
vt 0.064329 0.76088
vt 0.064329 0.76088
vt 0.064329 0.76088
vt 0.061779 0.760352
vt 0.060042 0.75897
vt 0.054713 0.751612
vt 0.061732 0.762761
vt 0.055973 0.754809
vt 0.052289 0.753368
vt 0.054337 0.751093
vt 0.051913 0.752848
vt 0.051913 0.752848
vt 0.054337 0.751093
vt 0.052038 0.753022
vt 0.054462 0.751266
vt 0.052602 0.753801
vt 0.055026 0.752045
vt 0.052602 0.753801
vt 0.055026 0.752045
vt 0.054525 0.751352
vt 0.052101 0.753108
vt 0.054337 0.751093
vt 0.051913 0.752848
vt 0.051913 0.752848
vt 0.054337 0.751093
vt 0.072352 0.781068
vt 0.072352 0.781068
vt 0.076681 0.777933
vt 0.074084 0.779814
vt 0.074084 0.779814
vt 0.076681 0.777933
vt 0.076054 0.777068
vt 0.073457 0.778949
vt 0.072919 0.77274
vt 0.070322 0.774621
vt 0.072041 0.771528
vt 0.069444 0.773409
vt 0.068091 0.766074
vt 0.065494 0.767955
vt 0.06715 0.764776
vt 0.064554 0.766657
vt 0.076681 0.777933
vt 0.076304 0.777414
vt 0.074084 0.779814
vt 0.073708 0.779295
vt 0.074084 0.779814
vt 0.076681 0.777933
vt 0.072352 0.781068
vt 0.072352 0.781068
vt 0.076681 0.777933
vt 0.076054 0.777068
vt 0.071725 0.780203
vt 0.076054 0.777068
vt 0.071725 0.780203
vt 0.045438 0.79758
vt 0.040417 0.801217
vt 0.045438 0.79758
vt 0.040417 0.801217
vt 0.036089 0.804352
vt 0.036089 0.804352
vt 0.044686 0.796542
vt 0.044686 0.796542
vt 0.039665 0.800178
vt 0.039665 0.800178
vt 0.035337 0.803313
vt 0.035337 0.803313
vt 0.032602 0.803182
vt 0.034333 0.801928
vt 0.032602 0.803182
vt 0.034333 0.801928
vt 0.040102 0.809892
vt 0.040102 0.809892
vt 0.04443 0.806757
vt 0.04443 0.806757
vt 0.049451 0.803121
vt 0.049451 0.803121
vt 0.040628 0.814262
vt 0.05083 0.805025
vt 0.05083 0.805025
vt 0.045809 0.808662
vt 0.045809 0.808662
vt 0.041481 0.811796
vt 0.042359 0.813008
vt 0.04138 0.815301
vt 0.043111 0.814047
vt 0.04138 0.815301
vt 0.043111 0.814047
vt 0.041481 0.811796
vt 0.03975 0.813051
vt 0.03975 0.813051
vt 0.041481 0.811796
vt 0.04138 0.815301
vt 0.043111 0.814047
vt 0.04138 0.815301
vt 0.043111 0.814047
vt 0.042359 0.813008
vt 0.040628 0.814262
vt 0.041481 0.811796
vt 0.033456 0.800716
vt 0.031725 0.80197
vt 0.033456 0.800716
vt 0.034333 0.801928
vt 0.032602 0.803182
vt 0.034333 0.801928
vt 0.032602 0.803182
vt 0.033456 0.800716
vt 0.033456 0.800716
vt 0.031724 0.80197
vt 0.031724 0.80197
vt 0.031725 0.80197
vt 0.05185 0.752762
vt 0.050996 0.755228
vt 0.052728 0.753974
vt 0.050118 0.754016
vt 0.053003 0.757998
vt 0.054734 0.756744
vt 0.054734 0.756744
vt 0.053003 0.757998
vt 0.067799 0.778427
vt 0.069531 0.777173
vt 0.067799 0.778427
vt 0.069531 0.777173
vt 0.069806 0.781197
vt 0.071537 0.779943
vt 0.072415 0.781155
vt 0.070684 0.782409
vt 0.070684 0.782409
vt 0.070684 0.782409
vt 0.070684 0.782409
vt 0.072415 0.781155
vt 0.070684 0.782409
vt 0.070684 0.782409
vt 0.071662 0.780116
vt 0.069931 0.78137
vt 0.069782 0.777519
vt 0.06805 0.778773
vt 0.066796 0.777042
vt 0.068528 0.775788
vt 0.055737 0.758129
vt 0.054006 0.759383
vt 0.054483 0.756398
vt 0.052752 0.757652
vt 0.052602 0.753801
vt 0.050871 0.755055
vt 0.050118 0.754016
vt 0.05185 0.752762
vt 0.050118 0.754016
vt 0.050118 0.754016
vt 0.050118 0.754016
vt 0.050118 0.754016
vt 0.04579 0.757151
vt 0.04579 0.757151
vt 0.04579 0.757151
vt 0.04579 0.757151
vt 0.042901 0.763731
vt 0.042901 0.763731
vt 0.059203 0.786237
vt 0.059203 0.786237
vt 0.066355 0.785544
vt 0.066355 0.785544
vt 0.042901 0.763731
vt 0.042901 0.763731
vt 0.059203 0.786237
vt 0.059203 0.786237
vt 0.066355 0.785544
vt 0.066355 0.785544
f 2/2/2 1/1/1 3/3/3
f 4/4/4 1/1/1 2/2/2
f 4/4/4 5/5/5 1/1/1
f 6/6/6 5/5/5 4/4/4
f 3/3/3 7/7/7 2/2/2
f 8/8/8 5/5/5 6/6/6
f 6/6/6 9/9/9 8/8/8
f 10/10/10 9/9/9 6/6/6
f 10/10/10 11/11/11 9/9/9
f 12/12/12 11/11/11 10/10/10
f 11/11/11 12/12/12 13/13/13
f 13/13/13 12/12/12 14/14/14
f 14/14/14 15/15/15 13/13/13
f 16/16/16 15/15/15 14/14/14
f 18/18/18 17/17/17 19/19/19
f 20/20/20 17/17/17 18/18/18
f 17/17/17 21/21/21 19/19/19
f 22/22/22 21/21/21 17/17/17
f 21/21/21 22/22/22 23/23/23
f 23/23/23 22/22/22 24/24/24
f 23/23/23 24/24/24 25/25/25
f 25/25/25 24/24/24 26/26/26
f 25/25/25 26/26/26 27/27/27
f 27/27/27 26/26/26 28/28/28
f 27/27/27 28/28/28 29/29/29
f 29/29/29 28/28/28 30/30/30
f 29/29/29 30/30/30 31/31/31
f 31/31/31 30/30/30 32/32/32
f 31/31/31 32/32/32 33/33/33
f 33/33/33 32/32/32 34/34/34
f 33/33/33 34/34/34 35/35/35
f 35/35/35 34/34/34 36/36/36
f 35/35/35 36/36/36 37/37/37
f 37/37/37 36/36/36 38/38/38
f 37/37/37 38/38/38 39/39/39
f 39/39/39 38/38/38 40/40/40
f 39/39/39 40/40/40 41/41/41
f 41/41/41 40/40/40 42/42/42
f 41/41/41 42/42/42 43/43/43
f 43/43/43 42/42/42 44/44/44
f 43/43/43 44/44/44 45/45/45
f 45/45/45 44/44/44 46/46/46
f 45/45/45 46/46/46 47/47/47
f 47/47/47 46/46/46 48/48/48
f 47/47/47 48/48/48 18/18/18
f 18/18/18 48/48/48 20/20/20
f 50/50/50 49/49/49 51/51/51
f 52/52/52 49/49/49 50/50/50
f 51/51/51 49/49/49 53/53/53
f 53/53/53 49/49/49 54/54/54
f 53/53/53 54/54/54 55/55/55
f 55/55/55 54/54/54 56/56/56
f 55/55/55 56/56/56 57/57/57
f 57/57/57 56/56/56 58/58/58
f 57/57/57 58/58/58 59/59/59
f 59/59/59 58/58/58 60/60/60
f 59/59/59 60/60/60 61/61/61
f 61/61/61 60/60/60 62/62/62
f 61/61/61 62/62/62 63/63/63
f 63/63/63 62/62/62 64/64/64
f 63/63/63 64/64/64 65/65/65
f 65/65/65 64/64/64 66/66/66
f 65/65/65 66/66/66 67/67/67
f 67/67/67 66/66/66 68/68/68
f 67/67/67 68/68/68 69/69/69
f 69/69/69 68/68/68 70/70/70
f 69/69/69 70/70/70 71/71/71
f 71/71/71 70/70/70 72/72/72
f 71/71/71 72/72/72 73/73/73
f 73/73/73 72/72/72 74/74/74
f 73/73/73 74/74/74 75/75/75
f 75/75/75 74/74/74 76/76/76
f 75/75/75 76/76/76 77/77/77
f 77/77/77 76/76/76 78/78/78
f 77/77/77 78/78/78 79/79/79
f 79/79/79 78/78/78 80/80/80
f 79/79/79 80/80/80 50/50/50
f 50/50/50 80/80/80 52/52/52
f 82/82/82 81/81/81 83/83/83
f 84/84/84 81/81/81 82/82/82
f 83/83/83 81/81/81 85/85/85
f 85/85/85 81/81/81 86/86/86
f 85/85/85 86/86/86 87/87/87
f 87/87/87 86/86/86 88/88/88
f 87/87/87 88/88/88 89/89/89
f 89/89/89 88/88/88 90/90/90
f 89/89/89 90/90/90 91/91/91
f 91/91/91 90/90/90 92/92/92
f 91/91/91 92/92/92 93/93/93
f 93/93/93 92/92/92 94/94/94
f 93/93/93 94/94/94 95/95/95
f 95/95/95 94/94/94 96/96/96
f 95/95/95 96/96/96 97/97/97
f 97/97/97 96/96/96 98/98/98
f 97/97/97 98/98/98 99/99/99
f 99/99/99 98/98/98 100/100/100
f 99/99/99 100/100/100 101/101/101
f 101/101/101 100/100/100 102/102/102
f 101/101/101 102/102/102 103/103/103
f 103/103/103 102/102/102 104/104/104
f 103/103/103 104/104/104 105/105/105
f 105/105/105 104/104/104 106/106/106
f 105/105/105 106/106/106 107/107/107
f 107/107/107 106/106/106 108/108/108
f 107/107/107 108/108/108 109/109/109
f 109/109/109 108/108/108 110/110/110
f 109/109/109 110/110/110 111/111/111
f 111/111/111 110/110/110 112/112/112
f 111/111/111 112/112/112 82/82/82
f 82/82/82 112/112/112 84/84/84
f 113/113/113 111/111/111 82/82/82
f 114/114/114 111/111/111 113/113/113
f 114/114/114 109/109/109 111/111/111
f 115/115/115 109/109/109 114/114/114
f 115/115/115 107/107/107 109/109/109
f 116/116/116 107/107/107 115/115/115
f 116/116/116 105/105/105 107/107/107
f 117/117/117 105/105/105 116/116/116
f 117/117/117 103/103/103 105/105/105
f 118/118/118 103/103/103 117/117/117
f 118/118/118 101/101/101 103/103/103
f 119/119/119 101/101/101 118/118/118
f 119/119/119 99/99/99 101/101/101
f 120/120/120 99/99/99 119/119/119
f 120/120/120 97/97/97 99/99/99
f 121/121/121 97/97/97 120/120/120
f 121/121/121 95/95/95 97/97/97
f 122/122/122 95/95/95 121/121/121
f 122/122/122 93/93/93 95/95/95
f 123/123/123 93/93/93 122/122/122
f 123/123/123 91/91/91 93/93/93
f 124/124/124 91/91/91 123/123/123
f 124/124/124 89/89/89 91/91/91
f 125/125/125 89/89/89 124/124/124
f 125/125/125 87/87/87 89/89/89
f 126/126/126 87/87/87 125/125/125
f 126/126/126 85/85/85 87/87/87
f 127/127/127 85/85/85 126/126/126
f 127/127/127 83/83/83 85/85/85
f 128/128/128 83/83/83 127/127/127
f 113/113/113 83/83/83 128/128/128
f 82/82/82 83/83/83 113/113/113
f 130/130/130 129/129/129 131/131/131
f 132/132/132 129/129/129 130/130/130
f 131/131/131 129/129/129 133/133/133
f 133/133/133 129/129/129 134/134/134
f 133/133/133 134/134/134 135/135/135
f 135/135/135 134/134/134 136/136/136
f 135/135/135 136/136/136 137/137/137
f 137/137/137 136/136/136 138/138/138
f 137/137/137 138/138/138 139/139/139
f 139/139/139 138/138/138 140/140/140
f 139/139/139 140/140/140 141/141/141
f 141/141/141 140/140/140 142/142/142
f 141/141/141 142/142/142 143/143/143
f 143/143/143 142/142/142 144/144/144
f 143/143/143 144/144/144 145/145/145
f 145/145/145 144/144/144 146/146/146
f 145/145/145 146/146/146 147/147/147
f 147/147/147 146/146/146 148/148/148
f 147/147/147 148/148/148 149/149/149
f 149/149/149 148/148/148 150/150/150
f 149/149/149 150/150/150 151/151/151
f 151/151/151 150/150/150 152/152/152
f 151/151/151 152/152/152 153/153/153
f 153/153/153 152/152/152 154/154/154
f 153/153/153 154/154/154 155/155/155
f 155/155/155 154/154/154 156/156/156
f 155/155/155 156/156/156 157/157/157
f 157/157/157 156/156/156 158/158/158
f 157/157/157 158/158/158 159/159/159
f 159/159/159 158/158/158 160/160/160
f 159/159/159 160/160/160 130/130/130
f 130/130/130 160/160/160 132/132/132
f 162/162/162 161/161/161 163/163/163
f 164/164/164 161/161/161 162/162/162
f 163/163/163 161/161/161 165/165/165
f 165/165/165 161/161/161 166/166/166
f 165/165/165 166/166/166 167/167/167
f 167/167/167 166/166/166 168/168/168
f 167/167/167 168/168/168 169/169/169
f 169/169/169 168/168/168 170/170/170
f 169/169/169 170/170/170 171/171/171
f 171/171/171 170/170/170 172/172/172
f 171/171/171 172/172/172 173/173/173
f 173/173/173 172/172/172 174/174/174
f 173/173/173 174/174/174 175/175/175
f 175/175/175 174/174/174 176/176/176
f 175/175/175 176/176/176 177/177/177
f 177/177/177 176/176/176 178/178/178
f 177/177/177 178/178/178 179/179/179
f 179/179/179 178/178/178 180/180/180
f 179/179/179 180/180/180 181/181/181
f 181/181/181 180/180/180 182/182/182
f 181/181/181 182/182/182 183/183/183
f 183/183/183 182/182/182 184/184/184
f 183/183/183 184/184/184 185/185/185
f 185/185/185 184/184/184 186/186/186
f 185/185/185 186/186/186 187/187/187
f 187/187/187 186/186/186 188/188/188
f 187/187/187 188/188/188 189/189/189
f 189/189/189 188/188/188 190/190/190
f 189/189/189 190/190/190 191/191/191
f 191/191/191 190/190/190 192/192/192
f 191/191/191 192/192/192 162/162/162
f 162/162/162 192/192/192 164/164/164
f 194/194/194 193/193/193 195/195/195
f 196/196/196 193/193/193 194/194/194
f 195/195/195 193/193/193 197/197/197
f 197/197/197 193/193/193 198/198/198
f 197/197/197 198/198/198 199/199/199
f 199/199/199 198/198/198 200/200/200
f 199/199/199 200/200/200 201/201/201
f 201/201/201 200/200/200 202/202/202
f 201/201/201 202/202/202 203/203/203
f 203/203/203 202/202/202 204/204/204
f 203/203/203 204/204/204 205/205/205
f 205/205/205 204/204/204 206/206/206
f 205/205/205 206/206/206 207/207/207
f 207/207/207 206/206/206 208/208/208
f 207/207/207 208/208/208 209/209/209
f 209/209/209 208/208/208 210/210/210
f 209/209/209 210/210/210 211/211/211
f 211/211/211 210/210/210 212/212/212
f 211/211/211 212/212/212 213/213/213
f 213/213/213 212/212/212 214/214/214
f 213/213/213 214/214/214 215/215/215
f 215/215/215 214/214/214 216/216/216
f 215/215/215 216/216/216 217/217/217
f 217/217/217 216/216/216 218/218/218
f 217/217/217 218/218/218 219/219/219
f 219/219/219 218/218/218 220/220/220
f 219/219/219 220/220/220 221/221/221
f 221/221/221 220/220/220 222/222/222
f 221/221/221 222/222/222 223/223/223
f 223/223/223 222/222/222 224/224/224
f 223/223/223 224/224/224 194/194/194
f 194/194/194 224/224/224 196/196/196
f 226/226/226 225/225/225 227/227/227
f 228/228/228 225/225/225 226/226/226
f 229/229/229 228/228/228 226/226/226
f 227/227/227 225/225/225 230/230/230
f 230/230/230 231/231/231 227/227/227
f 227/227/227 231/231/231 232/232/232
f 231/231/231 233/233/233 232/232/232
f 232/232/232 233/233/233 234/234/234
f 233/233/233 235/235/235 234/234/234
f 234/234/234 235/235/235 236/236/236
f 237/237/237 236/236/236 235/235/235
f 238/238/238 236/236/236 237/237/237
f 237/237/237 239/239/239 238/238/238
f 238/238/238 239/239/239 240/240/240
f 242/242/242 241/241/241 243/243/243
f 244/244/244 241/241/241 242/242/242
f 245/245/245 241/241/241 244/244/244
f 246/246/246 241/241/241 245/245/245
f 247/247/247 246/246/246 245/245/245
f 248/248/248 246/246/246 247/247/247
f 249/249/249 248/248/248 247/247/247
f 250/250/250 248/248/248 249/249/249
f 251/251/251 250/250/250 249/249/249
f 252/252/252 250/250/250 251/251/251
f 253/253/253 252/252/252 251/251/251
f 254/254/254 252/252/252 253/253/253
f 255/255/255 254/254/254 253/253/253
f 256/256/256 254/254/254 255/255/255
f 257/257/257 256/256/256 255/255/255
f 258/258/258 256/256/256 257/257/257
f 259/259/259 258/258/258 257/257/257
f 260/260/260 258/258/258 259/259/259
f 261/261/261 260/260/260 259/259/259
f 262/262/262 260/260/260 261/261/261
f 263/263/263 262/262/262 261/261/261
f 264/264/264 262/262/262 263/263/263
f 265/265/265 264/264/264 263/263/263
f 266/266/266 264/264/264 265/265/265
f 267/267/267 266/266/266 265/265/265
f 268/268/268 266/266/266 267/267/267
f 269/269/269 268/268/268 267/267/267
f 270/270/270 268/268/268 269/269/269
f 271/271/271 270/270/270 269/269/269
f 272/272/272 270/270/270 271/271/271
f 242/242/242 272/272/272 271/271/271
f 243/243/243 272/272/272 242/242/242
f 243/243/243 273/273/273 272/272/272
f 274/274/274 273/273/273 243/243/243
f 274/274/274 275/275/275 273/273/273
f 275/275/275 276/276/276 273/273/273
f 273/273/273 276/276/276 277/277/277
f 272/272/272 277/277/277 270/270/270
f 273/273/273 277/277/277 272/272/272
f 276/276/276 278/278/278 277/277/277
f 277/277/277 278/278/278 279/279/279
f 270/270/270 279/279/279 268/268/268
f 277/277/277 279/279/279 270/270/270
f 278/278/278 280/280/280 279/279/279
f 279/279/279 280/280/280 281/281/281
f 279/279/279 281/281/281 268/268/268
f 280/280/280 282/282/282 281/281/281
f 281/281/281 282/282/282 283/283/283
f 282/282/282 284/284/284 283/283/283
f 283/283/283 284/284/284 285/285/285
f 284/284/284 286/286/286 285/285/285
f 285/285/285 286/286/286 287/287/287
f 286/286/286 288/288/288 287/287/287
f 287/287/287 288/288/288 289/289/289
f 288/288/288 290/290/290 289/289/289
f 289/289/289 290/290/290 291/291/291
f 290/290/290 292/292/292 291/291/291
f 291/291/291 292/292/292 293/293/293
f 292/292/292 294/294/294 293/293/293
f 293/293/293 294/294/294 295/295/295
f 294/294/294 296/296/296 295/295/295
f 295/295/295 296/296/296 297/297/297
f 296/296/296 298/298/298 297/297/297
f 297/297/297 298/298/298 299/299/299
f 298/298/298 300/300/300 299/299/299
f 299/299/299 300/300/300 301/301/301
f 300/300/300 302/302/302 301/301/301
f 301/301/301 302/302/302 303/303/303
f 303/303/303 302/302/302 274/274/274
f 274/274/274 302/302/302 304/304/304
f 304/304/304 275/275/275 274/274/274
f 304/304/304 305/305/305 275/275/275
f 306/306/306 305/305/305 304/304/304
f 306/306/306 307/307/307 305/305/305
f 307/307/307 308/308/308 305/305/305
f 305/305/305 308/308/308 309/309/309
f 305/305/305 309/309/309 275/275/275
f 308/308/308 310/310/310 309/309/309
f 309/309/309 310/310/310 311/311/311
f 310/310/310 312/312/312 311/311/311
f 311/311/311 312/312/312 313/313/313
f 312/312/312 314/314/314 313/313/313
f 313/313/313 314/314/314 315/315/315
f 314/314/314 316/316/316 315/315/315
f 315/315/315 316/316/316 317/317/317
f 316/316/316 318/318/318 317/317/317
f 317/317/317 318/318/318 319/319/319
f 318/318/318 320/320/320 319/319/319
f 319/319/319 320/320/320 321/321/321
f 320/320/320 322/322/322 321/321/321
f 321/321/321 322/322/322 323/323/323
f 322/322/322 324/324/324 323/323/323
f 323/323/323 324/324/324 325/325/325
f 324/324/324 326/326/326 325/325/325
f 325/325/325 326/326/326 327/327/327
f 326/326/326 328/328/328 327/327/327
f 327/327/327 328/328/328 329/329/329
f 328/328/328 330/330/330 329/329/329
f 329/329/329 330/330/330 331/331/331
f 330/330/330 332/332/332 331/331/331
f 331/331/331 332/332/332 333/333/333
f 332/332/332 334/334/334 333/333/333
f 333/333/333 334/334/334 335/335/335
f 335/335/335 334/334/334 306/306/306
f 306/306/306 334/334/334 336/336/336
f 336/336/336 307/307/307 306/306/306
f 336/336/336 337/337/337 307/307/307
f 338/338/338 337/337/337 336/336/336
f 337/337/337 339/339/339 307/307/307
f 307/307/307 339/339/339 308/308/308
f 339/339/339 340/340/340 308/308/308
f 308/308/308 340/340/340 310/310/310
f 340/340/340 341/341/341 310/310/310
f 310/310/310 341/341/341 312/312/312
f 341/341/341 342/342/342 312/312/312
f 312/312/312 342/342/342 314/314/314
f 342/342/342 343/343/343 314/314/314
f 314/314/314 343/343/343 316/316/316
f 343/343/343 344/344/344 316/316/316
f 316/316/316 344/344/344 318/318/318
f 344/344/344 345/345/345 318/318/318
f 318/318/318 345/345/345 320/320/320
f 345/345/345 346/346/346 320/320/320
f 320/320/320 346/346/346 322/322/322
f 346/346/346 347/347/347 322/322/322
f 322/322/322 347/347/347 324/324/324
f 347/347/347 348/348/348 324/324/324
f 324/324/324 348/348/348 326/326/326
f 348/348/348 349/349/349 326/326/326
f 326/326/326 349/349/349 328/328/328
f 349/349/349 350/350/350 328/328/328
f 328/328/328 350/350/350 330/330/330
f 350/350/350 351/351/351 330/330/330
f 330/330/330 351/351/351 332/332/332
f 351/351/351 352/352/352 332/332/332
f 332/332/332 352/352/352 334/334/334
f 334/334/334 352/352/352 336/336/336
f 336/336/336 352/352/352 338/338/338
f 275/275/275 309/309/309 276/276/276
f 309/309/309 311/311/311 276/276/276
f 276/276/276 311/311/311 278/278/278
f 311/311/311 313/313/313 278/278/278
f 278/278/278 313/313/313 280/280/280
f 313/313/313 315/315/315 280/280/280
f 280/280/280 315/315/315 282/282/282
f 315/315/315 317/317/317 282/282/282
f 282/282/282 317/317/317 284/284/284
f 317/317/317 319/319/319 284/284/284
f 284/284/284 319/319/319 286/286/286
f 319/319/319 321/321/321 286/286/286
f 286/286/286 321/321/321 288/288/288
f 321/321/321 323/323/323 288/288/288
f 288/288/288 323/323/323 290/290/290
f 323/323/323 325/325/325 290/290/290
f 290/290/290 325/325/325 292/292/292
f 325/325/325 327/327/327 292/292/292
f 292/292/292 327/327/327 294/294/294
f 327/327/327 329/329/329 294/294/294
f 294/294/294 329/329/329 296/296/296
f 329/329/329 331/331/331 296/296/296
f 296/296/296 331/331/331 298/298/298
f 331/331/331 333/333/333 298/298/298
f 298/298/298 333/333/333 300/300/300
f 333/333/333 335/335/335 300/300/300
f 300/300/300 335/335/335 302/302/302
f 302/302/302 335/335/335 304/304/304
f 304/304/304 335/335/335 306/306/306
f 268/268/268 281/281/281 266/266/266
f 281/281/281 283/283/283 266/266/266
f 266/266/266 283/283/283 264/264/264
f 283/283/283 285/285/285 264/264/264
f 264/264/264 285/285/285 262/262/262
f 285/285/285 287/287/287 262/262/262
f 262/262/262 287/287/287 260/260/260
f 287/287/287 289/289/289 260/260/260
f 260/260/260 289/289/289 258/258/258
f 289/289/289 291/291/291 258/258/258
f 258/258/258 291/291/291 256/256/256
f 291/291/291 293/293/293 256/256/256
f 256/256/256 293/293/293 254/254/254
f 293/293/293 295/295/295 254/254/254
f 254/254/254 295/295/295 252/252/252
f 295/295/295 297/297/297 252/252/252
f 252/252/252 297/297/297 250/250/250
f 297/297/297 299/299/299 250/250/250
f 250/250/250 299/299/299 248/248/248
f 299/299/299 301/301/301 248/248/248
f 248/248/248 301/301/301 246/246/246
f 301/301/301 303/303/303 246/246/246
f 246/246/246 303/303/303 241/241/241
f 241/241/241 303/303/303 243/243/243
f 243/243/243 303/303/303 274/274/274
f 353/353/353 271/271/271 354/354/354
f 242/242/242 271/271/271 353/353/353
f 271/271/271 269/269/269 354/354/354
f 354/354/354 269/269/269 355/355/355
f 269/269/269 267/267/267 355/355/355
f 355/355/355 267/267/267 356/356/356
f 267/267/267 265/265/265 356/356/356
f 356/356/356 265/265/265 357/357/357
f 265/265/265 263/263/263 357/357/357
f 357/357/357 263/263/263 358/358/358
f 263/263/263 261/261/261 358/358/358
f 358/358/358 261/261/261 359/359/359
f 261/261/261 259/259/259 359/359/359
f 359/359/359 259/259/259 360/360/360
f 259/259/259 257/257/257 360/360/360
f 360/360/360 257/257/257 361/361/361
f 257/257/257 255/255/255 361/361/361
f 361/361/361 255/255/255 362/362/362
f 255/255/255 253/253/253 362/362/362
f 362/362/362 253/253/253 363/363/363
f 253/253/253 251/251/251 363/363/363
f 363/363/363 251/251/251 364/364/364
f 251/251/251 249/249/249 364/364/364
f 364/364/364 249/249/249 365/365/365
f 249/249/249 247/247/247 365/365/365
f 365/365/365 247/247/247 366/366/366
f 247/247/247 245/245/245 366/366/366
f 366/366/366 245/245/245 367/367/367
f 245/245/245 244/244/244 367/367/367
f 367/367/367 244/244/244 368/368/368
f 368/368/368 244/244/244 353/353/353
f 353/353/353 244/244/244 242/242/242
f 370/370/370 369/369/369 371/371/371
f 372/372/372 369/369/369 370/370/370
f 372/372/372 373/373/373 369/369/369
f 374/374/374 373/373/373 372/372/372
f 374/374/374 375/375/375 373/373/373
f 376/376/376 375/375/375 374/374/374
f 376/376/376 377/377/377 375/375/375
f 378/378/378 377/377/377 376/376/376
f 378/378/378 379/379/379 377/377/377
f 380/380/380 379/379/379 378/378/378
f 380/380/380 381/381/381 379/379/379
f 382/382/382 381/381/381 380/380/380
f 382/382/382 383/383/383 381/381/381
f 384/384/384 383/383/383 382/382/382
f 384/384/384 385/385/385 383/383/383
f 386/386/386 385/385/385 384/384/384
f 386/386/386 387/387/387 385/385/385
f 388/388/388 387/387/387 386/386/386
f 388/388/388 389/389/389 387/387/387
f 390/390/390 389/389/389 388/388/388
f 390/390/390 391/391/391 389/389/389
f 392/392/392 391/391/391 390/390/390
f 392/392/392 393/393/393 391/391/391
f 394/394/394 393/393/393 392/392/392
f 394/394/394 395/395/395 393/393/393
f 396/396/396 395/395/395 394/394/394
f 396/396/396 397/397/397 395/395/395
f 398/398/398 397/397/397 396/396/396
f 398/398/398 399/399/399 397/397/397
f 400/400/400 399/399/399 398/398/398
f 370/370/370 399/399/399 400/400/400
f 371/371/371 399/399/399 370/370/370
f 402/402/402 401/401/401 403/403/403
f 404/404/404 401/401/401 402/402/402
f 404/404/404 405/405/405 401/401/401
f 406/406/406 405/405/405 404/404/404
f 406/406/406 407/407/407 405/405/405
f 408/408/408 407/407/407 406/406/406
f 408/408/408 409/409/409 407/407/407
f 410/410/410 409/409/409 408/408/408
f 410/410/410 411/411/411 409/409/409
f 412/412/412 411/411/411 410/410/410
f 412/412/412 413/413/413 411/411/411
f 414/414/414 413/413/413 412/412/412
f 414/414/414 415/415/415 413/413/413
f 416/416/416 415/415/415 414/414/414
f 416/416/416 417/417/417 415/415/415
f 418/418/418 417/417/417 416/416/416
f 418/418/418 419/419/419 417/417/417
f 420/420/420 419/419/419 418/418/418
f 420/420/420 421/421/421 419/419/419
f 422/422/422 421/421/421 420/420/420
f 422/422/422 423/423/423 421/421/421
f 424/424/424 423/423/423 422/422/422
f 424/424/424 425/425/425 423/423/423
f 426/426/426 425/425/425 424/424/424
f 426/426/426 427/427/427 425/425/425
f 428/428/428 427/427/427 426/426/426
f 428/428/428 429/429/429 427/427/427
f 430/430/430 429/429/429 428/428/428
f 430/430/430 431/431/431 429/429/429
f 432/432/432 431/431/431 430/430/430
f 402/402/402 431/431/431 432/432/432
f 403/403/403 431/431/431 402/402/402
f 434/434/434 433/433/433 435/435/435
f 436/436/436 433/433/433 434/434/434
f 436/436/436 437/437/437 433/433/433
f 438/438/438 437/437/437 436/436/436
f 438/438/438 439/439/439 437/437/437
f 440/440/440 439/439/439 438/438/438
f 440/440/440 441/441/441 439/439/439
f 442/442/442 441/441/441 440/440/440
f 442/442/442 443/443/443 441/441/441
f 444/444/444 443/443/443 442/442/442
f 444/444/444 445/445/445 443/443/443
f 446/446/446 445/445/445 444/444/444
f 446/446/446 447/447/447 445/445/445
f 448/448/448 447/447/447 446/446/446
f 448/448/448 449/449/449 447/447/447
f 450/450/450 449/449/449 448/448/448
f 450/450/450 451/451/451 449/449/449
f 452/452/452 451/451/451 450/450/450
f 452/452/452 453/453/453 451/451/451
f 454/454/454 453/453/453 452/452/452
f 454/454/454 455/455/455 453/453/453
f 456/456/456 455/455/455 454/454/454
f 456/456/456 457/457/457 455/455/455
f 458/458/458 457/457/457 456/456/456
f 458/458/458 459/459/459 457/457/457
f 460/460/460 459/459/459 458/458/458
f 460/460/460 461/461/461 459/459/459
f 462/462/462 461/461/461 460/460/460
f 462/462/462 463/463/463 461/461/461
f 464/464/464 463/463/463 462/462/462
f 434/434/434 463/463/463 464/464/464
f 435/435/435 463/463/463 434/434/434
f 466/466/466 465/465/465 467/467/467
f 468/468/468 465/465/465 466/466/466
f 468/468/468 469/469/469 465/465/465
f 470/470/470 469/469/469 468/468/468
f 470/470/470 471/471/471 469/469/469
f 472/472/472 471/471/471 470/470/470
f 472/472/472 473/473/473 471/471/471
f 474/474/474 473/473/473 472/472/472
f 474/474/474 475/475/475 473/473/473
f 476/476/476 475/475/475 474/474/474
f 476/476/476 477/477/477 475/475/475
f 478/478/478 477/477/477 476/476/476
f 478/478/478 479/479/479 477/477/477
f 480/480/480 479/479/479 478/478/478
f 480/480/480 481/481/481 479/479/479
f 482/482/482 481/481/481 480/480/480
f 482/482/482 483/483/483 481/481/481
f 484/484/484 483/483/483 482/482/482
f 484/484/484 485/485/485 483/483/483
f 486/486/486 485/485/485 484/484/484
f 486/486/486 487/487/487 485/485/485
f 488/488/488 487/487/487 486/486/486
f 488/488/488 489/489/489 487/487/487
f 490/490/490 489/489/489 488/488/488
f 490/490/490 491/491/491 489/489/489
f 492/492/492 491/491/491 490/490/490
f 492/492/492 493/493/493 491/491/491
f 494/494/494 493/493/493 492/492/492
f 494/494/494 495/495/495 493/493/493
f 496/496/496 495/495/495 494/494/494
f 466/466/466 495/495/495 496/496/496
f 467/467/467 495/495/495 466/466/466
f 498/498/498 497/497/497 499/499/499
f 500/500/500 497/497/497 498/498/498
f 499/499/499 497/497/497 501/501/501
f 501/501/501 497/497/497 502/502/502
f 501/501/501 502/502/502 503/503/503
f 503/503/503 502/502/502 504/504/504
f 503/503/503 504/504/504 505/505/505
f 505/505/505 504/504/504 506/506/506
f 505/505/505 506/506/506 507/507/507
f 507/507/507 506/506/506 508/508/508
f 507/507/507 508/508/508 509/509/509
f 509/509/509 508/508/508 510/510/510
f 509/509/509 510/510/510 511/511/511
f 511/511/511 510/510/510 512/512/512
f 511/511/511 512/512/512 513/513/513
f 513/513/513 512/512/512 514/514/514
f 513/513/513 514/514/514 515/515/515
f 515/515/515 514/514/514 516/516/516
f 515/515/515 516/516/516 517/517/517
f 517/517/517 516/516/516 518/518/518
f 517/517/517 518/518/518 519/519/519
f 519/519/519 518/518/518 520/520/520
f 519/519/519 520/520/520 521/521/521
f 521/521/521 520/520/520 522/522/522
f 521/521/521 522/522/522 523/523/523
f 523/523/523 522/522/522 524/524/524
f 523/523/523 524/524/524 525/525/525
f 525/525/525 524/524/524 526/526/526
f 525/525/525 526/526/526 527/527/527
f 527/527/527 526/526/526 528/528/528
f 527/527/527 528/528/528 498/498/498
f 498/498/498 528/528/528 500/500/500
f 530/530/530 529/529/529 531/531/531
f 532/532/532 529/529/529 530/530/530
f 533/533/533 529/529/529 532/532/532
f 534/534/534 529/529/529 533/533/533
f 535/535/535 530/530/530 531/531/531
f 536/536/536 530/530/530 535/535/535
f 536/536/536 532/532/532 530/530/530
f 537/537/537 536/536/536 535/535/535
f 538/538/538 536/536/536 537/537/537
f 538/538/538 532/532/532 536/536/536
f 537/537/537 535/535/535 539/539/539
f 539/539/539 535/535/535 540/540/540
f 535/535/535 531/531/531 540/540/540
f 540/540/540 531/531/531 541/541/541
f 531/531/531 542/542/542 541/541/541
f 542/542/542 543/543/543 541/541/541
f 540/540/540 541/541/541 543/543/543
f 539/539/539 540/540/540 543/543/543
f 544/544/544 543/543/543 542/542/542
f 542/542/542 545/545/545 544/544/544
f 546/546/546 545/545/545 542/542/542
f 542/542/542 531/531/531 546/546/546
f 547/547/547 545/545/545 546/546/546
f 547/547/547 546/546/546 548/548/548
f 548/548/548 546/546/546 549/549/549
f 548/548/548 549/549/549 550/550/550
f 550/550/550 549/549/549 551/551/551
f 550/550/550 551/551/551 552/552/552
f 552/552/552 551/551/551 553/553/553
f 552/552/552 553/553/553 554/554/554
f 554/554/554 553/553/553 555/555/555
f 556/556/556 554/554/554 555/555/555
f 557/557/557 554/554/554 556/556/556
f 558/558/558 557/557/557 556/556/556
f 556/556/556 555/555/555 558/558/558
f 559/559/559 557/557/557 558/558/558
f 559/559/559 558/558/558 560/560/560
f 560/560/560 558/558/558 561/561/561
f 560/560/560 561/561/561 534/534/534
f 534/534/534 561/561/561 529/529/529
f 562/562/562 548/548/548 550/550/550
f 562/562/562 550/550/550 552/552/552
f 562/562/562 552/552/552 563/563/563
f 563/563/563 564/564/564 562/562/562
f 562/562/562 564/564/564 565/565/565
f 564/564/564 566/566/566 565/565/565
f 567/567/567 566/566/566 564/564/564
f 568/568/568 566/566/566 567/567/567
f 569/569/569 566/566/566 568/568/568
f 570/570/570 569/569/569 568/568/568
f 570/570/570 568/568/568 567/567/567
f 571/571/571 569/569/569 570/570/570
f 569/569/569 571/571/571 566/566/566
f 572/572/572 571/571/571 570/570/570
f 570/570/570 567/567/567 572/572/572
f 573/573/573 571/571/571 572/572/572
f 566/566/566 571/571/571 573/573/573
f 574/574/574 573/573/573 572/572/572
f 572/572/572 567/567/567 574/574/574
f 574/574/574 567/567/567 564/564/564
f 575/575/575 573/573/573 574/574/574
f 566/566/566 573/573/573 575/575/575
f 576/576/576 575/575/575 574/574/574
f 577/577/577 575/575/575 576/576/576
f 539/539/539 577/577/577 576/576/576
f 539/539/539 576/576/576 574/574/574
f 539/539/539 574/574/574 564/564/564
f 543/543/543 577/577/577 539/539/539
f 566/566/566 575/575/575 543/543/543
f 566/566/566 543/543/543 565/565/565
f 577/577/577 543/543/543 575/575/575
f 539/539/539 564/564/564 537/537/537
f 565/565/565 543/543/543 544/544/544
f 544/544/544 562/562/562 565/565/565
f 545/545/545 562/562/562 544/544/544
f 562/562/562 545/545/545 547/547/547
f 562/562/562 547/547/547 548/548/548
f 537/537/537 578/578/578 579/579/579
f 580/580/580 579/579/579 578/578/578
f 581/581/581 579/579/579 580/580/580
f 580/580/580 578/578/578 582/582/582
f 582/582/582 578/578/578 583/583/583
f 537/537/537 583/583/583 578/578/578
f 584/584/584 582/582/582 583/583/583
f 583/583/583 585/585/585 584/584/584
f 586/586/586 585/585/585 583/583/583
f 537/537/537 586/586/586 583/583/583
f 587/587/587 585/585/585 586/586/586
f 588/588/588 585/585/585 587/587/587
f 589/589/589 588/588/588 587/587/587
f 590/590/590 588/588/588 589/589/589
f 590/590/590 589/589/589 563/563/563
f 563/563/563 589/589/589 564/564/564
f 584/584/584 534/534/534 582/582/582
f 582/582/582 534/534/534 533/533/533
f 537/537/537 564/564/564 589/589/589
f 537/537/537 589/589/589 587/587/587
f 537/537/537 587/587/587 586/586/586
f 563/563/563 552/552/552 590/590/590
f 590/590/590 552/552/552 554/554/554
f 590/590/590 554/554/554 588/588/588
f 588/588/588 554/554/554 557/557/557
f 588/588/588 557/557/557 585/585/585
f 585/585/585 557/557/557 559/559/559
f 585/585/585 559/559/559 560/560/560
f 585/585/585 560/560/560 584/584/584
f 584/584/584 560/560/560 534/534/534
f 537/537/537 579/579/579 538/538/538
f 581/581/581 538/538/538 579/579/579
f 532/532/532 538/538/538 581/581/581
f 582/582/582 533/533/533 532/532/532
f 582/582/582 532/532/532 580/580/580
f 580/580/580 532/532/532 581/581/581
f 592/592/592 591/591/591 593/593/593
f 594/594/594 591/591/591 592/592/592
f 592/592/592 595/595/595 594/594/594
f 594/594/594 595/595/595 596/596/596
f 593/593/593 591/591/591 597/597/597
f 597/597/597 591/591/591 598/598/598
f 597/597/597 598/598/598 599/599/599
f 593/593/593 599/599/599 592/592/592
f 597/597/597 599/599/599 593/593/593
f 599/599/599 598/598/598 600/600/600
f 600/600/600 591/591/591 594/594/594
f 598/598/598 591/591/591 600/600/600
f 599/599/599 600/600/600 601/601/601
f 592/592/592 601/601/601 595/595/595
f 599/599/599 601/601/601 592/592/592
f 601/601/601 600/600/600 602/602/602
f 602/602/602 594/594/594 596/596/596
f 600/600/600 594/594/594 602/602/602
f 596/596/596 603/603/603 602/602/602
f 602/602/602 603/603/603 604/604/604
f 605/605/605 595/595/595 601/601/601
f 606/606/606 605/605/605 601/601/601
f 595/595/595 607/607/607 596/596/596
f 608/608/608 607/607/607 595/595/595
f 605/605/605 608/608/608 595/595/595
f 608/608/608 609/609/609 607/607/607
f 610/610/610 609/609/609 608/608/608
f 610/610/610 611/611/611 609/609/609
f 612/612/612 611/611/611 610/610/610
f 613/613/613 608/608/608 605/605/605
f 612/612/612 614/614/614 611/611/611
f 612/612/612 610/610/610 614/614/614
f 611/611/611 614/614/614 615/615/615
f 611/611/611 615/615/615 609/609/609
f 614/614/614 616/616/616 615/615/615
f 610/610/610 608/608/608 616/616/616
f 614/614/614 610/610/610 616/616/616
f 615/615/615 616/616/616 617/617/617
f 609/609/609 617/617/617 607/607/607
f 609/609/609 615/615/615 617/617/617
f 613/613/613 618/618/618 608/608/608
f 616/616/616 608/608/608 618/618/618
f 619/619/619 618/618/618 613/613/613
f 613/613/613 620/620/620 619/619/619
f 619/619/619 620/620/620 621/621/621
f 618/618/618 619/619/619 621/621/621
f 620/620/620 622/622/622 621/621/621
f 621/621/621 622/622/622 623/623/623
f 618/618/618 621/621/621 623/623/623
f 622/622/622 624/624/624 623/623/623
f 616/616/616 618/618/618 624/624/624
f 618/618/618 623/623/623 624/624/624
f 625/625/625 624/624/624 622/622/622
f 625/625/625 626/626/626 624/624/624
f 624/624/624 626/626/626 627/627/627
f 616/616/616 624/624/624 627/627/627
f 626/626/626 628/628/628 627/627/627
f 627/627/627 628/628/628 629/629/629
f 628/628/628 630/630/630 629/629/629
f 629/629/629 630/630/630 631/631/631
f 627/627/627 629/629/629 631/631/631
f 630/630/630 632/632/632 631/631/631
f 627/627/627 631/631/631 632/632/632
f 633/633/633 632/632/632 630/630/630
f 632/632/632 633/633/633 634/634/634
f 627/627/627 632/632/632 634/634/634
f 634/634/634 633/633/633 607/607/607
f 607/607/607 633/633/633 596/596/596
f 596/596/596 633/633/633 603/603/603
f 607/607/607 617/617/617 634/634/634
f 616/616/616 627/627/627 634/634/634
f 616/616/616 634/634/634 617/617/617
f 635/635/635 603/603/603 636/636/636
f 635/635/635 636/636/636 637/637/637
f 638/638/638 635/635/635 637/637/637
f 604/604/604 635/635/635 638/638/638
f 604/604/604 603/603/603 635/635/635
f 637/637/637 639/639/639 638/638/638
f 639/639/639 640/640/640 638/638/638
f 641/641/641 640/640/640 639/639/639
f 641/641/641 642/642/642 640/640/640
f 640/640/640 642/642/642 606/606/606
f 606/606/606 642/642/642 643/643/643
f 643/643/643 605/605/605 606/606/606
f 644/644/644 605/605/605 643/643/643
f 645/645/645 643/643/643 642/642/642
f 644/644/644 643/643/643 645/645/645
f 645/645/645 642/642/642 641/641/641
f 646/646/646 639/639/639 637/637/637
f 637/637/637 636/636/636 646/646/646
f 606/606/606 601/601/601 640/640/640
f 640/640/640 601/601/601 638/638/638
f 638/638/638 601/601/601 602/602/602
f 638/638/638 602/602/602 604/604/604
f 648/648/648 647/647/647 649/649/649
f 650/650/650 647/647/647 648/648/648
f 648/648/648 649/649/649 651/651/651
f 651/651/651 649/649/649 652/652/652
f 652/652/652 653/653/653 651/651/651
f 653/653/653 649/649/649 647/647/647
f 652/652/652 649/649/649 653/653/653
f 651/651/651 653/653/653 654/654/654
f 654/654/654 648/648/648 651/651/651
f 650/650/650 648/648/648 654/654/654
f 653/653/653 655/655/655 654/654/654
f 656/656/656 655/655/655 653/653/653
f 656/656/656 657/657/657 655/655/655
f 658/658/658 657/657/657 656/656/656
f 658/658/658 659/659/659 657/657/657
f 660/660/660 659/659/659 658/658/658
f 658/658/658 656/656/656 660/660/660
f 660/660/660 661/661/661 659/659/659
f 660/660/660 656/656/656 661/661/661
f 659/659/659 661/661/661 662/662/662
f 662/662/662 657/657/657 659/659/659
f 655/655/655 657/657/657 662/662/662
f 662/662/662 661/661/661 663/663/663
f 661/661/661 664/664/664 663/663/663
f 661/661/661 665/665/665 664/664/664
f 666/666/666 665/665/665 661/661/661
f 661/661/661 656/656/656 666/666/666
f 666/666/666 667/667/667 665/665/665
f 668/668/668 667/667/667 666/666/666
f 666/666/666 669/669/669 668/668/668
f 668/668/668 669/669/669 670/670/670
f 669/669/669 671/671/671 670/670/670
f 669/669/669 666/666/666 671/671/671
f 670/670/670 671/671/671 672/672/672
f 668/668/668 672/672/672 667/667/667
f 670/670/670 672/672/672 668/668/668
f 671/671/671 673/673/673 672/672/672
f 667/667/667 672/672/672 673/673/673
f 674/674/674 673/673/673 671/671/671
f 671/671/671 666/666/666 674/674/674
f 674/674/674 675/675/675 673/673/673
f 673/673/673 675/675/675 676/676/676
f 675/675/675 677/677/677 676/676/676
f 676/676/676 677/677/677 678/678/678
f 677/677/677 679/679/679 678/678/678
f 678/678/678 679/679/679 680/680/680
f 679/679/679 681/681/681 680/680/680
f 678/678/678 681/681/681 676/676/676
f 678/678/678 680/680/680 681/681/681
f 682/682/682 681/681/681 679/679/679
f 682/682/682 677/677/677 675/675/675
f 679/679/679 677/677/677 682/682/682
f 681/681/681 682/682/682 683/683/683
f 676/676/676 681/681/681 683/683/683
f 683/683/683 682/682/682 684/684/684
f 684/684/684 682/682/682 685/685/685
f 685/685/685 682/682/682 647/647/647
f 664/664/664 684/684/684 685/685/685
f 665/665/665 684/684/684 664/664/664
f 685/685/685 647/647/647 686/686/686
f 647/647/647 650/650/650 686/686/686
f 684/684/684 687/687/687 683/683/683
f 683/683/683 687/687/687 676/676/676
f 688/688/688 687/687/687 684/684/684
f 665/665/665 688/688/688 684/684/684
f 686/686/686 689/689/689 685/685/685
f 689/689/689 664/664/664 685/685/685
f 690/690/690 689/689/689 686/686/686
f 688/688/688 691/691/691 687/687/687
f 692/692/692 691/691/691 688/688/688
f 692/692/692 693/693/693 691/691/691
f 694/694/694 693/693/693 692/692/692
f 694/694/694 695/695/695 693/693/693
f 695/695/695 692/692/692 688/688/688
f 694/694/694 692/692/692 695/695/695
f 695/695/695 688/688/688 665/665/665
f 695/695/695 665/665/665 696/696/696
f 693/693/693 695/695/695 696/696/696
f 691/691/691 696/696/696 687/687/687
f 693/693/693 696/696/696 691/691/691
f 696/696/696 665/665/665 667/667/667
f 690/690/690 697/697/697 689/689/689
f 698/698/698 697/697/697 690/690/690
f 699/699/699 697/697/697 698/698/698
f 700/700/700 697/697/697 699/699/699
f 699/699/699 701/701/701 700/700/700
f 701/701/701 698/698/698 690/690/690
f 699/699/699 698/698/698 701/701/701
f 700/700/700 701/701/701 702/702/702
f 697/697/697 702/702/702 689/689/689
f 700/700/700 702/702/702 697/697/697
f 701/701/701 663/663/663 702/702/702
f 701/701/701 690/690/690 663/663/663
f 702/702/702 663/663/663 664/664/664
f 702/702/702 664/664/664 689/689/689
f 673/673/673 696/696/696 667/667/667
f 673/673/673 687/687/687 696/696/696
f 676/676/676 687/687/687 673/673/673
f 663/663/663 690/690/690 686/686/686
f 663/663/663 686/686/686 662/662/662
f 662/662/662 686/686/686 655/655/655
f 655/655/655 686/686/686 654/654/654
f 654/654/654 686/686/686 650/650/650
f 666/666/666 656/656/656 674/674/674
f 653/653/653 674/674/674 656/656/656
f 675/675/675 674/674/674 653/653/653
f 675/675/675 653/653/653 682/682/682
f 682/682/682 653/653/653 647/647/647
f 546/546/546 531/531/531 549/549/549
f 549/549/549 531/531/531 551/551/551
f 551/551/551 531/531/531 553/553/553
f 553/553/553 531/531/531 555/555/555
f 555/555/555 531/531/531 558/558/558
f 558/558/558 531/531/531 561/561/561
f 561/561/561 531/531/531 529/529/529
