v 1.323978 -0.3424712 0.3106677
v 1.219084 -0.2790731 0.2981297
v 1.347672 -0.3086492 0.3027488
v 1.193388 -0.3398912 0.2692079
v 1.203498 -0.2466347 0.2775863
v 1.228354 -0.2162961 0.2889905
v 1.336254 -0.3177516 0.3010616
v 1.247488 -0.1826397 0.2775861
v 1.282036 -0.1638844 0.2775861
v 1.319548 -0.1660971 0.2888163
v 1.22428 -0.2058469 0.1886674
v 1.257937 -0.1867134 0.177263
v 1.332688 -0.2936362 0.1566071
v 1.345053 -0.3139506 0.16514
v 1.288273 -0.1618578 0.1886674
v 1.32071 -0.1565625 0.1889052
v 1.205525 -0.2403967 0.1886673
v 1.193636 -0.2770709 0.1969628
v 1.226929 -0.3398912 0.1635047
v 1.323978 -0.3424712 0.1555867
v 1.344772 -0.3356107 0.2875867
v 1.319548 -0.1660971 0.2888163
v 1.339574 -0.165551 0.2870562
v 1.336254 -0.3177516 0.3010616
v 1.353416 -0.3354275 0.2910289
v 1.355986 -0.165729 0.2915673
v 1.36628 -0.33539 0.2927149
v 1.367981 -0.1657665 0.2928703
v 1.420071 -0.3353615 0.2934141
v 1.420253 -0.1657948 0.2934801
v 1.37703 -0.1657526 0.183022
v 1.420047 -0.1657948 0.1823365
v 1.374941 -0.3354038 0.1828654
v 1.376142 -0.3354402 0.1829419
v 1.378944 -0.1657164 0.1835423
v 1.360223 -0.3355805 0.1785306
v 1.355407 -0.165576 0.1779307
v 1.345053 -0.3139506 0.16514
v 1.32071 -0.1565625 0.1889052
v 1.420241 -0.3353616 0.1822705
v 2.086895 -0.3143212 0.3084784
v 2.191789 -0.2790721 0.2959414
v 2.217485 -0.3117412 0.2670194
v 2.06321 -0.3086573 0.3005605
v 2.207375 -0.2466337 0.2753979
v 2.182519 -0.2162952 0.2868022
v 2.078622 -0.3029021 0.3053777
v 2.163385 -0.1826387 0.2753977
v 2.128835 -0.1638831 0.275398
v 2.094059 -0.1521073 0.2669764
v 2.186592 -0.2058459 0.1864791
v 2.152936 -0.1867124 0.1750747
v 2.078188 -0.2936385 0.1544189
v 2.063314 -0.3291011 0.1736558
v 2.122597 -0.1618564 0.186479
v 2.085316 -0.1772118 0.1660241
v 2.205348 -0.2403957 0.186479
v 2.217237 -0.2770699 0.1947745
v 2.183944 -0.3117412 0.1613164
v 2.086895 -0.3143212 0.1533984
v 2.041577 -0.165809 0.2920065
v 2.078622 -0.3029021 0.3053777
v 2.039943 -0.3353899 0.2920772
v 2.094059 -0.1521073 0.2669764
v 1.99221 -0.1852694 0.3071335
v 1.990227 -0.3494182 0.2736449
v 1.982766 -0.3354122 0.2938702
v 1.981177 -0.1658012 0.2940356
v 1.487369 -0.3353842 0.2939157
v 1.486642 -0.1657991 0.2939916
v 1.473921 -0.3158749 0.3074476
v 1.474613 -0.1517433 0.2739759
v 1.420253 -0.1657948 0.2934801
v 1.420071 -0.3353615 0.2934141
v 1.489553 -0.3353572 0.1828126
v 1.977868 -0.3353831 0.1828923
v 1.488826 -0.1657722 0.1828896
v 1.476683 -0.1852815 0.1683027
v 1.475993 -0.3494131 0.2017744
v 1.420241 -0.3353616 0.1822705
v 1.420047 -0.1657948 0.1823365
v 1.976152 -0.1657763 0.1830646
v 1.984528 -0.315887 0.1681283
v 1.986388 -0.1517364 0.2016275
v 2.034351 -0.16577 0.1811326
v 2.032609 -0.3353452 0.1812104
v 2.085316 -0.1772118 0.1660241
v 2.063314 -0.3291011 0.1736558
v 2.195365 -0.4193055 0.2531539
v 2.200709 -0.4331571 0.1888195
v 2.18275 -0.3998818 0.206097
v 2.247497 -0.4193055 0.2252606
v 2.201112 -0.4193056 0.2929817
v 2.25995 -0.4193055 0.2871602
v 2.19118 -0.4193054 0.3319739
v 2.247767 -0.4193056 0.3491127
v 2.167082 -0.4193056 0.3642
v 2.212803 -0.4193055 0.4016891
v 2.132486 -0.4193056 0.3847503
v 2.16038 -0.4193055 0.4368818
v 2.092659 -0.4193054 0.3904961
v 2.098481 -0.4193056 0.4493354
v 2.053665 -0.4193055 0.3805641
v 2.036526 -0.4193055 0.4371519
v 2.021441 -0.4193055 0.3564663
v 1.983952 -0.4193055 0.4021885
v 2.00089 -0.4193055 0.3218711
v 1.948758 -0.4193056 0.3497655
v 1.995143 -0.4193056 0.2820446
v 1.936305 -0.4193055 0.2878647
v 2.005076 -0.4193056 0.2430499
v 1.948488 -0.4193056 0.2259122
v 2.029176 -0.4193056 0.210824
v 1.983452 -0.4193055 0.1733358
v 2.06377 -0.4193054 0.1902756
v 2.035875 -0.4193055 0.1381431
v 2.103595 -0.4193056 0.1845289
v 2.097774 -0.4193056 0.1256896
v 2.131619 -0.433157 0.2108785
v 2.168666 -0.3998818 0.1261089
v 2.250035 -0.2433169 0.2317377
v 2.157347 -0.2364357 0.2346231
v 2.225062 -0.2627406 0.1653882
v 2.168875 -0.2340318 0.2597957
v 2.259816 -0.2433169 0.2941152
v 2.185577 -0.2433167 0.2857232
v 2.244982 -0.2433178 0.3554873
v 2.179605 -0.2433171 0.3193255
v 2.207789 -0.2433169 0.4065123
v 2.161229 -0.2433168 0.3480822
v 2.153903 -0.2433179 0.4394192
v 2.133246 -0.243317 0.3676199
v 2.091525 -0.2433178 0.4492011
v 2.099918 -0.2433169 0.3749614
v 2.030152 -0.2433179 0.4343662
v 2.066317 -0.2433178 0.3689902
v 1.979128 -0.2433178 0.3971753
v 2.037558 -0.243318 0.3506146
v 1.94622 -0.2433179 0.3432879
v 2.018173 -0.243152 0.3225593
v 1.936439 -0.2433179 0.2809097
v 2.011043 -0.2430431 0.2906686
v 1.951273 -0.2433178 0.2195376
v 2.01665 -0.243318 0.2557007
v 1.988465 -0.2433179 0.1685127
v 2.035026 -0.2433178 0.2269426
v 2.042351 -0.2433179 0.1356058
v 2.063009 -0.243318 0.2074049
v 2.10473 -0.2433178 0.1258239
v 2.096337 -0.2433169 0.2000635
v 2.155132 -0.2294664 0.1570765
v 2.138878 -0.2627403 0.1942715
v 2.011043 -0.2430431 0.2906686
v 1.99661 -0.2256626 0.3277474
v 2.018173 -0.243152 0.3225593
v 1.988329 -0.2261402 0.2823537
v 2.01665 -0.243318 0.2557007
v 1.999527 -0.2261402 0.2390066
v 2.035026 -0.2433178 0.2269426
v 2.025595 -0.2317832 0.2049652
v 2.015581 -0.2317832 0.3600455
v 2.037558 -0.243318 0.3506146
v 2.049621 -0.2431182 0.3861137
v 2.066317 -0.2433178 0.3689902
v 2.091049 -0.2564892 0.3971705
v 2.099918 -0.2433169 0.3749614
v 2.13355 -0.2698592 0.3915327
v 2.133246 -0.243317 0.3676199
v 2.17066 -0.2811942 0.3700598
v 2.161229 -0.2433168 0.3480822
v 2.196728 -0.2887672 0.3360184
v 2.179605 -0.2433171 0.3193255
v 2.207786 -0.2914272 0.2945963
v 2.185577 -0.2433167 0.2857232
v 2.20049 -0.2887672 0.2474088
v 2.168875 -0.2340318 0.2597957
v 2.157347 -0.2364357 0.2346231
v 2.173795 -0.2811942 0.2078304
v 2.138878 -0.2627403 0.1942715
v 2.142154 -0.2698592 0.1867743
v 2.105206 -0.2564892 0.1778545
v 2.096337 -0.2433169 0.2000635
v 2.062705 -0.2431182 0.1834922
v 2.063009 -0.243318 0.2074049
v 2.094885 -0.7146437 0.3659901
v 2.128629 -0.7032546 0.3700981
v 2.050524 -0.7215248 0.235544
v 2.151326 -0.7146434 0.3452983
v 2.071091 -0.7146437 0.2137683
v 2.157656 -0.7239287 0.3183741
v 2.101372 -0.7146434 0.2090354
v 2.183399 -0.7067142 0.2948308
v 2.131155 -0.7146436 0.2162496
v 2.180714 -0.7032549 0.257013
v 2.169211 -0.6852427 0.2215218
v 2.026865 -0.7146436 0.2544858
v 2.065097 -0.7146434 0.3587743
v 2.019651 -0.7146434 0.2842688
v 2.0335 -0.7032546 0.3472945
v 2.007201 -0.6852429 0.3212768
v 2.146005 -0.6663933 0.3497782
v 2.161613 -0.680245 0.3204277
v 2.180537 -0.64697 0.3302379
v 2.159364 -0.6663935 0.3548446
v 2.118535 -0.6663936 0.3633596
v 2.128936 -0.6663935 0.3731533
v 2.087952 -0.6663938 0.3653951
v 2.093818 -0.6663935 0.3784243
v 2.058923 -0.6663934 0.3555727
v 2.059355 -0.6663937 0.3698545
v 2.035863 -0.6663935 0.3353901
v 2.030796 -0.6663934 0.3487481
v 2.02228 -0.6663936 0.3079154
v 2.012487 -0.6663935 0.3183219
v 2.020245 -0.6663933 0.2773393
v 2.007216 -0.6663936 0.283203
v 2.030067 -0.6663936 0.2483091
v 2.015787 -0.6663935 0.2487383
v 2.05025 -0.6663934 0.2252479
v 2.03689 -0.6663935 0.2201819
v 2.077724 -0.6663938 0.2116649
v 2.067319 -0.6663935 0.2018719
v 2.108301 -0.6663933 0.2096301
v 2.10244 -0.6663936 0.1966007
v 2.137331 -0.6663936 0.2194519
v 2.136901 -0.6663935 0.2051713
v 2.160393 -0.6663934 0.2396347
v 2.16546 -0.6663935 0.2262762
v 2.173976 -0.6663938 0.2671091
v 2.183769 -0.6663935 0.256703
v 2.156942 -0.6802449 0.2925601
v 2.203049 -0.64697 0.2965174
v 2.191615 -0.5747197 0.3359837
v 2.169376 -0.6079951 0.2936273
v 2.174414 -0.607995 0.327062
v 2.154042 -0.5941435 0.359325
v 2.168651 -0.5941435 0.3658746
v 2.122305 -0.5941435 0.3752561
v 2.133295 -0.5941436 0.3868974
v 2.086887 -0.5941435 0.3778297
v 2.092584 -0.5941435 0.3927894
v 2.053179 -0.5941436 0.3666523
v 2.05272 -0.5941435 0.3826552
v 2.026316 -0.5941435 0.3434282
v 2.019766 -0.5941436 0.3580357
v 2.010384 -0.5941435 0.3116908
v 1.998743 -0.5941435 0.3226784
v 2.007811 -0.5941436 0.2762706
v 1.992851 -0.5941434 0.2819695
v 2.018988 -0.5941433 0.2425652
v 2.002985 -0.5941435 0.2421049
v 2.042211 -0.5941437 0.2157014
v 2.027605 -0.5941436 0.2091507
v 2.073951 -0.5941436 0.1997686
v 2.062962 -0.5941435 0.1881273
v 2.10937 -0.5941435 0.1971964
v 2.103671 -0.5941434 0.1822354
v 2.143076 -0.5941436 0.2083729
v 2.143535 -0.5941435 0.1923696
v 2.16994 -0.5941435 0.2315977
v 2.17649 -0.5941435 0.2169895
v 2.185871 -0.5941435 0.2633354
v 2.197513 -0.5941435 0.2523465
v 2.217414 -0.5747197 0.2977473
v 2.163328 -0.5491435 0.3703552
v 2.18831 -0.5629951 0.3342673
v 2.204417 -0.5297199 0.3426172
v 2.178732 -0.5491436 0.3778485
v 2.126663 -0.5491436 0.3890002
v 2.138027 -0.5491434 0.4018174
v 2.085653 -0.5491434 0.3921947
v 2.091247 -0.5491436 0.4083854
v 2.046544 -0.5491435 0.3794534
v 2.045514 -0.5491435 0.3965507
v 2.015285 -0.5491436 0.3527137
v 2.007792 -0.5491436 0.3681162
v 1.99664 -0.5491436 0.3160472
v 1.983823 -0.5491434 0.3274111
v 1.993446 -0.5491434 0.2750393
v 1.977255 -0.5491436 0.2806325
v 2.006187 -0.5491436 0.2359287
v 1.98909 -0.5491435 0.2348995
v 2.032927 -0.5491436 0.20467
v 2.017524 -0.5491435 0.1971776
v 2.069593 -0.5491436 0.1860245
v 2.058228 -0.5491436 0.1732079
v 2.110601 -0.5491434 0.1828301
v 2.105008 -0.5491436 0.1666396
v 2.149712 -0.5491436 0.1955717
v 2.150741 -0.5491435 0.1784741
v 2.18097 -0.5491436 0.2223115
v 2.188463 -0.5491435 0.2069082
v 2.199615 -0.5491435 0.258977
v 2.212433 -0.5491436 0.2476134
v 2.183742 -0.562995 0.2948579
v 2.233009 -0.5297197 0.299087
v 2.174465 -0.3471472 0.3827627
v 2.145973 -0.3239286 0.3113299
v 2.218658 -0.3661739 0.3497931
v 2.132133 -0.3239089 0.3281829
v 2.131521 -0.3472883 0.4050376
v 2.113427 -0.3239382 0.3389491
v 2.084482 -0.3473415 0.4089956
v 2.093801 -0.3239407 0.3411881
v 2.039368 -0.3472338 0.3946033
v 2.074137 -0.3239262 0.335257
v 2.002878 -0.3471473 0.3638493
v 2.057458 -0.3239089 0.3215191
v 1.980603 -0.3472883 0.3209053
v 2.046691 -0.3239382 0.3028115
v 1.976645 -0.3473416 0.2738677
v 2.044451 -0.3239407 0.2831855
v 1.991037 -0.3472338 0.2287533
v 2.050383 -0.3239262 0.2635219
v 2.02179 -0.3471474 0.1922638
v 2.064121 -0.3239089 0.246842
v 2.064735 -0.3472883 0.1699876
v 2.082828 -0.3239382 0.2360757
v 2.111773 -0.3473415 0.1660294
v 2.102455 -0.3239407 0.2338367
v 2.156887 -0.3472338 0.1804216
v 2.122119 -0.3239262 0.239768
v 2.193377 -0.3471473 0.2111747
v 2.138797 -0.3239089 0.2535068
v 2.215653 -0.3472881 0.2541205
v 2.149564 -0.3239382 0.2722135
v 2.201673 -0.3335076 0.2961505
v 2.151823 -0.3239415 0.2918394
v 2.233009 -0.5297197 0.299087
v 2.218658 -0.3661739 0.3497931
v 2.201673 -0.3335076 0.2961505
v 2.18831 -0.5629951 0.3342673
v 2.215653 -0.3472881 0.2541205
v 2.212433 -0.5491436 0.2476134
v 2.193377 -0.3471473 0.2111747
v 2.188463 -0.5491435 0.2069082
v 2.156887 -0.3472338 0.1804216
v 2.150741 -0.5491435 0.1784741
v 2.111773 -0.3473415 0.1660294
v 2.105008 -0.5491436 0.1666396
v 2.064735 -0.3472883 0.1699876
v 2.058228 -0.5491436 0.1732079
v 2.02179 -0.3471474 0.1922638
v 2.017524 -0.5491435 0.1971776
v 1.991037 -0.3472338 0.2287533
v 1.98909 -0.5491435 0.2348995
v 1.976645 -0.3473416 0.2738677
v 1.977255 -0.5491436 0.2806325
v 1.980603 -0.3472883 0.3209053
v 1.983823 -0.5491434 0.3274111
v 2.002878 -0.3471473 0.3638493
v 2.007792 -0.5491436 0.3681162
v 2.039368 -0.3472338 0.3946033
v 2.045514 -0.5491435 0.3965507
v 2.084482 -0.3473415 0.4089956
v 2.091247 -0.5491436 0.4083854
v 2.131521 -0.3472883 0.4050376
v 2.138027 -0.5491434 0.4018174
v 2.174465 -0.3471472 0.3827627
v 2.178732 -0.5491436 0.3778485
v 2.217414 -0.5747197 0.2977473
v 2.204417 -0.5297199 0.3426172
v 2.183742 -0.562995 0.2948579
v 2.174414 -0.607995 0.327062
v 2.199615 -0.5491435 0.258977
v 2.197513 -0.5941435 0.2523465
v 2.18097 -0.5491436 0.2223115
v 2.17649 -0.5941435 0.2169895
v 2.149712 -0.5491436 0.1955717
v 2.143535 -0.5941435 0.1923696
v 2.110601 -0.5491434 0.1828301
v 2.103671 -0.5941434 0.1822354
v 2.069593 -0.5491436 0.1860245
v 2.062962 -0.5941435 0.1881273
v 2.032927 -0.5491436 0.20467
v 2.027605 -0.5941436 0.2091507
v 2.006187 -0.5491436 0.2359287
v 2.002985 -0.5941435 0.2421049
v 1.993446 -0.5491434 0.2750393
v 1.992851 -0.5941434 0.2819695
v 1.99664 -0.5491436 0.3160472
v 1.998743 -0.5941435 0.3226784
v 2.015285 -0.5491436 0.3527137
v 2.019766 -0.5941436 0.3580357
v 2.046544 -0.5491435 0.3794534
v 2.05272 -0.5941435 0.3826552
v 2.085653 -0.5491434 0.3921947
v 2.092584 -0.5941435 0.3927894
v 2.126663 -0.5491436 0.3890002
v 2.133295 -0.5941436 0.3868974
v 2.163328 -0.5491435 0.3703552
v 2.168651 -0.5941435 0.3658746
v 2.183399 -0.7067142 0.2948308
v 2.157656 -0.7239287 0.3183741
v 2.180714 -0.7032549 0.257013
v 2.169211 -0.6852427 0.2215218
v 2.131155 -0.7146436 0.2162496
v 2.101372 -0.7146434 0.2090354
v 2.071091 -0.7146437 0.2137683
v 2.050524 -0.7215248 0.235544
v 2.026865 -0.7146436 0.2544858
v 2.019651 -0.7146434 0.2842688
v 2.007201 -0.6852429 0.3212768
v 2.0335 -0.7032546 0.3472945
v 2.065097 -0.7146434 0.3587743
v 2.094885 -0.7146437 0.3659901
v 2.128629 -0.7032546 0.3700981
v 2.151326 -0.7146434 0.3452983
v 2.168666 -0.3998818 0.1261089
v 2.225062 -0.2627406 0.1653882
v 2.155132 -0.2294664 0.1570765
v 2.200709 -0.4331571 0.1888195
v 2.10473 -0.2433178 0.1258239
v 2.097774 -0.4193056 0.1256896
v 2.042351 -0.2433179 0.1356058
v 2.035875 -0.4193055 0.1381431
v 1.988465 -0.2433179 0.1685127
v 1.983452 -0.4193055 0.1733358
v 1.951273 -0.2433178 0.2195376
v 1.948488 -0.4193056 0.2259122
v 1.936439 -0.2433179 0.2809097
v 1.936305 -0.4193055 0.2878647
v 1.94622 -0.2433179 0.3432879
v 1.948758 -0.4193056 0.3497655
v 1.979128 -0.2433178 0.3971753
v 1.983952 -0.4193055 0.4021885
v 2.030152 -0.2433179 0.4343662
v 2.036526 -0.4193055 0.4371519
v 2.091525 -0.2433178 0.4492011
v 2.098481 -0.4193056 0.4493354
v 2.153903 -0.2433179 0.4394192
v 2.16038 -0.4193055 0.4368818
v 2.207789 -0.2433169 0.4065123
v 2.212803 -0.4193055 0.4016891
v 2.244982 -0.2433178 0.3554873
v 2.247767 -0.4193056 0.3491127
v 2.259816 -0.2433169 0.2941152
v 2.25995 -0.4193055 0.2871602
v 2.250035 -0.2433169 0.2317377
v 2.247497 -0.4193055 0.2252606
v 2.14843 -0.3988702 0.1724139
v 2.18275 -0.3998818 0.206097
v 2.131619 -0.433157 0.2108785
v 2.188646 -0.3988702 0.2004244
v 2.103595 -0.4193056 0.1845289
v 2.095588 -0.3988702 0.1619939
v 2.06377 -0.4193054 0.1902756
v 2.04775 -0.3988702 0.1725195
v 2.029176 -0.4193056 0.210824
v 2.007579 -0.3988702 0.2005504
v 2.005076 -0.4193056 0.2430499
v 1.981192 -0.3988702 0.2418228
v 1.995143 -0.4193056 0.2820446
v 1.972608 -0.3988702 0.2900505
v 2.00089 -0.4193055 0.3218711
v 1.983135 -0.3988702 0.3378919
v 2.021441 -0.4193055 0.3564663
v 2.011167 -0.3988702 0.3780621
v 2.053665 -0.4193055 0.3805641
v 2.052438 -0.3988702 0.4044475
v 2.092659 -0.4193054 0.3904961
v 2.100665 -0.3988702 0.413031
v 2.132486 -0.4193056 0.3847503
v 2.148507 -0.3988702 0.4025051
v 2.167082 -0.4193056 0.3642
v 2.188678 -0.3988702 0.3744729
v 2.19118 -0.4193054 0.3319739
v 2.215063 -0.3988702 0.3332014
v 2.201112 -0.4193056 0.2929817
v 2.223647 -0.3988702 0.2849747
v 2.195365 -0.4193055 0.2531539
v 2.21312 -0.3988702 0.237133
v 2.190909 -0.2317705 0.2107301
v 2.030717 -0.2205234 0.278354
v 2.012069 -0.2565245 0.1845501
v 2.170666 -0.2509162 0.3101267
v 2.008291 -0.2976482 0.3005327
v 2.009022 -0.2976482 0.1814693
v 2.207622 -0.2976482 0.2823546
v 2.174888 -0.2976482 0.1688841
v 1.190803 -0.2968062 0.360627
v 1.170987 -0.2887692 0.3281968
v 1.197683 -0.2811952 0.3677788
v 1.170987 -0.2968062 0.3281968
v 1.229325 -0.2968062 0.3888338
v 1.229325 -0.2698602 0.3888338
v 1.266271 -0.2564902 0.3977528
v 1.276193 -0.2968062 0.3979442
v 1.308773 -0.2431192 0.392115
v 1.318012 -0.2968052 0.3884954
v 1.345882 -0.2317842 0.3706428
v 1.353034 -0.2968052 0.3637625
v 1.163501 -0.2968062 0.2909359
v 1.163693 -0.2914282 0.2810141
v 1.170775 -0.2968062 0.2486835
v 1.174749 -0.2887692 0.2395906
v 1.193665 -0.2968062 0.2124289
v 1.200818 -0.2811952 0.2055475
v 1.228689 -0.2968052 0.1876938
v 1.237929 -0.2698602 0.1840743
v 1.270512 -0.2968052 0.1782452
v 1.280435 -0.2564902 0.1784371
v 1.312766 -0.2968052 0.1855213
v 1.321857 -0.2431192 0.1894945
v 1.349017 -0.2968052 0.2084102
v 1.355898 -0.2317842 0.2155623
v 1.372665 -0.2968052 0.2412179
v 1.367163 -0.2261412 0.2319721
v 1.377372 -0.2261412 0.2526743
v 1.3832 -0.2968052 0.285253
v 1.383009 -0.2261412 0.2951765
v 1.375926 -0.2968052 0.3275088
v 1.37195 -0.2261412 0.3366035
v 2.165963 -0.2602714 0.3794637
v 1.943054 -0.3312578 0.3344988
v 1.95449 -0.2967335 0.3799269
v 2.1932 -0.29734 0.3504447
v 2.160494 -0.3627033 0.2959419
v 1.943184 -0.3437822 0.2827376
v 2.134812 -0.2151212 0.3833601
v 1.94313 -0.245005 0.3815174
v 2.10249 -0.1749519 0.3682441
v 1.933921 -0.208283 0.3590335
v 2.195498 -0.3016388 0.2298017
v 1.943211 -0.3288483 0.2362931
v 2.16594 -0.2602692 0.195607
v 1.943231 -0.2926924 0.2035374
v 1.943157 -0.1704488 0.3384738
v 2.088713 -0.1464755 0.3256847
v 1.943184 -0.1555142 0.2920284
v 2.067745 -0.1341048 0.2821847
v 1.951055 -0.1618615 0.2366998
v 2.089024 -0.1475798 0.2458785
v 2.102467 -0.1749496 0.2067219
v 1.934014 -0.2082806 0.2157343
v 2.134787 -0.2151185 0.1916585
v 1.943238 -0.2450017 0.1932487
v 1.943116 -0.2006053 0.3630441
v 1.943103 -0.2450073 0.3774234
v 1.943152 -0.1693276 0.3283936
v 1.943184 -0.159575 0.2827398
v 1.943224 -0.1739514 0.2383151
v 1.943256 -0.2086209 0.2070274
v 1.943265 -0.2542962 0.1972765
v 1.943253 -0.298723 0.2116767
v 1.943216 -0.3299834 0.2463642
v 1.943184 -0.3397223 0.2920257
v 1.943045 -0.3277309 0.3324633
v 1.943011 -0.294721 0.3654507
v 1.196437 -0.3161921 0.3597735
v 1.438378 -0.2959674 0.3589653
v 1.420231 -0.3419949 0.3335561
v 1.210655 -0.2513996 0.3792266
v 1.431557 -0.2542942 0.3804937
v 1.240101 -0.2082171 0.3788033
v 1.431564 -0.2067217 0.3702361
v 1.265873 -0.1712815 0.3587923
v 1.218726 -0.3647326 0.2864077
v 1.440828 -0.3321518 0.2865908
v 1.423795 -0.3372356 0.2360217
v 1.1737 -0.2717667 0.2349453
v 1.206644 -0.2601537 0.1947061
v 1.431657 -0.292577 0.2029454
v 1.237678 -0.2151194 0.1908429
v 1.431664 -0.2450029 0.1926879
v 1.264534 -0.1759811 0.2086288
v 1.431657 -0.1986738 0.2075921
v 1.289085 -0.1484136 0.2369217
v 1.431637 -0.1660042 0.2436625
v 1.304512 -0.1343368 0.2812454
v 1.431611 -0.1557463 0.2912374
v 1.283588 -0.1466777 0.3246163
v 1.431584 -0.1706496 0.3375658
v 1.431571 -0.1739529 0.3356598
v 1.431539 -0.2086231 0.3669471
v 1.43153 -0.2542979 0.3766976
v 1.431645 -0.2947509 0.3647079
v 1.431611 -0.1595762 0.2912379
v 1.431643 -0.1693272 0.2455819
v 1.43168 -0.2006049 0.2109304
v 1.431692 -0.2450075 0.1965508
v 1.431683 -0.2906493 0.2062898
v 1.431651 -0.3253186 0.2375401
v 1.431611 -0.3397222 0.2819442
v 1.431678 -0.3277529 0.3316833
v 1.943011 -0.294721 0.3654507
v 1.431678 -0.3277529 0.3316833
v 1.431645 -0.2947509 0.3647079
v 1.943045 -0.3277309 0.3324633
v 1.943184 -0.3397223 0.2920257
v 1.431611 -0.3397222 0.2819442
v 1.943216 -0.3299834 0.2463642
v 1.431651 -0.3253186 0.2375401
v 1.943253 -0.298723 0.2116767
v 1.431683 -0.2906493 0.2062898
v 1.943265 -0.2542962 0.1972765
v 1.431692 -0.2450075 0.1965508
v 1.943256 -0.2086209 0.2070274
v 1.43168 -0.2006049 0.2109304
v 1.943224 -0.1739514 0.2383151
v 1.431643 -0.1693272 0.2455819
v 1.943184 -0.159575 0.2827398
v 1.431611 -0.1595762 0.2912379
v 1.943152 -0.1693276 0.3283936
v 1.431571 -0.1739529 0.3356598
v 1.943116 -0.2006053 0.3630441
v 1.431539 -0.2086231 0.3669471
v 1.943103 -0.2450073 0.3774234
v 1.43153 -0.2542979 0.3766976

vn 0 -1 3.576279E-07
vn -0.04341487 -0.8328393 -0.55181
vn 0.3165336 -0.8944272 0.315922
vn 0 -0.447214 -0.8944271
vn -0.2142864 -0.5589269 -0.8010508
vn -0.3827741 -0.7109837 -0.5899037
vn 0.4722586 -0.8719319 0.1292545
vn -0.6442196 -0.5589245 -0.5220963
vn -0.7740235 -0.5589253 -0.2974728
vn -0.7030815 -0.7086608 -0.05896144
vn -0.5220966 0.5589241 -0.6442198
vn -0.589904 0.7109833 -0.3827744
vn 0.1163601 0.9863942 0.1161348
vn 0.4215786 0.8726237 0.246576
vn -0.8010446 0.5589252 -0.2143135
vn -0.8302097 0.5557539 -0.04346997
vn -0.2974601 0.5589262 -0.7740278
vn -0.07011083 0.4483179 -0.8911204
vn 0 0.8944271 -0.447214
vn 0 1 -3.576279E-07
vn 0.7104333 -0.7022786 -0.04571114
vn -0.7030815 -0.7086608 -0.05896144
vn -0.7103621 -0.6944455 -0.1145919
vn 0.4722586 -0.8719319 0.1292545
vn 0.7079899 -0.6908162 -0.1467087
vn -0.7079901 -0.6973011 -0.1118988
vn 0.7074906 -0.7046699 -0.05382925
vn -0.7074889 -0.7060612 -0.03061414
vn 0.7071111 -0.7070853 -0.004935028
vn -0.7071112 -0.7070979 -0.002499302
vn -0.7076743 0.7048507 0.04881422
vn -0.7071116 0.7070824 -0.005254854
vn 0.7076747 0.7062432 0.02042436
vn 0.7081603 0.6966105 0.1150783
vn -0.7081578 0.689286 0.1529627
vn 0.7100311 0.6925212 0.1275549
vn -0.7100289 0.7012807 0.06375355
vn 0.4215786 0.8726237 0.246576
vn -0.8302097 0.5557539 -0.04346997
vn 0.7071118 0.7070968 -0.002661239
vn 0 -1 3.576279E-07
vn -0.04341504 -0.8328388 0.5518105
vn 0 -0.4472133 0.8944274
vn 0.316655 -0.8944274 -0.3157997
vn -0.2142864 -0.5589262 0.8010513
vn -0.3827738 -0.7109833 0.5899043
vn 0.274265 -0.9586567 -0.07587093
vn -0.6442201 -0.5589241 0.5220962
vn -0.7740275 -0.5589264 0.2974605
vn -0.8896117 -0.4466391 0.09541725
vn -0.5220969 0.5589246 0.644219
vn -0.5899041 0.7109836 0.3827737
vn 0.1164047 0.986394 -0.1160908
vn 0.6235858 0.7299026 -0.2799696
vn -0.8010508 0.5589266 0.2142863
vn -0.5548854 0.8316578 -0.02115817
vn -0.2974596 0.5589268 0.7740277
vn -0.0701111 0.4483185 0.8911201
vn 0 0.8944274 0.4472133
vn 0 1 -3.576279E-07
vn -0.7069231 -0.7047594 0.05978329
vn 0.274265 -0.9586567 -0.07587093
vn 0.7074884 -0.7057023 0.03800726
vn -0.8896117 -0.4466391 0.09541725
vn -0.4474513 -0.89284 0.0512275
vn 0.8945337 -0.4463128 0.02478785
vn 0.7075737 -0.7052621 0.04410319
vn -0.7072397 -0.7066021 0.02292629
vn 0.707413 -0.7067338 -0.009715562
vn -0.7070547 -0.7068922 -0.01942211
vn 0.4472895 -0.8941996 -0.01842364
vn -0.894465 -0.4470432 -0.009201588
vn -0.7071112 -0.7070979 -0.002499302
vn 0.7071111 -0.7070853 -0.004935028
vn 0.7070527 0.7068946 0.01940387
vn 0.7071856 0.7067102 -0.02120007
vn -0.7074127 0.7067344 0.009696461
vn -0.4472894 0.8942 0.0184063
vn 0.894465 0.4470432 0.009202369
vn 0.7071118 0.7070968 -0.002661239
vn -0.7071116 0.7070824 -0.005254854
vn -0.7075713 0.7052661 -0.04407723
vn 0.4474509 0.8928416 -0.05120277
vn -0.8945573 0.4461735 -0.02639413
vn -0.7074422 0.705825 -0.03656132
vn 0.7068936 0.7047883 -0.05979047
vn -0.5548854 0.8316578 -0.02115817
vn 0.6235858 0.7299026 -0.2799696
vn 0.7131643 0.2119667 0.6681818
vn 0.8978516 0.3052658 0.3172937
vn 0.454181 0.6176851 0.6420164
vn 0.7131643 0.2983167 0.6343532
vn 0.7131652 -0.05988338 0.6984336
vn 0.7131639 0.03285725 0.700227
vn 0.713163 -0.322593 0.6223603
vn 0.7131647 -0.2376044 0.6595002
vn 0.7131655 -0.5362071 0.4515273
vn 0.7131645 -0.4719023 0.5183674
vn 0.713165 -0.6681846 0.2119553
vn 0.7131636 -0.634351 0.2983229
vn 0.7131633 -0.6984351 -0.05988887
vn 0.7131652 -0.7002253 0.03286402
vn 0.7131644 -0.6223539 -0.3226026
vn 0.713164 -0.6594983 -0.2376118
vn 0.7131639 -0.4515312 -0.5362062
vn 0.7131643 -0.5183746 -0.4718948
vn 0.7131642 -0.2119687 -0.6681813
vn 0.7131647 -0.298321 -0.6343506
vn 0.7131653 0.0598788 -0.6984339
vn 0.7131637 -0.03285531 -0.7002271
vn 0.7131647 0.3226077 -0.6223508
vn 0.7131647 0.2376044 -0.6595002
vn 0.7131649 0.5362204 -0.4515127
vn 0.7131645 0.4719023 -0.5183674
vn 0.7131627 0.668185 -0.211962
vn 0.7131636 0.634351 -0.2983229
vn 0.7131651 0.6984344 0.05987523
vn 0.7131652 0.7002253 -0.03286397
vn 0.8978509 0.4034526 0.1763225
vn 0.4541808 0.8163544 0.3567709
vn -0.7131646 0.2119559 0.668185
vn -0.8049141 0.3822185 0.453897
vn -0.4541823 0.6176825 0.642018
vn -0.8369659 0.1996364 0.5095425
vn -0.7131639 -0.05987621 0.6984356
vn -0.7131668 0.03285544 0.700224
vn -0.7131647 -0.322599 0.6223553
vn -0.7131615 -0.2376277 0.6594952
vn -0.7131645 -0.536211 0.4515243
vn -0.713166 -0.4718907 0.518376
vn -0.7131636 -0.6681831 0.211965
vn -0.7131631 -0.6343537 0.2983184
vn -0.7131652 -0.6984339 -0.05987944
vn -0.713164 -0.7002261 0.03287369
vn -0.7131637 -0.6223568 -0.3225982
vn -0.7131653 -0.6595024 -0.237596
vn -0.7131648 -0.4515311 -0.5362049
vn -0.7131628 -0.5183753 -0.4718961
vn -0.7131644 -0.2119524 -0.6681862
vn -0.7153758 -0.2973576 -0.6323101
vn -0.7131637 0.05987715 -0.6984356
vn -0.7168282 -0.05108114 -0.6953762
vn -0.7131647 0.322599 -0.6223553
vn -0.7131625 0.2376112 -0.6595
vn -0.7131645 0.536211 -0.4515243
vn -0.713166 0.4718907 -0.518376
vn -0.7131636 0.668183 -0.2119651
vn -0.7131631 0.6343537 -0.2983184
vn -0.7131652 0.6984339 0.05987953
vn -0.713164 0.700226 -0.03287369
vn -0.8978508 0.4034532 0.1763225
vn -0.4541849 0.816346 0.3567849
vn -0.7168282 -0.05108114 -0.6953762
vn -0.006368072 -0.3275331 -0.9448184
vn -0.7153758 -0.2973576 -0.6323101
vn 0 0.05978345 -0.9982115
vn -0.7131625 0.2376112 -0.6595
vn 0 0.4601985 -0.8878161
vn -0.713166 0.4718907 -0.518376
vn 0 0.7649242 -0.6441206
vn 0 -0.6441206 -0.7649242
vn -0.7131628 -0.5183753 -0.4718961
vn 0 -0.8878172 -0.4601966
vn -0.7131653 -0.6595024 -0.237596
vn 0 -0.9963474 -0.08539413
vn -0.713164 -0.7002261 0.03287369
vn 0 -0.9531896 0.3023736
vn -0.7131631 -0.6343537 0.2983184
vn 0 -0.7649242 0.6441206
vn -0.713166 -0.4718907 0.518376
vn 0 -0.4601985 0.8878161
vn -0.7131615 -0.2376277 0.6594952
vn 0 -0.08545147 0.9963425
vn -0.7131668 0.03285544 0.700224
vn 0 0.3647958 0.9310876
vn -0.8369659 0.1996364 0.5095425
vn -0.8049141 0.3822185 0.453897
vn 0 0.7394535 0.6732079
vn -0.4541849 0.816346 0.3567849
vn 0 0.9163084 0.4004737
vn 0 0.9963474 0.08539414
vn -0.713164 0.700226 -0.03287369
vn 0 0.9531896 -0.3023736
vn -0.7131631 0.6343537 -0.2983184
vn 0.7131673 -0.7008621 -0.01358881
vn 0.5613121 -0.7705951 0.3018476
vn 0.8049149 0.4276451 -0.4113778
vn 0.713163 -0.5052116 0.4859628
vn 0.7131675 0.6527089 -0.2556627
vn 0.8369664 -0.2518757 0.4858456
vn 0.7131618 0.7008674 0.01360851
vn 0.6074401 -0.0679243 0.7914562
vn 0.7131658 0.6423171 0.2807551
vn 0.5613164 0.3018335 0.7705976
vn 0.3211533 0.6565433 0.682504
vn 0.7131659 0.2807551 -0.6423169
vn 0.7131624 -0.6423037 -0.2807942
vn 0.7131616 0.01360865 -0.7008676
vn 0.5613126 -0.5737475 -0.5964413
vn 0.3211561 -0.3453637 -0.8818066
vn 0.7131611 -0.5649439 0.4150178
vn 0.8978502 -0.2026695 0.3908839
vn 0.4541843 -0.4100588 0.790929
vn 0.7131643 -0.5052019 0.4859711
vn 0.7131647 -0.6807486 0.167265
vn 0.7131636 -0.6527169 0.2556528
vn 0.7131673 -0.6929291 -0.1060266
vn 0.7131646 -0.7008651 -0.01358242
vn 0.7131624 -0.5996159 -0.3631255
vn 0.7131666 -0.6423072 -0.2807759
vn 0.7131643 -0.4150212 -0.5649374
vn 0.7131623 -0.4859684 -0.5052072
vn 0.7131659 -0.1672133 -0.68076
vn 0.7131642 -0.25566 -0.6527136
vn 0.7131616 0.1060029 -0.6929386
vn 0.713166 0.0135933 -0.7008634
vn 0.7131659 0.3631119 -0.59962
vn 0.7131632 0.2807897 -0.6423048
vn 0.7131622 0.5649271 -0.4150388
vn 0.7131647 0.5051811 -0.4859921
vn 0.7131675 0.6807555 -0.1672248
vn 0.7131643 0.6527141 -0.2556581
vn 0.7131618 0.6929385 0.1060033
vn 0.7131655 0.7008636 0.01361476
vn 0.7131658 0.5996207 0.363111
vn 0.7131642 0.64231 0.2807756
vn 0.7131624 0.4150378 0.5649276
vn 0.7131632 0.4859774 0.5051972
vn 0.7131677 0.1672185 0.6807568
vn 0.7131644 0.2556583 0.652714
vn 0.8978493 -0.03764926 0.4386904
vn 0.454184 -0.07618653 0.8876444
vn 0.4541799 -0.4100835 0.7909186
vn 0.8978522 -0.03765146 0.4386842
vn 0.8978512 -0.2026486 0.3908925
vn 0.7131643 -0.5649408 0.4150167
vn 0.7131647 -0.5052022 0.4859703
vn 0.7131636 -0.680755 0.1672435
vn 0.7131651 -0.6527193 0.255643
vn 0.7131646 -0.6929362 -0.1059991
vn 0.7131631 -0.700866 -0.01360417
vn 0.7131658 -0.5996122 -0.3631252
vn 0.7131643 -0.6423165 -0.2807606
vn 0.7131636 -0.4150233 -0.5649366
vn 0.7131653 -0.4859763 -0.5051954
vn 0.7131636 -0.1672434 -0.6807549
vn 0.7131646 -0.2556391 -0.6527213
vn 0.7131662 0.1060248 -0.6929305
vn 0.713163 0.01359863 -0.7008664
vn 0.7131615 0.3631099 -0.5996266
vn 0.7131646 0.2807552 -0.6423184
vn 0.7131667 0.5649214 -0.4150389
vn 0.7131653 0.5051954 -0.4859763
vn 0.7131647 0.680758 -0.1672263
vn 0.7131646 0.6527213 -0.2556391
vn 0.7131633 0.6929335 0.1060255
vn 0.7131629 0.7008665 0.01359848
vn 0.7131654 0.5996215 0.3631104
vn 0.7131647 0.6423184 0.2807549
vn 0.7131637 0.4150237 0.5649362
vn 0.7131647 0.4859716 0.5052008
vn 0.7131638 0.1672417 0.6807553
vn 0.7131647 0.255639 0.6527213
vn 0.4541806 -0.07615774 0.8876486
vn 0.7131637 -0.5649429 0.4150146
vn 0.8978514 -0.2026519 0.39089
vn 0.4541826 -0.4100501 0.7909344
vn 0.7131647 -0.5052021 0.4859702
vn 0.7131655 -0.6807577 0.1672249
vn 0.7131633 -0.6527196 0.2556469
vn 0.7131631 -0.692936 -0.1060098
vn 0.7131652 -0.7008644 -0.01358865
vn 0.7131642 -0.5996259 -0.3631055
vn 0.7131642 -0.6423107 -0.2807738
vn 0.7131653 -0.4150162 -0.5649398
vn 0.7131647 -0.48597 -0.5052024
vn 0.7131646 -0.1672224 -0.6807593
vn 0.7131632 -0.2556478 -0.6527193
vn 0.713163 0.1060028 -0.6929373
vn 0.7131652 0.01358707 -0.7008643
vn 0.7131646 0.3631029 -0.5996271
vn 0.7131641 0.2807739 -0.6423108
vn 0.7131652 0.5649397 -0.4150163
vn 0.7131637 0.5051976 -0.4859763
vn 0.7131646 0.6807593 -0.1672223
vn 0.7131643 0.6527128 -0.2556618
vn 0.7131629 0.6929374 0.1060022
vn 0.7131652 0.7008643 0.01358668
vn 0.7131651 0.5996228 0.3631089
vn 0.7131642 0.6423107 0.2807738
vn 0.7131643 0.4150116 0.5649444
vn 0.7131636 0.4859761 0.5051978
vn 0.7131639 0.1672325 0.6807575
vn 0.7131655 0.2556526 0.652715
vn 0.8978509 -0.03763283 0.4386884
vn 0.4541798 -0.0761678 0.8876482
vn -0.7001197 -0.5707241 0.4290766
vn -0.9992208 -0.006966145 0.03884792
vn -0.4464302 -0.4096622 0.7955357
vn -0.9994837 -0.02605816 0.01879379
vn -0.6982386 -0.6956542 0.1689026
vn -0.9990929 -0.04258289 1.522883E-08
vn -0.6975286 -0.7090011 -0.103785
vn -0.9990603 -0.04334267 1.550055E-08
vn -0.6989652 -0.6163444 -0.362722
vn -0.9992529 -0.03751437 -0.009288314
vn -0.7001193 -0.429077 -0.5707242
vn -0.9994837 -0.01879499 -0.02605863
vn -0.6982384 -0.1689043 -0.6956541
vn -0.9990929 -1.522914E-08 -0.04258377
vn -0.6975281 0.1037844 -0.7090017
vn -0.9990602 -1.550105E-08 -0.04334407
vn -0.698965 0.3627216 -0.6163449
vn -0.9992529 0.009288315 -0.03751474
vn -0.7001177 0.5707158 -0.4290907
vn -0.9994837 0.02605921 -0.01879649
vn -0.698239 0.6956516 -0.1689119
vn -0.9990929 0.04258323 -1.522895E-08
vn -0.6975287 0.7090011 0.1037841
vn -0.9990603 0.04334271 -1.550056E-08
vn -0.6989651 0.6163445 0.362722
vn -0.999253 0.03751332 0.009288316
vn -0.7001185 0.4290896 0.5707156
vn -0.9994837 0.01879421 0.02605718
vn -0.6982414 0.1688926 0.695654
vn -0.9990929 1.522867E-08 0.04258244
vn -0.8819811 -0.03701313 0.4698291
vn -0.9990494 1.558978E-08 0.04359218
vn 0.4541798 -0.0761678 0.8876482
vn -0.4464302 -0.4096622 0.7955357
vn -0.8819811 -0.03701313 0.4698291
vn 0.8978514 -0.2026519 0.39089
vn -0.6982414 0.1688926 0.695654
vn 0.7131655 0.2556526 0.652715
vn -0.7001185 0.4290896 0.5707156
vn 0.7131636 0.4859761 0.5051978
vn -0.6989651 0.6163445 0.362722
vn 0.7131642 0.6423107 0.2807738
vn -0.6975287 0.7090011 0.1037841
vn 0.7131652 0.7008643 0.01358668
vn -0.698239 0.6956516 -0.1689119
vn 0.7131643 0.6527128 -0.2556618
vn -0.7001177 0.5707158 -0.4290907
vn 0.7131637 0.5051976 -0.4859763
vn -0.698965 0.3627216 -0.6163449
vn 0.7131641 0.2807739 -0.6423108
vn -0.6975281 0.1037844 -0.7090017
vn 0.7131652 0.01358707 -0.7008643
vn -0.6982384 -0.1689043 -0.6956541
vn 0.7131632 -0.2556478 -0.6527193
vn -0.7001193 -0.429077 -0.5707242
vn 0.7131647 -0.48597 -0.5052024
vn -0.6989652 -0.6163444 -0.362722
vn 0.7131642 -0.6423107 -0.2807738
vn -0.6975286 -0.7090011 -0.103785
vn 0.7131652 -0.7008644 -0.01358865
vn -0.6982386 -0.6956542 0.1689026
vn 0.7131633 -0.6527196 0.2556469
vn -0.7001197 -0.5707241 0.4290766
vn 0.7131647 -0.5052021 0.4859702
vn 0.4541806 -0.07615774 0.8876486
vn 0.4541826 -0.4100501 0.7909344
vn 0.8978509 -0.03763283 0.4386884
vn 0.8978512 -0.2026486 0.3908925
vn 0.7131639 0.1672325 0.6807575
vn 0.7131647 0.255639 0.6527213
vn 0.7131643 0.4150116 0.5649444
vn 0.7131647 0.4859716 0.5052008
vn 0.7131651 0.5996228 0.3631089
vn 0.7131647 0.6423184 0.2807549
vn 0.7131629 0.6929374 0.1060022
vn 0.7131629 0.7008665 0.01359848
vn 0.7131646 0.6807593 -0.1672223
vn 0.7131646 0.6527213 -0.2556391
vn 0.7131652 0.5649397 -0.4150163
vn 0.7131653 0.5051954 -0.4859763
vn 0.7131646 0.3631029 -0.5996271
vn 0.7131646 0.2807552 -0.6423184
vn 0.713163 0.1060028 -0.6929373
vn 0.713163 0.01359863 -0.7008664
vn 0.7131646 -0.1672224 -0.6807593
vn 0.7131646 -0.2556391 -0.6527213
vn 0.7131653 -0.4150162 -0.5649398
vn 0.7131653 -0.4859763 -0.5051954
vn 0.7131642 -0.5996259 -0.3631055
vn 0.7131643 -0.6423165 -0.2807606
vn 0.7131631 -0.692936 -0.1060098
vn 0.7131631 -0.700866 -0.01360417
vn 0.7131655 -0.6807577 0.1672249
vn 0.7131651 -0.6527193 0.255643
vn 0.7131637 -0.5649429 0.4150146
vn 0.7131647 -0.5052022 0.4859703
vn 0.6074401 -0.0679243 0.7914562
vn 0.8369664 -0.2518757 0.4858456
vn 0.5613164 0.3018335 0.7705976
vn 0.3211533 0.6565433 0.682504
vn 0.7131658 0.6423171 0.2807551
vn 0.7131618 0.7008674 0.01360851
vn 0.7131675 0.6527089 -0.2556627
vn 0.8049149 0.4276451 -0.4113778
vn 0.7131659 0.2807551 -0.6423169
vn 0.7131616 0.01360865 -0.7008676
vn 0.3211561 -0.3453637 -0.8818066
vn 0.5613126 -0.5737475 -0.5964413
vn 0.7131624 -0.6423037 -0.2807942
vn 0.7131673 -0.7008621 -0.01358881
vn 0.5613121 -0.7705951 0.3018476
vn 0.713163 -0.5052116 0.4859628
vn 0.4541808 0.8163544 0.3567709
vn -0.4541823 0.6176825 0.642018
vn -0.8978508 0.4034532 0.1763225
vn 0.8978516 0.3052658 0.3172937
vn -0.7131652 0.6984339 0.05987953
vn 0.7131652 0.7002253 -0.03286397
vn -0.7131636 0.668183 -0.2119651
vn 0.7131636 0.634351 -0.2983229
vn -0.7131645 0.536211 -0.4515243
vn 0.7131645 0.4719023 -0.5183674
vn -0.7131647 0.322599 -0.6223553
vn 0.7131647 0.2376044 -0.6595002
vn -0.7131637 0.05987715 -0.6984356
vn 0.7131637 -0.03285531 -0.7002271
vn -0.7131644 -0.2119524 -0.6681862
vn 0.7131647 -0.298321 -0.6343506
vn -0.7131648 -0.4515311 -0.5362049
vn 0.7131643 -0.5183746 -0.4718948
vn -0.7131637 -0.6223568 -0.3225982
vn 0.713164 -0.6594983 -0.2376118
vn -0.7131652 -0.6984339 -0.05987944
vn 0.7131652 -0.7002253 0.03286402
vn -0.7131636 -0.6681831 0.211965
vn 0.7131636 -0.634351 0.2983229
vn -0.7131645 -0.536211 0.4515243
vn 0.7131645 -0.4719023 0.5183674
vn -0.7131647 -0.322599 0.6223553
vn 0.7131647 -0.2376044 0.6595002
vn -0.7131639 -0.05987621 0.6984356
vn 0.7131639 0.03285725 0.700227
vn -0.7131646 0.2119559 0.668185
vn 0.7131643 0.2983167 0.6343532
vn 0 0.9163142 0.4004605
vn 0.454181 0.6176851 0.6420164
vn 0.8978509 0.4034526 0.1763225
vn 0 0.6933197 0.7206302
vn 0.7131651 0.6984344 0.05987523
vn 0 0.9989003 -0.04688724
vn 0.7131627 0.668185 -0.211962
vn 0 0.9049325 -0.4255553
vn 0.7131649 0.5362204 -0.4515127
vn 0 0.6732007 -0.7394601
vn 0.7131647 0.3226077 -0.6223508
vn 0 0.3389688 -0.9407977
vn 0.7131653 0.0598788 -0.6984339
vn 0 -0.04687954 -0.9989007
vn 0.7131642 -0.2119687 -0.6681813
vn 0 -0.425579 -0.9049214
vn 0.7131639 -0.4515312 -0.5362062
vn 0 -0.739475 -0.6731842
vn 0.7131644 -0.6223539 -0.3226026
vn 0 -0.9408007 -0.3389606
vn 0.7131633 -0.6984351 -0.05988887
vn 0 -0.9989014 0.04686433
vn 0.713165 -0.6681846 0.2119553
vn 0 -0.9049277 0.4255656
vn 0.7131655 -0.5362071 0.4515273
vn 0 -0.6731796 0.7394792
vn 0.713163 -0.322593 0.6223603
vn 0 -0.3389592 0.9408013
vn 0.7131652 -0.05988338 0.6984336
vn 0 0.04687655 0.9989008
vn 0.7131643 0.2119667 0.6681818
vn 0 0.425579 0.9049214
vn -0.6650355 0.3324977 0.6687101
vn -0.814997 -0.4074738 -0.4120014
vn -0.3349826 0.6699241 -0.662562
vn -0.4097604 -0.8194708 0.4007046
vn 0 -0.7031894 -0.7110028
vn 0 0.7110029 -0.7031893
vn 0 -0.4491759 0.8934435
vn 0 0.8904455 0.4550901
vn 0 -0.64411 -0.7649331
vn 0 -0.3647602 -0.9311016
vn 0 -0.7394676 -0.6731924
vn 0 -0.3647603 -0.9311016
vn 0 -0.9163204 -0.400446
vn 0 -0.9163204 -0.400446
vn 0 -0.9963474 -0.08539397
vn 0 -0.9988999 0.04689576
vn 0 -0.9531897 0.3023732
vn 0 -0.9049296 0.4255614
vn 0 -0.7649332 0.6441099
vn 0 -0.6731969 0.7394634
vn 0 -0.04688194 -0.9989005
vn 0 0.08540871 -0.9963461
vn 0 0.3389375 -0.940809
vn 0 0.460176 -0.8878278
vn 0 0.6731716 -0.7394866
vn 0 0.7649243 -0.6441204
vn 0 0.9049315 -0.4255576
vn 0 0.9531923 -0.3023649
vn 0 0.9989017 -0.04685855
vn 0 0.9963421 0.08545663
vn 0 0.9407927 0.3389829
vn 0 0.887817 0.4601969
vn 0 0.7394866 0.6731715
vn 0 0.6441258 0.7649198
vn 0 0.4551048 0.890438
vn 0 0.5393693 0.8420694
vn 0 0.3023519 0.9531964
vn 0 0.04689062 0.9989002
vn 0 -0.08542319 0.9963449
vn 0 -0.3389738 0.940796
vn 0 -0.4602228 0.8878036
vn -0.1392243 -0.7392575 0.6588743
vn 0.6016751 -0.3473638 -0.7192534
vn 0.3469369 -0.7474717 -0.566499
vn 0.1494368 -0.5576697 0.8165007
vn 0.9456948 -0.1117257 0.305252
vn 0.6934132 0.0619326 -0.7178737
vn -0.4603733 -0.7163011 0.524375
vn -0.06192276 -0.6934125 -0.7178753
vn -0.7151105 -0.5903682 0.374276
vn -0.2706965 -0.4688794 -0.8407591
vn 0.2067545 0.4891975 0.8473126
vn 0.5695482 0.4003397 -0.7178742
vn -0.1392397 0.7392598 0.6588683
vn 0.2930696 0.6314799 -0.7178743
vn -0.5695389 -0.4003511 -0.717875
vn -0.8891821 -0.2287761 0.3962534
vn -0.6934132 -0.0619331 -0.7178736
vn -0.9788719 0.07027805 0.1920183
vn -0.6840363 0.3949283 -0.6132913
vn -0.8744588 0.2735998 0.4005809
vn -0.7151277 0.5903531 0.3742669
vn -0.2707148 0.4688689 -0.840759
vn -0.4603961 0.716293 0.5243663
vn -0.06195267 0.6934094 -0.7178758
vn -0.4001314 -0.5692491 -0.7182273
vn -0.06189219 -0.6929715 -0.7183037
vn -0.6313807 -0.2930277 -0.7179787
vn -0.6934155 0.06191671 -0.7178729
vn -0.5697299 0.4004578 -0.717664
vn -0.2932444 0.6318416 -0.7174847
vn 0.06197397 0.6938542 -0.7174439
vn 0.4005439 0.5698501 -0.7175204
vn 0.6315753 0.2931234 -0.7177683
vn 0.6934147 -0.06190905 -0.7178743
vn 0.6015288 -0.3472897 -0.7194116
vn 0.3471842 -0.6013359 -0.7196239
vn 0.4034522 -0.6987975 -0.5906847
vn 0.3382561 -0.4812081 0.8087161
vn 0.7474901 -0.3468982 0.5664984
vn -0.2559807 -0.7534373 -0.6056455
vn 0.06193255 -0.6934128 0.7178742
vn -0.5524407 -0.6725933 -0.4923694
vn -0.2930602 -0.6314855 0.7178733
vn -0.7655964 -0.4802611 -0.4280321
vn 0.975818 -7.817182E-08 -0.2185843
vn 0.5414085 3.006791E-07 0.8407598
vn 0.6840325 0.3949337 0.6132919
vn -0.1888872 0.4069527 -0.8937066
vn -0.1392476 0.7392622 -0.6588641
vn 0.2930633 0.6314849 0.7178726
vn -0.460397 0.7162924 -0.5243663
vn -0.06195031 0.6934102 0.7178752
vn -0.7029215 0.5543602 -0.4456301
vn -0.4003516 0.5695416 0.7178727
vn -0.8660208 0.3818538 -0.3227939
vn -0.6314808 0.2930685 0.7178741
vn -0.9788722 0.07026993 -0.1920187
vn -0.6934119 -0.06194252 0.7178741
vn -0.8891796 -0.228781 -0.3962562
vn -0.5695405 -0.4003491 0.7178749
vn -0.5697235 -0.4004672 0.7176638
vn -0.2932408 -0.6318457 0.7174824
vn 0.06198249 -0.693852 0.7174454
vn 0.3475697 -0.602003 0.7188796
vn -0.6934137 -0.0619483 0.7178719
vn -0.6313869 0.293011 0.71798
vn -0.4001382 0.569244 0.7182276
vn -0.06188913 0.6929722 0.7183033
vn 0.2928942 0.6311185 0.7182636
vn 0.569365 0.4002225 0.7180847
vn 0.6934127 0.06195412 0.7178723
vn 0.6018093 -0.3474486 0.7191002
vn 0.3471842 -0.6013359 -0.7196239
vn 0.6018093 -0.3474486 0.7191002
vn 0.3475697 -0.602003 0.7188796
vn 0.6015288 -0.3472897 -0.7194116
vn 0.6934147 -0.06190905 -0.7178743
vn 0.6934127 0.06195412 0.7178723
vn 0.6315753 0.2931234 -0.7177683
vn 0.569365 0.4002225 0.7180847
vn 0.4005439 0.5698501 -0.7175204
vn 0.2928942 0.6311185 0.7182636
vn 0.06197397 0.6938542 -0.7174439
vn -0.06188913 0.6929722 0.7183033
vn -0.2932444 0.6318416 -0.7174847
vn -0.4001382 0.569244 0.7182276
vn -0.5697299 0.4004578 -0.717664
vn -0.6313869 0.293011 0.71798
vn -0.6934155 0.06191671 -0.7178729
vn -0.6934137 -0.0619483 0.7178719
vn -0.6313807 -0.2930277 -0.7179787
vn -0.5697235 -0.4004672 0.7176638
vn -0.4001314 -0.5692491 -0.7182273
vn -0.2932408 -0.6318457 0.7174824
vn -0.06189219 -0.6929715 -0.7183037
vn 0.06198249 -0.693852 0.7174454

vt 0.052228 0.095018
vt 0.111848 0.032062
vt 0.10929 0.095018
vt 0.054786 0.032062
vt 0.1313 0.035143
vt 0.148848 0.044084
vt 0.111844 0.097579
vt 0.162774 0.05801
vt 0.171715 0.075558
vt 0.174796 0.09501
vt 0.148848 0.044084
vt 0.162774 0.05801
vt 0.10929 0.095018
vt 0.111844 0.097579
vt 0.171715 0.075558
vt 0.174796 0.09501
vt 0.1313 0.035143
vt 0.111848 0.032062
vt 0.054786 0.032062
vt 0.052228 0.095018
vt 0.098915 0.150271
vt 0.169984 0.129962
vt 0.169984 0.150244
vt 0.098911 0.129962
vt 0.098915 0.165987
vt 0.169984 0.165954
vt 0.098915 0.168807
vt 0.169984 0.168774
vt 0.098915 0.210818
vt 0.169984 0.210818
vt 0.169984 0.171366
vt 0.169984 0.210818
vt 0.098915 0.171399
vt 0.098915 0.168579
vt 0.169984 0.168546
vt 0.098915 0.15233
vt 0.169984 0.152304
vt 0.098911 0.129962
vt 0.169984 0.129962
vt 0.098915 0.210818
vt 0.060262 0.742467
vt 0.097114 0.815621
vt 0.063234 0.815621
vt 0.094142 0.742467
vt 0.119717 0.812041
vt 0.140107 0.801652
vt 0.09711 0.739492
vt 0.156289 0.78547
vt 0.166679 0.765079
vt 0.170259 0.742476
vt 0.140107 0.801652
vt 0.156289 0.78547
vt 0.094142 0.742467
vt 0.09711 0.739492
vt 0.166679 0.765079
vt 0.170259 0.742476
vt 0.119717 0.812041
vt 0.097114 0.815621
vt 0.063234 0.815621
vt 0.060262 0.742467
vt 0.169984 0.681674
vt 0.098911 0.723422
vt 0.098915 0.681674
vt 0.169984 0.723422
vt 0.169984 0.640836
vt 0.098915 0.640836
vt 0.098896 0.633368
vt 0.169965 0.633368
vt 0.098915 0.221542
vt 0.169984 0.221542
vt 0.098915 0.210818
vt 0.169984 0.210818
vt 0.169984 0.168774
vt 0.098915 0.168807
vt 0.098915 0.221542
vt 0.098896 0.633368
vt 0.169984 0.221542
vt 0.169984 0.210818
vt 0.098915 0.210818
vt 0.098915 0.171399
vt 0.169984 0.171366
vt 0.169965 0.633368
vt 0.098915 0.640836
vt 0.169984 0.640836
vt 0.169984 0.681674
vt 0.098915 0.681674
vt 0.169984 0.723422
vt 0.098911 0.723422
vt 0.057045 0.593971
vt 0.063354 0.595326
vt 0.058893 0.592269
vt 0.059248 0.599114
vt 0.054922 0.595015
vt 0.054529 0.601389
vt 0.05287 0.595238
vt 0.050025 0.601788
vt 0.051213 0.59462
vt 0.046475 0.60032
vt 0.050198 0.593278
vt 0.044388 0.597316
vt 0.04996 0.591433
vt 0.043991 0.593312
vt 0.050515 0.589369
vt 0.045251 0.588923
vt 0.051767 0.587387
vt 0.047929 0.584758
vt 0.053531 0.585768
vt 0.051641 0.581356
vt 0.055555 0.584741
vt 0.055899 0.579161
vt 0.057552 0.584459
vt 0.060147 0.578486
vt 0.05923 0.584977
vt 0.063795 0.579486
vt 0.06033 0.586237
vt 0.066275 0.582104
vt 0.060666 0.588065
vt 0.067132 0.58603
vt 0.060166 0.590187
vt 0.066129 0.590693
vt 0.051073 0.600266
vt 0.05313 0.591936
vt 0.046969 0.596352
vt 0.054392 0.593147
vt 0.055886 0.602497
vt 0.055877 0.593863
vt 0.060569 0.602714
vt 0.057349 0.593976
vt 0.064364 0.600974
vt 0.058578 0.593477
vt 0.066738 0.597655
vt 0.059383 0.592453
vt 0.067424 0.593328
vt 0.059649 0.591068
vt 0.066409 0.588639
vt 0.059346 0.589531
vt 0.063889 0.584224
vt 0.058524 0.58807
vt 0.060214 0.580657
vt 0.057306 0.586894
vt 0.05586 0.57841
vt 0.055868 0.586176
vt 0.051397 0.577825
vt 0.054419 0.586026
vt 0.047453 0.57906
vt 0.053174 0.586473
vt 0.044651 0.582034
vt 0.052326 0.587462
vt 0.043507 0.586376
vt 0.052013 0.588849
vt 0.044301 0.591433
vt 0.052294 0.590423
vt 0.041352 0.487598
vt 0.037167 0.50569
vt 0.037916 0.487598
vt 0.041352 0.50569
vt 0.044761 0.487598
vt 0.044761 0.50569
vt 0.047625 0.487598
vt 0.047625 0.504245
vt 0.034977 0.504245
vt 0.034977 0.487598
vt 0.032983 0.501343
vt 0.032983 0.487598
vt 0.032236 0.497919
vt 0.032236 0.487598
vt 0.03285 0.494496
vt 0.03285 0.487598
vt 0.034733 0.491594
vt 0.034733 0.487598
vt 0.037597 0.489655
vt 0.037597 0.487598
vt 0.041006 0.488974
vt 0.041006 0.487598
vt 0.044442 0.489655
vt 0.044442 0.487598
vt 0.047381 0.487598
vt 0.047381 0.491594
vt 0.049376 0.487598
vt 0.049376 0.494496
vt 0.050123 0.497919
vt 0.050123 0.487598
vt 0.049508 0.501343
vt 0.049508 0.487598
vt 0.040903 0.800922
vt 0.032709 0.801834
vt 0.052707 0.838141
vt 0.025487 0.805811
vt 0.045484 0.842119
vt 0.020337 0.81225
vt 0.03729 0.84303
vt 0.018043 0.82017
vt 0.029371 0.840736
vt 0.018954 0.828364
vt 0.022932 0.835586
vt 0.057857 0.831702
vt 0.048823 0.803216
vt 0.06015 0.823783
vt 0.055262 0.808366
vt 0.059239 0.815588
vt 0.097098 0.500202
vt 0.097908 0.500202
vt 0.100043 0.500202
vt 0.09355 0.500202
vt 0.095278 0.500202
vt 0.090857 0.500202
vt 0.094861 0.500202
vt 0.09024 0.500202
vt 0.095911 0.500202
vt 0.091793 0.500202
vt 0.098266 0.500202
vt 0.095279 0.500202
vt 0.101569 0.500202
vt 0.100167 0.500202
vt 0.105318 0.500202
vt 0.105714 0.500202
vt 0.10894 0.500202
vt 0.111075 0.500202
vt 0.111885 0.500202
vt 0.115433 0.500202
vt 0.113704 0.500202
vt 0.118125 0.500202
vt 0.114121 0.500202
vt 0.118742 0.500202
vt 0.113072 0.500202
vt 0.117189 0.500202
vt 0.110716 0.500202
vt 0.113703 0.500202
vt 0.107413 0.500202
vt 0.108815 0.500202
vt 0.103665 0.500202
vt 0.103268 0.500202
vt 0.097908 0.527053
vt 0.103268 0.527053
vt 0.095442 0.527053
vt 0.09355 0.527053
vt 0.089451 0.527053
vt 0.090857 0.527053
vt 0.08575 0.527053
vt 0.09024 0.527053
vt 0.084902 0.527053
vt 0.091793 0.527053
vt 0.087036 0.527053
vt 0.095279 0.527053
vt 0.091828 0.527053
vt 0.100167 0.527053
vt 0.098548 0.527053
vt 0.105714 0.527053
vt 0.106172 0.527053
vt 0.111075 0.527053
vt 0.113541 0.527053
vt 0.115433 0.527053
vt 0.119532 0.527053
vt 0.118125 0.527053
vt 0.123233 0.527053
vt 0.118742 0.527053
vt 0.124081 0.527053
vt 0.117189 0.527053
vt 0.121946 0.527053
vt 0.113703 0.527053
vt 0.117155 0.527053
vt 0.108815 0.527053
vt 0.110435 0.527053
vt 0.10281 0.527053
vt 0.048545 0.59564
vt 0.049145 0.599433
vt 0.050317 0.597339
vt 0.046856 0.597213
vt 0.047658 0.593158
vt 0.045722 0.593988
vt 0.047773 0.59028
vt 0.045885 0.590264
vt 0.048857 0.587439
vt 0.047294 0.586598
vt 0.050741 0.585048
vt 0.049728 0.583516
vt 0.053147 0.583453
vt 0.05283 0.581457
vt 0.055725 0.582887
vt 0.056158 0.580719
vt 0.058099 0.583441
vt 0.059229 0.581422
vt 0.059912 0.585049
vt 0.061587 0.583489
vt 0.060881 0.587486
vt 0.062857 0.586638
vt 0.060839 0.590391
vt 0.062818 0.590408
vt 0.059778 0.593316
vt 0.061448 0.594215
vt 0.057852 0.595798
vt 0.058945 0.597449
vt 0.055366 0.597439
vt 0.055706 0.599584
vt 0.052714 0.597977
vt 0.052255 0.600277
vt 0.085001 0.579453
vt 0.095834 0.579745
vt 0.092764 0.579453
vt 0.090103 0.579745
vt 0.080205 0.579453
vt 0.086563 0.579745
vt 0.079106 0.579453
vt 0.085752 0.579745
vt 0.081872 0.579453
vt 0.087793 0.579745
vt 0.088081 0.579453
vt 0.092377 0.579745
vt 0.096789 0.579453
vt 0.098805 0.579745
vt 0.106669 0.579453
vt 0.106099 0.579745
vt 0.116218 0.579453
vt 0.113148 0.579745
vt 0.123982 0.579453
vt 0.118879 0.579745
vt 0.128778 0.579453
vt 0.12242 0.579745
vt 0.129877 0.579453
vt 0.123231 0.579745
vt 0.127111 0.579453
vt 0.121189 0.579745
vt 0.120901 0.579453
vt 0.116605 0.579745
vt 0.112193 0.579453
vt 0.110177 0.579745
vt 0.102313 0.579453
vt 0.102883 0.579745
vt 0.039539 0.577087
vt 0.027832 0.59836
vt 0.039539 0.59836
vt 0.027832 0.577087
vt 0.051653 0.59836
vt 0.051653 0.577087
vt 0.06233 0.59836
vt 0.06233 0.577087
vt 0.069943 0.59836
vt 0.069943 0.577087
vt 0.073334 0.59836
vt 0.073334 0.577087
vt 0.071987 0.59836
vt 0.071987 0.577087
vt 0.066107 0.59836
vt 0.066107 0.577087
vt 0.056588 0.59836
vt 0.056588 0.577087
vt 0.044881 0.59836
vt 0.044881 0.577087
vt 0.032767 0.59836
vt 0.032767 0.577087
vt 0.022091 0.59836
vt 0.022091 0.577087
vt 0.014477 0.59836
vt 0.014477 0.577087
vt 0.011086 0.59836
vt 0.011086 0.577087
vt 0.012433 0.59836
vt 0.012433 0.577087
vt 0.018314 0.59836
vt 0.018314 0.577087
vt 0.041906 0.529034
vt 0.035802 0.558657
vt 0.041906 0.558657
vt 0.035802 0.529034
vt 0.048222 0.558657
vt 0.048222 0.529034
vt 0.053788 0.558657
vt 0.053788 0.529034
vt 0.057757 0.558657
vt 0.057757 0.529034
vt 0.059525 0.558657
vt 0.059525 0.529034
vt 0.058823 0.558657
vt 0.058823 0.529034
vt 0.055757 0.558657
vt 0.055757 0.529034
vt 0.050794 0.558657
vt 0.050794 0.529034
vt 0.044691 0.558657
vt 0.044691 0.529034
vt 0.038375 0.558657
vt 0.038375 0.529034
vt 0.032808 0.558657
vt 0.032808 0.529034
vt 0.028839 0.558657
vt 0.028839 0.529034
vt 0.027071 0.558657
vt 0.027071 0.529034
vt 0.027773 0.558657
vt 0.027773 0.529034
vt 0.030839 0.558657
vt 0.030839 0.529034
vt 0.103665 0.482271
vt 0.100043 0.482271
vt 0.107413 0.482271
vt 0.110716 0.482271
vt 0.113072 0.482271
vt 0.114121 0.482271
vt 0.113704 0.482271
vt 0.111885 0.482271
vt 0.10894 0.482271
vt 0.105318 0.482271
vt 0.101569 0.482271
vt 0.098266 0.482271
vt 0.095911 0.482271
vt 0.094861 0.482271
vt 0.095278 0.482271
vt 0.097098 0.482271
vt 0.066496 0.576763
vt 0.060254 0.594432
vt 0.066496 0.594432
vt 0.060254 0.576763
vt 0.068833 0.594432
vt 0.068833 0.576763
vt 0.06691 0.594432
vt 0.06691 0.576763
vt 0.061019 0.594432
vt 0.061019 0.576763
vt 0.052057 0.594432
vt 0.052057 0.576763
vt 0.041389 0.594432
vt 0.041389 0.576763
vt 0.030638 0.594432
vt 0.030638 0.576763
vt 0.021442 0.594432
vt 0.021442 0.576763
vt 0.0152 0.594432
vt 0.0152 0.576763
vt 0.012863 0.594432
vt 0.012863 0.576763
vt 0.014787 0.594432
vt 0.014787 0.576763
vt 0.020678 0.594432
vt 0.020678 0.576763
vt 0.029639 0.594432
vt 0.029639 0.576763
vt 0.040308 0.594432
vt 0.040308 0.576763
vt 0.051058 0.594432
vt 0.051058 0.576763
vt 0.052721 0.5683
vt 0.049832 0.576763
vt 0.052721 0.576763
vt 0.049832 0.5683
vt 0.053803 0.576763
vt 0.053803 0.5683
vt 0.052913 0.576763
vt 0.052913 0.5683
vt 0.050186 0.576763
vt 0.050186 0.5683
vt 0.046037 0.576763
vt 0.046037 0.5683
vt 0.041098 0.576763
vt 0.041098 0.5683
vt 0.036122 0.576763
vt 0.036122 0.5683
vt 0.031864 0.576763
vt 0.031864 0.5683
vt 0.028975 0.576763
vt 0.028975 0.5683
vt 0.027893 0.576763
vt 0.027893 0.5683
vt 0.028783 0.576763
vt 0.028783 0.5683
vt 0.031511 0.576763
vt 0.031511 0.5683
vt 0.035659 0.576763
vt 0.035659 0.5683
vt 0.040598 0.576763
vt 0.040598 0.5683
vt 0.045575 0.576763
vt 0.045575 0.5683
vt 0.122342 0.624297
vt 0.118603 0.599897
vt 0.122611 0.599941
vt 0.118334 0.624252
vt 0.118603 0.599897
vt 0.122611 0.599941
vt 0.118334 0.624252
vt 0.122342 0.624297
vt 0.09792 0.619888
vt 0.10146 0.622142
vt 0.09792 0.619888
vt 0.10146 0.622142
vt 0.095512 0.616451
vt 0.095512 0.616451
vt 0.094602 0.612354
vt 0.094602 0.612354
vt 0.095329 0.608221
vt 0.095329 0.608221
vt 0.097583 0.604681
vt 0.097583 0.604681
vt 0.105594 0.622869
vt 0.105594 0.622869
vt 0.109691 0.621959
vt 0.109691 0.621959
vt 0.113127 0.619551
vt 0.113127 0.619551
vt 0.115381 0.616011
vt 0.115381 0.616011
vt 0.116108 0.611877
vt 0.116108 0.611877
vt 0.115199 0.60778
vt 0.115199 0.60778
vt 0.11279 0.604343
vt 0.11279 0.604343
vt 0.10925 0.60209
vt 0.110152 0.602664
vt 0.10925 0.60209
vt 0.105117 0.601363
vt 0.105117 0.601363
vt 0.10102 0.602272
vt 0.10102 0.602272
vt 0.095102 0.616832
vt 0.099903 0.579973
vt 0.095149 0.579967
vt 0.09985 0.621585
vt 0.106342 0.623324
vt 0.106398 0.579982
vt 0.09337 0.610338
vt 0.093409 0.579965
vt 0.095118 0.603844
vt 0.095149 0.579967
vt 0.112839 0.621581
vt 0.112892 0.57999
vt 0.117599 0.616826
vt 0.117646 0.579996
vt 0.099903 0.579973
vt 0.099878 0.599088
vt 0.106397 0.579982
vt 0.106375 0.597346
vt 0.112892 0.57999
vt 0.112867 0.599084
vt 0.117615 0.603837
vt 0.117646 0.579996
vt 0.119347 0.610331
vt 0.119386 0.579998
vt 0.096233 0.579969
vt 0.09466 0.579967
vt 0.100529 0.579974
vt 0.106397 0.579982
vt 0.112266 0.579989
vt 0.116562 0.579995
vt 0.118134 0.579997
vt 0.116562 0.579995
vt 0.112266 0.579989
vt 0.106398 0.579982
vt 0.100529 0.579974
vt 0.096233 0.579969
vt 0.099452 0.622172
vt 0.094556 0.580015
vt 0.099277 0.579995
vt 0.094711 0.617463
vt 0.092828 0.580022
vt 0.092956 0.611019
vt 0.094556 0.580015
vt 0.094658 0.604565
vt 0.105908 0.623884
vt 0.105726 0.579968
vt 0.112175 0.579942
vt 0.11235 0.622139
vt 0.117051 0.617406
vt 0.116896 0.579922
vt 0.118753 0.610952
vt 0.118624 0.579915
vt 0.116998 0.604508
vt 0.116896 0.579922
vt 0.112257 0.599799
vt 0.112175 0.579942
vt 0.105801 0.598088
vt 0.105726 0.579968
vt 0.099359 0.599832
vt 0.099277 0.579995
vt 0.099867 0.579993
vt 0.095577 0.58001
vt 0.094007 0.580017
vt 0.095577 0.58001
vt 0.105726 0.579968
vt 0.111586 0.579944
vt 0.115875 0.579926
vt 0.117445 0.57992
vt 0.115875 0.579926
vt 0.111586 0.579944
vt 0.105726 0.579968
vt 0.099867 0.579993
vt 0.042031 0.75371
vt 0.048273 0.597331
vt 0.044397 0.597267
vt 0.045907 0.753774
vt 0.051202 0.753862
vt 0.053567 0.597419
vt 0.056496 0.75395
vt 0.058862 0.597507
vt 0.060372 0.754014
vt 0.062737 0.597571
vt 0.06179 0.754038
vt 0.064156 0.597595
vt 0.060372 0.754014
vt 0.062737 0.597571
vt 0.056496 0.75395
vt 0.058862 0.597507
vt 0.051201 0.753862
vt 0.053567 0.597419
vt 0.045907 0.753774
vt 0.048273 0.597331
vt 0.042031 0.75371
vt 0.044397 0.597267
vt 0.040613 0.753686
vt 0.042978 0.597243
f 2/2/2 1/1/1 3/3/3
f 4/4/4 1/1/1 2/2/2
f 3/3/3 5/5/5 2/2/2
f 6/6/6 5/5/5 3/3/3
f 7/7/7 6/6/6 3/3/3
f 8/8/8 6/6/6 7/7/7
f 9/9/9 8/8/8 7/7/7
f 10/10/10 9/9/9 7/7/7
f 6/6/6 8/8/8 11/11/11
f 11/11/11 8/8/8 12/12/12
f 9/9/9 12/12/12 8/8/8
f 12/12/12 13/13/13 11/11/11
f 14/14/14 13/13/13 12/12/12
f 14/14/14 3/3/3 13/13/13
f 7/7/7 3/3/3 14/14/14
f 15/15/15 14/14/14 12/12/12
f 15/15/15 12/12/12 9/9/9
f 10/10/10 15/15/15 9/9/9
f 15/15/15 16/16/16 14/14/14
f 16/16/16 15/15/15 10/10/10
f 11/11/11 13/13/13 17/17/17
f 17/17/17 6/6/6 11/11/11
f 5/5/5 6/6/6 17/17/17
f 13/13/13 18/18/18 17/17/17
f 18/18/18 5/5/5 17/17/17
f 18/18/18 13/13/13 19/19/19
f 4/4/4 18/18/18 19/19/19
f 19/19/19 13/13/13 20/20/20
f 2/2/2 5/5/5 18/18/18
f 2/2/2 18/18/18 4/4/4
f 22/22/22 21/21/21 23/23/23
f 24/24/24 21/21/21 22/22/22
f 21/21/21 25/25/25 23/23/23
f 23/23/23 25/25/25 26/26/26
f 25/25/25 27/27/27 26/26/26
f 26/26/26 27/27/27 28/28/28
f 27/27/27 29/29/29 28/28/28
f 28/28/28 29/29/29 30/30/30
f 28/28/28 30/30/30 31/31/31
f 31/31/31 30/30/30 32/32/32
f 31/31/31 32/32/32 33/33/33
f 25/25/25 33/33/33 27/27/27
f 34/34/34 31/31/31 33/33/33
f 34/34/34 33/33/33 25/25/25
f 21/21/21 34/34/34 25/25/25
f 35/35/35 31/31/31 34/34/34
f 35/35/35 28/28/28 31/31/31
f 26/26/26 28/28/28 35/35/35
f 36/36/36 35/35/35 34/34/34
f 36/36/36 34/34/34 21/21/21
f 24/24/24 36/36/36 21/21/21
f 37/37/37 35/35/35 36/36/36
f 37/37/37 26/26/26 35/35/35
f 23/23/23 26/26/26 37/37/37
f 38/38/38 37/37/37 36/36/36
f 38/38/38 36/36/36 24/24/24
f 39/39/39 37/37/37 38/38/38
f 33/33/33 32/32/32 40/40/40
f 27/27/27 40/40/40 29/29/29
f 33/33/33 40/40/40 27/27/27
f 39/39/39 23/23/23 37/37/37
f 22/22/22 23/23/23 39/39/39
f 42/42/42 41/41/41 43/43/43
f 44/44/44 41/41/41 42/42/42
f 42/42/42 45/45/45 44/44/44
f 44/44/44 45/45/45 46/46/46
f 44/44/44 46/46/46 47/47/47
f 47/47/47 46/46/46 48/48/48
f 47/47/47 48/48/48 49/49/49
f 47/47/47 49/49/49 50/50/50
f 51/51/51 48/48/48 46/46/46
f 52/52/52 48/48/48 51/51/51
f 48/48/48 52/52/52 49/49/49
f 51/51/51 53/53/53 52/52/52
f 52/52/52 53/53/53 54/54/54
f 54/54/54 44/44/44 47/47/47
f 53/53/53 44/44/44 54/54/54
f 52/52/52 54/54/54 55/55/55
f 49/49/49 52/52/52 55/55/55
f 49/49/49 55/55/55 50/50/50
f 54/54/54 56/56/56 55/55/55
f 50/50/50 55/55/55 56/56/56
f 57/57/57 53/53/53 51/51/51
f 57/57/57 46/46/46 45/45/45
f 51/51/51 46/46/46 57/57/57
f 57/57/57 58/58/58 53/53/53
f 57/57/57 45/45/45 58/58/58
f 59/59/59 53/53/53 58/58/58
f 60/60/60 53/53/53 59/59/59
f 58/58/58 45/45/45 42/42/42
f 43/43/43 58/58/58 42/42/42
f 59/59/59 58/58/58 43/43/43
f 62/62/62 61/61/61 63/63/63
f 64/64/64 61/61/61 62/62/62
f 61/61/61 65/65/65 63/63/63
f 63/63/63 65/65/65 66/66/66
f 65/65/65 67/67/67 66/66/66
f 68/68/68 67/67/67 65/65/65
f 67/67/67 68/68/68 69/69/69
f 69/69/69 68/68/68 70/70/70
f 70/70/70 71/71/71 69/69/69
f 72/72/72 71/71/71 70/70/70
f 73/73/73 71/71/71 72/72/72
f 74/74/74 71/71/71 73/73/73
f 75/75/75 67/67/67 69/69/69
f 76/76/76 67/67/67 75/75/75
f 67/67/67 76/76/76 66/66/66
f 77/77/77 76/76/76 75/75/75
f 70/70/70 77/77/77 72/72/72
f 75/75/75 78/78/78 77/77/77
f 72/72/72 77/77/77 78/78/78
f 79/79/79 78/78/78 75/75/75
f 69/69/69 79/79/79 75/75/75
f 71/71/71 79/79/79 69/69/69
f 74/74/74 79/79/79 71/71/71
f 80/80/80 78/78/78 79/79/79
f 80/80/80 79/79/79 74/74/74
f 81/81/81 78/78/78 80/80/80
f 81/81/81 72/72/72 78/78/78
f 73/73/73 72/72/72 81/81/81
f 82/82/82 76/76/76 77/77/77
f 70/70/70 82/82/82 77/77/77
f 68/68/68 82/82/82 70/70/70
f 76/76/76 82/82/82 83/83/83
f 83/83/83 82/82/82 84/84/84
f 85/85/85 83/83/83 84/84/84
f 86/86/86 83/83/83 85/85/85
f 87/87/87 86/86/86 85/85/85
f 88/88/88 86/86/86 87/87/87
f 68/68/68 84/84/84 82/82/82
f 65/65/65 84/84/84 68/68/68
f 66/66/66 76/76/76 83/83/83
f 86/86/86 66/66/66 83/83/83
f 63/63/63 66/66/66 86/86/86
f 88/88/88 63/63/63 86/86/86
f 61/61/61 84/84/84 65/65/65
f 85/85/85 84/84/84 61/61/61
f 64/64/64 85/85/85 61/61/61
f 87/87/87 85/85/85 64/64/64
f 62/62/62 63/63/63 88/88/88
f 90/90/90 89/89/89 91/91/91
f 92/92/92 89/89/89 90/90/90
f 92/92/92 93/93/93 89/89/89
f 94/94/94 93/93/93 92/92/92
f 94/94/94 95/95/95 93/93/93
f 96/96/96 95/95/95 94/94/94
f 96/96/96 97/97/97 95/95/95
f 98/98/98 97/97/97 96/96/96
f 98/98/98 99/99/99 97/97/97
f 100/100/100 99/99/99 98/98/98
f 100/100/100 101/101/101 99/99/99
f 102/102/102 101/101/101 100/100/100
f 102/102/102 103/103/103 101/101/101
f 104/104/104 103/103/103 102/102/102
f 104/104/104 105/105/105 103/103/103
f 106/106/106 105/105/105 104/104/104
f 106/106/106 107/107/107 105/105/105
f 108/108/108 107/107/107 106/106/106
f 108/108/108 109/109/109 107/107/107
f 110/110/110 109/109/109 108/108/108
f 110/110/110 111/111/111 109/109/109
f 112/112/112 111/111/111 110/110/110
f 112/112/112 113/113/113 111/111/111
f 114/114/114 113/113/113 112/112/112
f 114/114/114 115/115/115 113/113/113
f 116/116/116 115/115/115 114/114/114
f 116/116/116 117/117/117 115/115/115
f 118/118/118 117/117/117 116/116/116
f 118/118/118 119/119/119 117/117/117
f 120/120/120 119/119/119 118/118/118
f 90/90/90 119/119/119 120/120/120
f 91/91/91 119/119/119 90/90/90
f 122/122/122 121/121/121 123/123/123
f 124/124/124 121/121/121 122/122/122
f 124/124/124 125/125/125 121/121/121
f 126/126/126 125/125/125 124/124/124
f 126/126/126 127/127/127 125/125/125
f 128/128/128 127/127/127 126/126/126
f 128/128/128 129/129/129 127/127/127
f 130/130/130 129/129/129 128/128/128
f 130/130/130 131/131/131 129/129/129
f 132/132/132 131/131/131 130/130/130
f 132/132/132 133/133/133 131/131/131
f 134/134/134 133/133/133 132/132/132
f 134/134/134 135/135/135 133/133/133
f 136/136/136 135/135/135 134/134/134
f 136/136/136 137/137/137 135/135/135
f 138/138/138 137/137/137 136/136/136
f 138/138/138 139/139/139 137/137/137
f 140/140/140 139/139/139 138/138/138
f 140/140/140 141/141/141 139/139/139
f 142/142/142 141/141/141 140/140/140
f 142/142/142 143/143/143 141/141/141
f 144/144/144 143/143/143 142/142/142
f 144/144/144 145/145/145 143/143/143
f 146/146/146 145/145/145 144/144/144
f 146/146/146 147/147/147 145/145/145
f 148/148/148 147/147/147 146/146/146
f 148/148/148 149/149/149 147/147/147
f 150/150/150 149/149/149 148/148/148
f 150/150/150 151/151/151 149/149/149
f 152/152/152 151/151/151 150/150/150
f 122/122/122 151/151/151 152/152/152
f 123/123/123 151/151/151 122/122/122
f 154/154/154 153/153/153 155/155/155
f 156/156/156 153/153/153 154/154/154
f 153/153/153 156/156/156 157/157/157
f 157/157/157 156/156/156 158/158/158
f 157/157/157 158/158/158 159/159/159
f 159/159/159 158/158/158 160/160/160
f 154/154/154 155/155/155 161/161/161
f 161/161/161 155/155/155 162/162/162
f 161/161/161 162/162/162 163/163/163
f 163/163/163 162/162/162 164/164/164
f 163/163/163 164/164/164 165/165/165
f 165/165/165 164/164/164 166/166/166
f 165/165/165 166/166/166 167/167/167
f 167/167/167 166/166/166 168/168/168
f 167/167/167 168/168/168 169/169/169
f 169/169/169 168/168/168 170/170/170
f 169/169/169 170/170/170 171/171/171
f 171/171/171 170/170/170 172/172/172
f 171/171/171 172/172/172 173/173/173
f 173/173/173 172/172/172 174/174/174
f 173/173/173 174/174/174 175/175/175
f 175/175/175 174/174/174 176/176/176
f 176/176/176 177/177/177 175/175/175
f 175/175/175 177/177/177 178/178/178
f 177/177/177 179/179/179 178/178/178
f 178/178/178 179/179/179 180/180/180
f 180/180/180 179/179/179 181/181/181
f 181/181/181 179/179/179 182/182/182
f 181/181/181 182/182/182 183/183/183
f 183/183/183 182/182/182 184/184/184
f 183/183/183 184/184/184 160/160/160
f 160/160/160 184/184/184 159/159/159
f 186/186/186 185/185/185 187/187/187
f 187/187/187 188/188/188 186/186/186
f 189/189/189 188/188/188 187/187/187
f 189/189/189 190/190/190 188/188/188
f 191/191/191 190/190/190 189/189/189
f 190/190/190 191/191/191 192/192/192
f 192/192/192 191/191/191 193/193/193
f 193/193/193 194/194/194 192/192/192
f 195/195/195 194/194/194 193/193/193
f 187/187/187 185/185/185 196/196/196
f 196/196/196 185/185/185 197/197/197
f 196/196/196 197/197/197 198/198/198
f 198/198/198 197/197/197 199/199/199
f 199/199/199 200/200/200 198/198/198
f 202/202/202 201/201/201 203/203/203
f 204/204/204 201/201/201 202/202/202
f 204/204/204 205/205/205 201/201/201
f 206/206/206 205/205/205 204/204/204
f 206/206/206 207/207/207 205/205/205
f 208/208/208 207/207/207 206/206/206
f 208/208/208 209/209/209 207/207/207
f 210/210/210 209/209/209 208/208/208
f 210/210/210 211/211/211 209/209/209
f 212/212/212 211/211/211 210/210/210
f 212/212/212 213/213/213 211/211/211
f 214/214/214 213/213/213 212/212/212
f 214/214/214 215/215/215 213/213/213
f 216/216/216 215/215/215 214/214/214
f 216/216/216 217/217/217 215/215/215
f 218/218/218 217/217/217 216/216/216
f 218/218/218 219/219/219 217/217/217
f 220/220/220 219/219/219 218/218/218
f 220/220/220 221/221/221 219/219/219
f 222/222/222 221/221/221 220/220/220
f 222/222/222 223/223/223 221/221/221
f 224/224/224 223/223/223 222/222/222
f 224/224/224 225/225/225 223/223/223
f 226/226/226 225/225/225 224/224/224
f 226/226/226 227/227/227 225/225/225
f 228/228/228 227/227/227 226/226/226
f 228/228/228 229/229/229 227/227/227
f 230/230/230 229/229/229 228/228/228
f 230/230/230 231/231/231 229/229/229
f 232/232/232 231/231/231 230/230/230
f 202/202/202 231/231/231 232/232/232
f 203/203/203 231/231/231 202/202/202
f 202/202/202 232/232/232 233/233/233
f 233/233/233 232/232/232 234/234/234
f 233/233/233 234/234/234 235/235/235
f 235/235/235 236/236/236 233/233/233
f 237/237/237 236/236/236 235/235/235
f 237/237/237 238/238/238 236/236/236
f 239/239/239 238/238/238 237/237/237
f 239/239/239 240/240/240 238/238/238
f 241/241/241 240/240/240 239/239/239
f 241/241/241 242/242/242 240/240/240
f 243/243/243 242/242/242 241/241/241
f 243/243/243 244/244/244 242/242/242
f 245/245/245 244/244/244 243/243/243
f 245/245/245 246/246/246 244/244/244
f 247/247/247 246/246/246 245/245/245
f 247/247/247 248/248/248 246/246/246
f 249/249/249 248/248/248 247/247/247
f 249/249/249 250/250/250 248/248/248
f 251/251/251 250/250/250 249/249/249
f 251/251/251 252/252/252 250/250/250
f 253/253/253 252/252/252 251/251/251
f 253/253/253 254/254/254 252/252/252
f 255/255/255 254/254/254 253/253/253
f 255/255/255 256/256/256 254/254/254
f 257/257/257 256/256/256 255/255/255
f 257/257/257 258/258/258 256/256/256
f 259/259/259 258/258/258 257/257/257
f 259/259/259 260/260/260 258/258/258
f 261/261/261 260/260/260 259/259/259
f 261/261/261 262/262/262 260/260/260
f 263/263/263 262/262/262 261/261/261
f 263/263/263 234/234/234 262/262/262
f 264/264/264 234/234/234 263/263/263
f 235/235/235 234/234/234 264/264/264
f 234/234/234 232/232/232 262/262/262
f 262/262/262 232/232/232 230/230/230
f 262/262/262 230/230/230 260/260/260
f 260/260/260 230/230/230 228/228/228
f 260/260/260 228/228/228 258/258/258
f 258/258/258 228/228/228 226/226/226
f 258/258/258 226/226/226 256/256/256
f 256/256/256 226/226/226 224/224/224
f 256/256/256 224/224/224 254/254/254
f 254/254/254 224/224/224 222/222/222
f 254/254/254 222/222/222 252/252/252
f 252/252/252 222/222/222 220/220/220
f 252/252/252 220/220/220 250/250/250
f 250/250/250 220/220/220 218/218/218
f 250/250/250 218/218/218 248/248/248
f 248/248/248 218/218/218 216/216/216
f 248/248/248 216/216/216 246/246/246
f 246/246/246 216/216/216 214/214/214
f 246/246/246 214/214/214 244/244/244
f 244/244/244 214/214/214 212/212/212
f 244/244/244 212/212/212 242/242/242
f 242/242/242 212/212/212 210/210/210
f 242/242/242 210/210/210 240/240/240
f 240/240/240 210/210/210 208/208/208
f 240/240/240 208/208/208 238/238/238
f 238/238/238 208/208/208 206/206/206
f 238/238/238 206/206/206 236/236/236
f 236/236/236 206/206/206 204/204/204
f 236/236/236 204/204/204 233/233/233
f 233/233/233 204/204/204 202/202/202
f 266/266/266 265/265/265 267/267/267
f 268/268/268 265/265/265 266/266/266
f 268/268/268 269/269/269 265/265/265
f 270/270/270 269/269/269 268/268/268
f 270/270/270 271/271/271 269/269/269
f 272/272/272 271/271/271 270/270/270
f 272/272/272 273/273/273 271/271/271
f 274/274/274 273/273/273 272/272/272
f 274/274/274 275/275/275 273/273/273
f 276/276/276 275/275/275 274/274/274
f 276/276/276 277/277/277 275/275/275
f 278/278/278 277/277/277 276/276/276
f 278/278/278 279/279/279 277/277/277
f 280/280/280 279/279/279 278/278/278
f 280/280/280 281/281/281 279/279/279
f 282/282/282 281/281/281 280/280/280
f 282/282/282 283/283/283 281/281/281
f 284/284/284 283/283/283 282/282/282
f 284/284/284 285/285/285 283/283/283
f 286/286/286 285/285/285 284/284/284
f 286/286/286 287/287/287 285/285/285
f 288/288/288 287/287/287 286/286/286
f 288/288/288 289/289/289 287/287/287
f 290/290/290 289/289/289 288/288/288
f 290/290/290 291/291/291 289/289/289
f 292/292/292 291/291/291 290/290/290
f 292/292/292 293/293/293 291/291/291
f 294/294/294 293/293/293 292/292/292
f 294/294/294 295/295/295 293/293/293
f 296/296/296 295/295/295 294/294/294
f 266/266/266 295/295/295 296/296/296
f 267/267/267 295/295/295 266/266/266
f 298/298/298 297/297/297 299/299/299
f 300/300/300 297/297/297 298/298/298
f 300/300/300 301/301/301 297/297/297
f 302/302/302 301/301/301 300/300/300
f 302/302/302 303/303/303 301/301/301
f 304/304/304 303/303/303 302/302/302
f 304/304/304 305/305/305 303/303/303
f 306/306/306 305/305/305 304/304/304
f 306/306/306 307/307/307 305/305/305
f 308/308/308 307/307/307 306/306/306
f 308/308/308 309/309/309 307/307/307
f 310/310/310 309/309/309 308/308/308
f 310/310/310 311/311/311 309/309/309
f 312/312/312 311/311/311 310/310/310
f 312/312/312 313/313/313 311/311/311
f 314/314/314 313/313/313 312/312/312
f 314/314/314 315/315/315 313/313/313
f 316/316/316 315/315/315 314/314/314
f 316/316/316 317/317/317 315/315/315
f 318/318/318 317/317/317 316/316/316
f 318/318/318 319/319/319 317/317/317
f 320/320/320 319/319/319 318/318/318
f 320/320/320 321/321/321 319/319/319
f 322/322/322 321/321/321 320/320/320
f 322/322/322 323/323/323 321/321/321
f 324/324/324 323/323/323 322/322/322
f 324/324/324 325/325/325 323/323/323
f 326/326/326 325/325/325 324/324/324
f 326/326/326 327/327/327 325/325/325
f 328/328/328 327/327/327 326/326/326
f 298/298/298 327/327/327 328/328/328
f 299/299/299 327/327/327 298/298/298
f 330/330/330 329/329/329 331/331/331
f 332/332/332 329/329/329 330/330/330
f 331/331/331 329/329/329 333/333/333
f 333/333/333 329/329/329 334/334/334
f 333/333/333 334/334/334 335/335/335
f 335/335/335 334/334/334 336/336/336
f 335/335/335 336/336/336 337/337/337
f 337/337/337 336/336/336 338/338/338
f 337/337/337 338/338/338 339/339/339
f 339/339/339 338/338/338 340/340/340
f 339/339/339 340/340/340 341/341/341
f 341/341/341 340/340/340 342/342/342
f 341/341/341 342/342/342 343/343/343
f 343/343/343 342/342/342 344/344/344
f 343/343/343 344/344/344 345/345/345
f 345/345/345 344/344/344 346/346/346
f 345/345/345 346/346/346 347/347/347
f 347/347/347 346/346/346 348/348/348
f 347/347/347 348/348/348 349/349/349
f 349/349/349 348/348/348 350/350/350
f 349/349/349 350/350/350 351/351/351
f 351/351/351 350/350/350 352/352/352
f 351/351/351 352/352/352 353/353/353
f 353/353/353 352/352/352 354/354/354
f 353/353/353 354/354/354 355/355/355
f 355/355/355 354/354/354 356/356/356
f 355/355/355 356/356/356 357/357/357
f 357/357/357 356/356/356 358/358/358
f 357/357/357 358/358/358 359/359/359
f 359/359/359 358/358/358 360/360/360
f 359/359/359 360/360/360 330/330/330
f 330/330/330 360/360/360 332/332/332
f 362/362/362 361/361/361 363/363/363
f 364/364/364 361/361/361 362/362/362
f 363/363/363 361/361/361 365/365/365
f 365/365/365 361/361/361 366/366/366
f 365/365/365 366/366/366 367/367/367
f 367/367/367 366/366/366 368/368/368
f 367/367/367 368/368/368 369/369/369
f 369/369/369 368/368/368 370/370/370
f 369/369/369 370/370/370 371/371/371
f 371/371/371 370/370/370 372/372/372
f 371/371/371 372/372/372 373/373/373
f 373/373/373 372/372/372 374/374/374
f 373/373/373 374/374/374 375/375/375
f 375/375/375 374/374/374 376/376/376
f 375/375/375 376/376/376 377/377/377
f 377/377/377 376/376/376 378/378/378
f 377/377/377 378/378/378 379/379/379
f 379/379/379 378/378/378 380/380/380
f 379/379/379 380/380/380 381/381/381
f 381/381/381 380/380/380 382/382/382
f 381/381/381 382/382/382 383/383/383
f 383/383/383 382/382/382 384/384/384
f 383/383/383 384/384/384 385/385/385
f 385/385/385 384/384/384 386/386/386
f 385/385/385 386/386/386 387/387/387
f 387/387/387 386/386/386 388/388/388
f 387/387/387 388/388/388 389/389/389
f 389/389/389 388/388/388 390/390/390
f 389/389/389 390/390/390 391/391/391
f 391/391/391 390/390/390 392/392/392
f 391/391/391 392/392/392 362/362/362
f 362/362/362 392/392/392 364/364/364
f 203/203/203 393/393/393 231/231/231
f 394/394/394 393/393/393 203/203/203
f 231/231/231 393/393/393 229/229/229
f 229/229/229 393/393/393 395/395/395
f 229/229/229 395/395/395 227/227/227
f 227/227/227 395/395/395 396/396/396
f 227/227/227 396/396/396 225/225/225
f 225/225/225 396/396/396 397/397/397
f 225/225/225 397/397/397 223/223/223
f 223/223/223 397/397/397 398/398/398
f 223/223/223 398/398/398 221/221/221
f 221/221/221 398/398/398 399/399/399
f 221/221/221 399/399/399 219/219/219
f 219/219/219 399/399/399 400/400/400
f 219/219/219 400/400/400 217/217/217
f 217/217/217 400/400/400 401/401/401
f 217/217/217 401/401/401 215/215/215
f 215/215/215 401/401/401 402/402/402
f 215/215/215 402/402/402 213/213/213
f 213/213/213 402/402/402 403/403/403
f 213/213/213 403/403/403 211/211/211
f 211/211/211 403/403/403 404/404/404
f 211/211/211 404/404/404 209/209/209
f 209/209/209 404/404/404 405/405/405
f 209/209/209 405/405/405 207/207/207
f 207/207/207 405/405/405 406/406/406
f 207/207/207 406/406/406 205/205/205
f 205/205/205 406/406/406 407/407/407
f 205/205/205 407/407/407 201/201/201
f 201/201/201 407/407/407 408/408/408
f 201/201/201 408/408/408 203/203/203
f 203/203/203 408/408/408 394/394/394
f 410/410/410 409/409/409 411/411/411
f 412/412/412 409/409/409 410/410/410
f 411/411/411 409/409/409 413/413/413
f 413/413/413 409/409/409 414/414/414
f 413/413/413 414/414/414 415/415/415
f 415/415/415 414/414/414 416/416/416
f 415/415/415 416/416/416 417/417/417
f 417/417/417 416/416/416 418/418/418
f 417/417/417 418/418/418 419/419/419
f 419/419/419 418/418/418 420/420/420
f 419/419/419 420/420/420 421/421/421
f 421/421/421 420/420/420 422/422/422
f 421/421/421 422/422/422 423/423/423
f 423/423/423 422/422/422 424/424/424
f 423/423/423 424/424/424 425/425/425
f 425/425/425 424/424/424 426/426/426
f 425/425/425 426/426/426 427/427/427
f 427/427/427 426/426/426 428/428/428
f 427/427/427 428/428/428 429/429/429
f 429/429/429 428/428/428 430/430/430
f 429/429/429 430/430/430 431/431/431
f 431/431/431 430/430/430 432/432/432
f 431/431/431 432/432/432 433/433/433
f 433/433/433 432/432/432 434/434/434
f 433/433/433 434/434/434 435/435/435
f 435/435/435 434/434/434 436/436/436
f 435/435/435 436/436/436 437/437/437
f 437/437/437 436/436/436 438/438/438
f 437/437/437 438/438/438 439/439/439
f 439/439/439 438/438/438 440/440/440
f 439/439/439 440/440/440 410/410/410
f 410/410/410 440/440/440 412/412/412
f 442/442/442 441/441/441 443/443/443
f 444/444/444 441/441/441 442/442/442
f 443/443/443 441/441/441 445/445/445
f 445/445/445 441/441/441 446/446/446
f 445/445/445 446/446/446 447/447/447
f 447/447/447 446/446/446 448/448/448
f 447/447/447 448/448/448 449/449/449
f 449/449/449 448/448/448 450/450/450
f 449/449/449 450/450/450 451/451/451
f 451/451/451 450/450/450 452/452/452
f 451/451/451 452/452/452 453/453/453
f 453/453/453 452/452/452 454/454/454
f 453/453/453 454/454/454 455/455/455
f 455/455/455 454/454/454 456/456/456
f 455/455/455 456/456/456 457/457/457
f 457/457/457 456/456/456 458/458/458
f 457/457/457 458/458/458 459/459/459
f 459/459/459 458/458/458 460/460/460
f 459/459/459 460/460/460 461/461/461
f 461/461/461 460/460/460 462/462/462
f 461/461/461 462/462/462 463/463/463
f 463/463/463 462/462/462 464/464/464
f 463/463/463 464/464/464 465/465/465
f 465/465/465 464/464/464 466/466/466
f 465/465/465 466/466/466 467/467/467
f 467/467/467 466/466/466 468/468/468
f 467/467/467 468/468/468 469/469/469
f 469/469/469 468/468/468 470/470/470
f 469/469/469 470/470/470 471/471/471
f 471/471/471 470/470/470 472/472/472
f 471/471/471 472/472/472 442/442/442
f 442/442/442 472/472/472 444/444/444
f 474/474/474 473/473/473 475/475/475
f 476/476/476 473/473/473 474/474/474
f 474/474/474 475/475/475 477/477/477
f 477/477/477 476/476/476 474/474/474
f 477/477/477 475/475/475 478/478/478
f 479/479/479 473/473/473 476/476/476
f 479/479/479 476/476/476 477/477/477
f 480/480/480 473/473/473 479/479/479
f 480/480/480 475/475/475 473/473/473
f 478/478/478 475/475/475 480/480/480
f 482/482/482 481/481/481 483/483/483
f 484/484/484 481/481/481 482/482/482
f 481/481/481 485/485/485 483/483/483
f 483/483/483 485/485/485 486/486/486
f 486/486/486 485/485/485 487/487/487
f 487/487/487 485/485/485 488/488/488
f 487/487/487 488/488/488 489/489/489
f 489/489/489 488/488/488 490/490/490
f 489/489/489 490/490/490 491/491/491
f 491/491/491 490/490/490 492/492/492
f 482/482/482 493/493/493 484/484/484
f 494/494/494 493/493/493 482/482/482
f 494/494/494 495/495/495 493/493/493
f 496/496/496 495/495/495 494/494/494
f 496/496/496 497/497/497 495/495/495
f 498/498/498 497/497/497 496/496/496
f 498/498/498 499/499/499 497/497/497
f 500/500/500 499/499/499 498/498/498
f 500/500/500 501/501/501 499/499/499
f 502/502/502 501/501/501 500/500/500
f 502/502/502 503/503/503 501/501/501
f 504/504/504 503/503/503 502/502/502
f 504/504/504 505/505/505 503/503/503
f 506/506/506 505/505/505 504/504/504
f 506/506/506 507/507/507 505/505/505
f 508/508/508 507/507/507 506/506/506
f 509/509/509 507/507/507 508/508/508
f 509/509/509 510/510/510 507/507/507
f 511/511/511 510/510/510 509/509/509
f 511/511/511 512/512/512 510/510/510
f 513/513/513 512/512/512 511/511/511
f 513/513/513 492/492/492 512/512/512
f 491/491/491 492/492/492 513/513/513
f 515/515/515 514/514/514 516/516/516
f 517/517/517 514/514/514 515/515/515
f 515/515/515 518/518/518 517/517/517
f 519/519/519 518/518/518 515/515/515
f 514/514/514 520/520/520 516/516/516
f 516/516/516 520/520/520 521/521/521
f 520/520/520 522/522/522 521/521/521
f 521/521/521 522/522/522 523/523/523
f 519/519/519 524/524/524 518/518/518
f 524/524/524 517/517/517 518/518/518
f 514/514/514 517/517/517 524/524/524
f 525/525/525 524/524/524 519/519/519
f 525/525/525 526/526/526 524/524/524
f 526/526/526 514/514/514 524/524/524
f 520/520/520 514/514/514 526/526/526
f 527/527/527 526/526/526 525/525/525
f 522/522/522 528/528/528 523/523/523
f 529/529/529 528/528/528 522/522/522
f 529/529/529 530/530/530 528/528/528
f 531/531/531 530/530/530 529/529/529
f 531/531/531 532/532/532 530/530/530
f 533/533/533 532/532/532 531/531/531
f 531/531/531 529/529/529 533/533/533
f 533/533/533 534/534/534 532/532/532
f 529/529/529 522/522/522 534/534/534
f 533/533/533 529/529/529 534/534/534
f 532/532/532 534/534/534 535/535/535
f 526/526/526 527/527/527 536/536/536
f 534/534/534 522/522/522 536/536/536
f 536/536/536 527/527/527 537/537/537
f 534/534/534 537/537/537 535/535/535
f 536/536/536 537/537/537 534/534/534
f 528/528/528 538/538/538 523/523/523
f 539/539/539 523/523/523 538/538/538
f 540/540/540 538/538/538 528/528/528
f 530/530/530 540/540/540 528/528/528
f 541/541/541 540/540/540 530/530/530
f 532/532/532 541/541/541 530/530/530
f 542/542/542 541/541/541 532/532/532
f 535/535/535 542/542/542 532/532/532
f 543/543/543 542/542/542 535/535/535
f 537/537/537 543/543/543 535/535/535
f 544/544/544 543/543/543 537/537/537
f 527/527/527 544/544/544 537/537/537
f 545/545/545 544/544/544 527/527/527
f 525/525/525 545/545/545 527/527/527
f 546/546/546 545/545/545 525/525/525
f 519/519/519 546/546/546 525/525/525
f 547/547/547 546/546/546 519/519/519
f 515/515/515 547/547/547 519/519/519
f 548/548/548 547/547/547 515/515/515
f 515/515/515 549/549/549 548/548/548
f 539/539/539 549/549/549 521/521/521
f 521/521/521 549/549/549 516/516/516
f 516/516/516 549/549/549 515/515/515
f 521/521/521 523/523/523 539/539/539
f 551/551/551 550/550/550 552/552/552
f 553/553/553 550/550/550 551/551/551
f 554/554/554 553/553/553 551/551/551
f 555/555/555 553/553/553 554/554/554
f 556/556/556 555/555/555 554/554/554
f 557/557/557 555/555/555 556/556/556
f 558/558/558 552/552/552 550/550/550
f 559/559/559 552/552/552 558/558/558
f 558/558/558 560/560/560 559/559/559
f 561/561/561 560/560/560 558/558/558
f 561/561/561 550/550/550 553/553/553
f 558/558/558 550/550/550 561/561/561
f 561/561/561 562/562/562 560/560/560
f 562/562/562 553/553/553 555/555/555
f 561/561/561 553/553/553 562/562/562
f 560/560/560 562/562/562 563/563/563
f 564/564/564 563/563/563 562/562/562
f 564/564/564 555/555/555 557/557/557
f 562/562/562 555/555/555 564/564/564
f 565/565/565 563/563/563 564/564/564
f 566/566/566 565/565/565 564/564/564
f 564/564/564 557/557/557 566/566/566
f 567/567/567 565/565/565 566/566/566
f 568/568/568 567/567/567 566/566/566
f 569/569/569 567/567/567 568/568/568
f 570/570/570 569/569/569 568/568/568
f 571/571/571 569/569/569 570/570/570
f 572/572/572 571/571/571 570/570/570
f 566/566/566 557/557/557 572/572/572
f 568/568/568 572/572/572 570/570/570
f 566/566/566 572/572/572 568/568/568
f 573/573/573 571/571/571 572/572/572
f 557/557/557 573/573/573 572/572/572
f 556/556/556 573/573/573 557/557/557
f 556/556/556 574/574/574 573/573/573
f 575/575/575 574/574/574 556/556/556
f 554/554/554 575/575/575 556/556/556
f 576/576/576 575/575/575 554/554/554
f 551/551/551 576/576/576 554/554/554
f 577/577/577 576/576/576 551/551/551
f 573/573/573 578/578/578 571/571/571
f 574/574/574 578/578/578 573/573/573
f 571/571/571 579/579/579 569/569/569
f 578/578/578 579/579/579 571/571/571
f 579/579/579 580/580/580 569/569/569
f 569/569/569 580/580/580 567/567/567
f 580/580/580 581/581/581 567/567/567
f 567/567/567 581/581/581 565/565/565
f 581/581/581 582/582/582 565/565/565
f 565/565/565 582/582/582 563/563/563
f 582/582/582 583/583/583 563/563/563
f 563/563/563 583/583/583 560/560/560
f 583/583/583 584/584/584 560/560/560
f 560/560/560 584/584/584 559/559/559
f 584/584/584 585/585/585 559/559/559
f 551/551/551 585/585/585 577/577/577
f 559/559/559 585/585/585 552/552/552
f 552/552/552 585/585/585 551/551/551
f 587/587/587 586/586/586 588/588/588
f 589/589/589 586/586/586 587/587/587
f 587/587/587 590/590/590 589/589/589
f 591/591/591 590/590/590 587/587/587
f 591/591/591 592/592/592 590/590/590
f 593/593/593 592/592/592 591/591/591
f 593/593/593 594/594/594 592/592/592
f 595/595/595 594/594/594 593/593/593
f 595/595/595 596/596/596 594/594/594
f 597/597/597 596/596/596 595/595/595
f 597/597/597 598/598/598 596/596/596
f 599/599/599 598/598/598 597/597/597
f 599/599/599 600/600/600 598/598/598
f 601/601/601 600/600/600 599/599/599
f 601/601/601 602/602/602 600/600/600
f 603/603/603 602/602/602 601/601/601
f 603/603/603 604/604/604 602/602/602
f 605/605/605 604/604/604 603/603/603
f 605/605/605 606/606/606 604/604/604
f 607/607/607 606/606/606 605/605/605
f 607/607/607 608/608/608 606/606/606
f 609/609/609 608/608/608 607/607/607
f 609/609/609 586/586/586 608/608/608
f 588/588/588 586/586/586 609/609/609
f 536/536/536 520/520/520 526/526/526
f 522/522/522 520/520/520 536/536/536
