v 2.151736 -0.359026 0.2982666
v 2.046842 -0.4224253 0.3108036
v 2.175421 -0.3928387 0.3061844
v 2.021146 -0.361606 0.3397255
v 2.031257 -0.454863 0.3313472
v 2.056111 -0.4851992 0.3199427
v 2.164009 -0.3837416 0.3078727
v 2.075247 -0.5188572 0.3313474
v 2.109793 -0.5376114 0.3313462
v 2.147306 -0.5353991 0.320116
v 2.052039 -0.4956496 0.4202661
v 2.085695 -0.5147828 0.4316692
v 2.160442 -0.4078576 0.452326
v 2.172804 -0.3875389 0.4437923
v 2.116031 -0.5396382 0.4202649
v 2.148468 -0.5449337 0.4200272
v 2.033283 -0.4610989 0.4202659
v 2.021394 -0.4244282 0.4119706
v 2.054687 -0.361606 0.4454286
v 2.151736 -0.359026 0.4533467
v 2.964684 -0.4224253 0.2807623
v 2.859791 -0.387174 0.2682253
v 2.836104 -0.3928399 0.2761432
v 2.990381 -0.389754 0.3096844
v 2.980269 -0.4548629 0.3013061
v 2.955415 -0.4851992 0.2899014
v 2.847784 -0.3987878 0.2716643
v 2.936279 -0.5188572 0.3013061
v 2.901733 -0.5376114 0.3013059
v 2.864377 -0.5495475 0.3095924
v 2.959488 -0.4956496 0.3902248
v 2.925831 -0.5147828 0.4016291
v 2.851084 -0.4078575 0.422285
v 2.838309 -0.3720233 0.4034924
v 2.895496 -0.5396382 0.3902248
v 2.864795 -0.5240175 0.4106773
v 2.978243 -0.4610989 0.3902246
v 2.990133 -0.4244282 0.3819293
v 2.95684 -0.389754 0.4153875
v 2.859791 -0.387174 0.4233054
v 2.811629 -0.5358423 0.2923895
v 2.847784 -0.3987878 0.2716643
v 2.815474 -0.3659922 0.2926506
v 2.864377 -0.5495475 0.3095924
v 2.770317 -0.5162325 0.2700769
v 2.765728 -0.3520733 0.3033165
v 2.755661 -0.3660831 0.2828335
v 2.754071 -0.5356939 0.282669
v 2.260266 -0.3661121 0.2827893
v 2.259538 -0.535697 0.2827123
v 2.246467 -0.3856238 0.2692634
v 2.247331 -0.5497516 0.30273
v 2.186549 -0.5369469 0.286322
v 2.175673 -0.3648885 0.2901823
v 2.157075 -0.536203 0.3027226
v 2.152383 -0.3656331 0.3083517
v 2.143304 -0.5392628 0.3371124
v 2.160568 -0.3625543 0.3272947
v 2.147306 -0.5353991 0.320116
v 2.164009 -0.3837416 0.3078727
v 2.262449 -0.3661391 0.3938917
v 2.750764 -0.3661122 0.3938129
v 2.261721 -0.5357241 0.3938144
v 2.249206 -0.5162182 0.4084064
v 2.2487 -0.3520814 0.3749296
v 2.21189 -0.3648043 0.3914136
v 2.223181 -0.5370312 0.3875441
v 2.235309 -0.3656553 0.3802933
v 2.239919 -0.5361809 0.3748082
v 2.211278 -0.3628105 0.4154622
v 2.194816 -0.5390259 0.425084
v 2.172804 -0.3875389 0.4437923
v 2.148468 -0.5449337 0.4200272
v 2.749048 -0.535719 0.3936393
v 2.752212 -0.3856035 0.4080701
v 2.75668 -0.5497608 0.374818
v 2.804464 -0.5358409 0.4029397
v 2.808349 -0.3659936 0.4032022
v 2.864795 -0.5240175 0.4106773
v 2.838309 -0.3720233 0.4034924
v 2.039668 -0.4312015 0.1956186
v 2.036396 -0.5011266 0.3810055
v 2.053679 -0.5312964 0.2029871
v 2.0503 -0.4421693 0.4033608
v 2.114476 -0.5284002 0.4211897
v 2.106241 -0.5286256 0.1594711
v 2.140211 -0.5071579 0.4364273
v 2.097859 -0.4878207 0.155188
v 2.122973 -0.4148958 0.4233326
v 2.115895 -0.4146703 0.1566619
v 2.121052 -0.4325702 0.4262282
v 2.131511 -0.4508964 0.1365851
v 2.116878 -0.4531874 0.141975
v 2.143803 -0.4639393 0.4395236
v 2.106241 -0.4906256 0.1594711
v 2.114476 -0.4904002 0.4211897
v 2.039911 -0.4818277 0.2084348
v 2.046695 -0.4740945 0.3901014
v 2.040678 -0.4048833 0.3938434
v 2.050365 -0.3804682 0.1885561
v 2.124288 -0.3650655 0.4153489
v 2.117398 -0.3648843 0.1646294
v 2.127919 -0.4030346 0.1390873
v 2.116683 -0.4057559 0.4312155
v 2.167165 -0.4045886 0.4441265
v 2.112839 -0.3877971 0.4234597
v 2.159388 -0.4075007 0.1324083
v 2.095404 -0.3926465 0.1632261
v 2.167416 -0.5016125 0.4430158
v 2.088587 -0.494651 0.4003989
v 2.136613 -0.5565383 0.3915195
v 2.105623 -0.514648 0.2978355
v 2.095342 -0.5228447 0.328463
v 2.166195 -0.5589442 0.392152
v 2.165618 -0.55673 0.3139335
v 2.165618 -0.516189 0.2803926
v 2.161357 -0.535681 0.2825846
v 2.080797 -0.5002922 0.2481939
v 2.126363 -0.539648 0.2799127
v 2.107173 -0.5423023 0.1830928
v 2.095443 -0.5021309 0.1599112
v 2.159941 -0.5055411 0.1351482
v 2.160779 -0.5622151 0.1946138
v 2.161357 -0.542681 0.2825846
v 2.160743 -0.3433524 0.1838724
v 2.115053 -0.3517041 0.1876911
v 2.107064 -0.3549144 0.2462405
v 2.161285 -0.3516069 0.2711298
v 2.121315 -0.3616182 0.2625021
v 2.161646 -0.3538827 0.2593352
v 2.143781 -0.3537387 0.3219358
v 2.165329 -0.358357 0.3063597
v 2.16569 -0.3453571 0.3163535
v 2.091187 -0.3780211 0.3335685
v 2.130997 -0.3443137 0.3826665
v 2.166231 -0.3479254 0.402358
v 2.932463 -0.4279135 0.3772458
v 2.873679 -0.5134453 0.3936655
v 2.864934 -0.4009307 0.3959421
v 2.946185 -0.4864625 0.352867
v 2.852173 -0.4926082 0.4104876
v 2.872533 -0.417875 0.3991112
v 2.930104 -0.416807 0.2026046
v 2.91674 -0.5167037 0.2114536
v 2.793066 -0.4815128 0.4103
v 2.903848 -0.4774231 0.3744132
v 2.849952 -0.4560094 0.4134599
v 2.863732 -0.4446338 0.1620083
v 2.848392 -0.437154 0.1568381
v 2.789004 -0.419467 0.161337
v 2.773958 -0.4822952 0.1738779
v 2.883221 -0.472592 0.1750463
v 2.859512 -0.4011319 0.1751007
v 2.867076 -0.5132441 0.1767811
v 2.886213 -0.4842248 0.1797708
v 2.775118 -0.419468 0.399126
v 2.84914 -0.4017903 0.1570467
v 2.857424 -0.3547972 0.1894304
v 2.867076 -0.4820841 0.1767811
v 2.866323 -0.3888494 0.4063996
v 2.864934 -0.3656707 0.3959421
v 2.873679 -0.4822853 0.3936655
v 2.942236 -0.3983778 0.3666955
v 2.935904 -0.4664095 0.3631312
v 2.931369 -0.4740823 0.2160288
v 2.918239 -0.3738737 0.1961993
v 2.784228 -0.3994861 0.4050319
v 2.878984 -0.385242 0.3993873
v 2.801827 -0.3496804 0.3795995
v 2.861074 -0.3409542 0.3600833
v 2.7784 -0.3583643 0.3035571
v 2.8998 -0.3752378 0.3122483
v 2.848611 -0.3493299 0.3002163
v 2.757793 -0.3926125 0.3108291
v 2.755839 -0.3903666 0.2613291
v 2.863077 -0.3560517 0.27552
v 2.779053 -0.3614542 0.2802271
v 2.876762 -0.3515633 0.2613608
v 2.803564 -0.3429555 0.2024464
v 2.867717 -0.3489496 0.2048723
v 2.886014 -0.3897934 0.1821917
v 2.768715 -0.4017607 0.1779947
v 2.769768 -0.5022858 0.2818989
v 2.762625 -0.5025666 0.2751369
v 2.797922 -0.5398017 0.2138473
v 2.857056 -0.521948 0.2942223
v 2.902905 -0.4839232 0.2612976
v 2.875622 -0.522884 0.1996576
v 2.895081 -0.5061979 0.3079792
v 2.757967 -0.4800029 0.3028979
v 2.885109 -0.496948 0.2786964
v 2.855379 -0.5378024 0.3700484
v 2.771873 -0.5179262 0.3613207
v 2.796295 -0.5331852 0.2983748
v 2.121255 -0.5514724 0.3912303
v 2.121044 -0.3492048 0.188141
v 2.136345 -0.3593635 0.4211573
v 2.136134 -0.5413624 0.1581573
v 2.185719 -0.5661097 0.258114
v 2.225197 -0.5321914 0.1700279
v 2.213054 -0.5543183 0.2359668
v 2.237216 -0.5035188 0.1962556
v 2.236394 -0.4546528 0.1816775
v 2.218492 -0.367928 0.1630691
v 2.22883 -0.3997626 0.1898786
v 2.223386 -0.354892 0.2285067
v 2.206773 -0.3338102 0.2847559
v 2.177035 -0.3344455 0.2615816
v 2.177837 -0.3344117 0.3159155
v 2.224561 -0.3639792 0.4049398
v 2.224125 -0.350771 0.3383328
v 2.229632 -0.391751 0.3799573
v 2.237706 -0.4468145 0.3924038
v 2.219267 -0.5329358 0.4154603
v 2.229566 -0.5015848 0.3847298
v 2.223851 -0.546497 0.3462605
v 2.203472 -0.5681218 0.2895321
v 2.174869 -0.566105 0.3155796
v 2.282594 -0.5456998 0.2827941
v 2.296277 -0.5162094 0.2497398
v 2.282594 -0.5409852 0.2827955
v 2.282604 -0.5312397 0.3284541
v 2.282606 -0.5353224 0.3308119
v 2.282612 -0.4999698 0.3631233
v 2.282614 -0.5023269 0.367206
v 2.282615 -0.4555573 0.3775123
v 2.282618 -0.4555559 0.3822266
v 2.282612 -0.4098974 0.3677672
v 2.282614 -0.4075409 0.3718497
v 2.282604 -0.3752285 0.3364977
v 2.282607 -0.3711457 0.3388547
v 2.282594 -0.360839 0.2920831
v 2.282593 -0.3561248 0.2920827
v 2.282583 -0.3705844 0.2464241
v 2.282581 -0.3665013 0.2440678
v 2.282575 -0.4018528 0.2117559
v 2.282573 -0.3994964 0.2076732
v 2.282572 -0.4462669 0.1973654
v 2.282569 -0.4462666 0.1926516
v 2.282679 -0.4959992 0.2093466
v 2.26321 -0.5056068 0.1927079
v 2.282687 -0.5290056 0.2423538
v 2.731765 -0.4555569 0.1970524
v 2.718072 -0.4877239 0.2233669
v 2.731763 -0.4555572 0.1941146
v 2.731665 -0.4959996 0.2090337
v 2.731768 -0.4098972 0.2067978
v 2.731767 -0.4084296 0.2042534
v 2.731776 -0.375229 0.2380664
v 2.731775 -0.3726842 0.2365977
v 2.731787 -0.3608382 0.2824792
v 2.731787 -0.357901 0.2824797
v 2.731797 -0.3705829 0.3281395
v 2.731798 -0.3680386 0.3296075
v 2.731805 -0.401852 0.3628092
v 2.731806 -0.4003832 0.3653533
v 2.731808 -0.4462674 0.3771994
v 2.73181 -0.4462662 0.3801374
v 2.731805 -0.491925 0.3674547
v 2.731806 -0.4933941 0.3699994
v 2.731797 -0.5265942 0.3361869
v 2.731798 -0.5291389 0.3376553
v 2.731787 -0.540985 0.2917714
v 2.731787 -0.5439229 0.2917725
v 2.731673 -0.5290047 0.2420406
v 2.751138 -0.5441062 0.2333209
v 2.778924 -0.5055302 0.1922139
v 2.761652 -0.5391176 0.242964
v 2.755993 -0.5251614 0.197385
v 2.785913 -0.56408 0.259586
v 2.775252 -0.5585364 0.2835583
v 2.795067 -0.5673571 0.3164024
v 2.761386 -0.5268183 0.3830819
v 2.774138 -0.5462906 0.335694
v 2.772531 -0.5080476 0.3766083
v 2.765437 -0.4549429 0.3886625
v 2.764782 -0.4468273 0.1860129
v 2.761021 -0.3748082 0.1904659
v 2.772234 -0.3937706 0.1977796
v 2.773901 -0.3555865 0.2386319
v 2.756725 -0.3723595 0.372272
v 2.772544 -0.4023432 0.3815426
v 2.774091 -0.3602817 0.3441433
v 2.772865 -0.3445042 0.2898843
v 2.799251 -0.3333621 0.3164024
v 2.79548 -0.3342797 0.2620694
v 2.871413 -0.3463796 0.2084116
v 2.856479 -0.3564895 0.3944844
v 2.871568 -0.5554372 0.3645007
v 2.856324 -0.5452795 0.1784843
v 2.282679 -0.4959992 0.2093466
v 2.731765 -0.4555569 0.1970524
v 2.282572 -0.4462669 0.1973654
v 2.731665 -0.4959996 0.2090337
v 2.731768 -0.4098972 0.2067978
v 2.282575 -0.4018528 0.2117559
v 2.731776 -0.375229 0.2380664
v 2.282583 -0.3705844 0.2464241
v 2.731787 -0.3608382 0.2824792
v 2.282594 -0.360839 0.2920831
v 2.731797 -0.3705829 0.3281395
v 2.282604 -0.3752285 0.3364977
v 2.731805 -0.401852 0.3628092
v 2.282612 -0.4098974 0.3677672
v 2.731808 -0.4462674 0.3771994
v 2.282615 -0.4555573 0.3775123
v 2.731805 -0.491925 0.3674547
v 2.282612 -0.4999698 0.3631233
v 2.731797 -0.5265942 0.3361869
v 2.282604 -0.5312397 0.3284541
v 2.731787 -0.540985 0.2917714
v 2.282594 -0.5409852 0.2827955
v 2.731673 -0.5290047 0.2420406
v 2.282687 -0.5290056 0.2423538
v 3.000577 -0.2710457 0.3578087
v 2.916833 -0.2824355 0.4308452
v 2.860522 -0.2710467 0.4242999
v 2.97447 -0.3004473 0.4134475
v 3.018843 -0.2710457 0.3065241
v 2.809236 -0.2710466 0.4060332
v 3.016093 -0.2710447 0.2521509
v 2.768845 -0.2710457 0.3695311
v 2.992745 -0.2710437 0.2029706
v 2.745496 -0.2710456 0.3203503
v 2.952821 -0.2789727 0.1585601
v 2.742746 -0.2710447 0.2659788
v 2.896237 -0.2617585 0.1591147
v 2.761012 -0.2710447 0.2146935
v 2.844758 -0.2824326 0.1416574
v 2.787121 -0.3004443 0.1590535
v 2.954881 -0.6848483 0.3240408
v 2.909606 -0.6734593 0.3743152
v 2.947092 -0.6554477 0.3632573
v 2.87423 -0.6848484 0.3691556
v 2.963705 -0.6848475 0.2928103
v 2.842999 -0.6848483 0.3603314
v 2.959906 -0.6848472 0.2605828
v 2.817524 -0.6848484 0.3402278
v 2.944065 -0.6848473 0.2322634
v 2.801683 -0.6848484 0.3119058
v 2.916012 -0.6941323 0.223812
v 2.797885 -0.6848471 0.2796783
v 2.891674 -0.6769184 0.19669
v 2.806708 -0.6848475 0.2484531
v 2.851987 -0.6734585 0.1981753
v 2.814499 -0.6554466 0.2092334
v 2.889636 -0.4606079 0.2134749
v 2.939775 -0.4606068 0.1816882
v 2.899346 -0.4273316 0.1335276
v 2.933415 -0.4273326 0.192962
v 2.839995 -0.4467553 0.1528185
v 2.859243 -0.4467565 0.1959742
v 2.792037 -0.4467554 0.17859
v 2.826338 -0.4467561 0.2110933
v 2.757595 -0.4467563 0.2207512
v 2.801722 -0.4467564 0.2376532
v 2.741908 -0.4467563 0.2728834
v 2.789144 -0.4467572 0.2716131
v 2.747364 -0.4467574 0.3270506
v 2.790519 -0.4467573 0.3077995
v 2.773135 -0.4467583 0.3750061
v 2.805638 -0.4467574 0.3407072
v 2.815295 -0.4467584 0.40945
v 2.832199 -0.4467572 0.3653225
v 2.867427 -0.4467583 0.4251377
v 2.866158 -0.4467573 0.3779007
v 2.921596 -0.4467584 0.419681
v 2.902346 -0.4467574 0.3765256
v 2.969553 -0.4467583 0.3939098
v 2.935253 -0.4467574 0.3614057
v 3.003995 -0.4467573 0.351749
v 2.959869 -0.4467573 0.3348438
v 3.019683 -0.4467573 0.2996159
v 2.972445 -0.4467573 0.3008856
v 3.014225 -0.4467563 0.2454484
v 2.97107 -0.4467563 0.2647003
v 2.988455 -0.4467563 0.1974936
v 2.955952 -0.4467564 0.2317926
v 2.891325 -0.3534512 0.1981126
v 2.916708 -0.3526929 0.2213057
v 2.893711 -0.3855164 0.1799258
v 2.940002 -0.386614 0.1800028
v 2.852661 -0.3664739 0.1973928
v 2.855551 -0.3674636 0.1814176
v 2.821032 -0.3663641 0.2148644
v 2.817178 -0.3671904 0.1995069
v 2.79794 -0.3663689 0.2438266
v 2.788389 -0.3672986 0.2309336
v 2.787916 -0.3664769 0.2785382
v 2.774148 -0.3674918 0.270025
v 2.791937 -0.3664747 0.314382
v 2.775962 -0.3674653 0.311491
v 2.809411 -0.366365 0.346014
v 2.794053 -0.3671918 0.3498675
v 2.838371 -0.3663707 0.3691045
v 2.82548 -0.3673012 0.3786561
v 2.873084 -0.3664778 0.3791281
v 2.86457 -0.3674927 0.3928963
v 2.908928 -0.3664756 0.375107
v 2.906038 -0.3674665 0.3910822
v 2.94056 -0.3663651 0.3576332
v 2.944412 -0.3671917 0.3729919
v 2.96365 -0.3663701 0.3286716
v 2.9732 -0.3672996 0.3415653
v 2.973674 -0.3664768 0.2939607
v 2.987442 -0.3674912 0.3024739
v 2.969652 -0.3664742 0.2581163
v 2.985627 -0.3674637 0.2610064
v 2.952178 -0.366364 0.2264849
v 2.967537 -0.3671905 0.2226318
v 2.962909 -0.5501113 0.2175044
v 2.923831 -0.5639619 0.2099513
v 2.982965 -0.5501114 0.25416
v 2.987467 -0.5501112 0.2957018
v 2.975729 -0.5501124 0.3358039
v 2.949539 -0.5501122 0.3683611
v 2.912884 -0.5501123 0.3884176
v 2.871341 -0.5501123 0.3929206
v 2.83124 -0.5501123 0.3811833
v 2.798681 -0.5501124 0.3549926
v 2.778624 -0.5501114 0.318335
v 2.774122 -0.5501112 0.2767941
v 2.78586 -0.5501114 0.2366919
v 2.812051 -0.5501103 0.2041344
v 2.848707 -0.5501103 0.1840779
v 2.895433 -0.5306866 0.1657406
v 2.889855 -0.5639618 0.2116588
v 2.923831 -0.5639619 0.2099513
v 2.895433 -0.5306866 0.1657406
v 2.934313 -0.5306876 0.1913682
v 2.848707 -0.5501103 0.1840779
v 2.858754 -0.5501103 0.1942121
v 2.812051 -0.5501103 0.2041344
v 2.825211 -0.5501114 0.2096528
v 2.78586 -0.5501114 0.2366919
v 2.800131 -0.5501112 0.2367546
v 2.774122 -0.5501112 0.2767941
v 2.787331 -0.5501114 0.2713904
v 2.778624 -0.5501114 0.318335
v 2.788759 -0.5501113 0.3082895
v 2.798681 -0.5501124 0.3549926
v 2.8042 -0.5501124 0.3418323
v 2.83124 -0.5501123 0.3811833
v 2.831302 -0.5501122 0.3669125
v 2.871341 -0.5501123 0.3929206
v 2.865939 -0.5501123 0.3797127
v 2.912884 -0.5501123 0.3884176
v 2.902836 -0.5501123 0.3782836
v 2.949539 -0.5501122 0.3683611
v 2.936378 -0.5501123 0.3628434
v 2.975729 -0.5501124 0.3358039
v 2.96146 -0.5501125 0.3357414
v 2.987467 -0.5501112 0.2957018
v 2.97426 -0.5501112 0.3011035
v 2.982965 -0.5501114 0.25416
v 2.97283 -0.5501113 0.2642063
v 2.962909 -0.5501113 0.2175044
v 2.95739 -0.5501113 0.2306639
v 2.88847 -0.5997839 0.2230519
v 2.91771 -0.5997838 0.2208041
v 2.89393 -0.5665086 0.1781098
v 2.928675 -0.5665086 0.2013646
v 2.852053 -0.5859323 0.1960796
v 2.861834 -0.5859323 0.205268
v 2.819735 -0.5859324 0.2139427
v 2.83229 -0.5859323 0.2186867
v 2.796713 -0.5859323 0.2428123
v 2.810127 -0.5859326 0.2423934
v 2.786491 -0.5859323 0.2782964
v 2.798724 -0.5859321 0.2727763
v 2.790627 -0.5859333 0.3149895
v 2.799815 -0.5859334 0.3052065
v 2.80849 -0.5859333 0.3473076
v 2.813234 -0.5859332 0.3347523
v 2.837361 -0.5859333 0.3703302
v 2.83694 -0.5859333 0.3569151
v 2.872845 -0.5859332 0.3805508
v 2.867323 -0.5859334 0.3683187
v 2.909537 -0.5859333 0.3764149
v 2.899757 -0.5859332 0.3672265
v 2.941854 -0.5859333 0.3585531
v 2.929299 -0.5859332 0.353808
v 2.964878 -0.5859336 0.3296813
v 2.951463 -0.5859333 0.3301026
v 2.975098 -0.5859332 0.2941972
v 2.962866 -0.5859324 0.299719
v 2.970963 -0.5859323 0.2575053
v 2.961774 -0.5859322 0.2672852
v 2.9531 -0.5859323 0.2251876
v 2.948355 -0.5859322 0.2377421
v 2.944065 -0.6848473 0.2322634
v 2.916012 -0.6941323 0.223812
v 2.959906 -0.6848472 0.2605828
v 2.963705 -0.6848475 0.2928103
v 2.954881 -0.6848483 0.3240408
v 2.947092 -0.6554477 0.3632573
v 2.909606 -0.6734593 0.3743152
v 2.87423 -0.6848484 0.3691556
v 2.842999 -0.6848483 0.3603314
v 2.817524 -0.6848484 0.3402278
v 2.801683 -0.6848484 0.3119058
v 2.797885 -0.6848471 0.2796783
v 2.806708 -0.6848475 0.2484531
v 2.814499 -0.6554466 0.2092334
v 2.851987 -0.6734585 0.1981753
v 2.891674 -0.6769184 0.19669
v 2.934313 -0.5306876 0.1913682
v 2.95739 -0.5501113 0.2306639
v 2.97283 -0.5501113 0.2642063
v 2.97426 -0.5501112 0.3011035
v 2.96146 -0.5501125 0.3357414
v 2.936378 -0.5501123 0.3628434
v 2.902836 -0.5501123 0.3782836
v 2.865939 -0.5501123 0.3797127
v 2.831302 -0.5501122 0.3669125
v 2.8042 -0.5501124 0.3418323
v 2.788759 -0.5501113 0.3082895
v 2.787331 -0.5501114 0.2713904
v 2.800131 -0.5501112 0.2367546
v 2.825211 -0.5501114 0.2096528
v 2.858754 -0.5501103 0.1942121
v 2.889855 -0.5639618 0.2116588
v 2.933415 -0.4273326 0.192962
v 2.955952 -0.4467564 0.2317926
v 2.97107 -0.4467563 0.2647003
v 2.972445 -0.4467573 0.3008856
v 2.959869 -0.4467573 0.3348438
v 2.935253 -0.4467574 0.3614057
v 2.902346 -0.4467574 0.3765256
v 2.866158 -0.4467573 0.3779007
v 2.832199 -0.4467572 0.3653225
v 2.805638 -0.4467574 0.3407072
v 2.790519 -0.4467573 0.3077995
v 2.789144 -0.4467572 0.2716131
v 2.801722 -0.4467564 0.2376532
v 2.826338 -0.4467561 0.2110933
v 2.859243 -0.4467565 0.1959742
v 2.889636 -0.4606079 0.2134749
v 2.988455 -0.4467563 0.1974936
v 2.952821 -0.2789727 0.1585601
v 2.939775 -0.4606068 0.1816882
v 2.992745 -0.2710437 0.2029706
v 3.014225 -0.4467563 0.2454484
v 3.016093 -0.2710447 0.2521509
v 3.019683 -0.4467573 0.2996159
v 3.018843 -0.2710457 0.3065241
v 3.003995 -0.4467573 0.351749
v 3.000577 -0.2710457 0.3578087
v 2.969553 -0.4467583 0.3939098
v 2.97447 -0.3004473 0.4134475
v 2.921596 -0.4467584 0.419681
v 2.916833 -0.2824355 0.4308452
v 2.867427 -0.4467583 0.4251377
v 2.860522 -0.2710467 0.4242999
v 2.815295 -0.4467584 0.40945
v 2.809236 -0.2710466 0.4060332
v 2.773135 -0.4467583 0.3750061
v 2.768845 -0.2710457 0.3695311
v 2.747364 -0.4467574 0.3270506
v 2.745496 -0.2710456 0.3203503
v 2.741908 -0.4467563 0.2728834
v 2.742746 -0.2710447 0.2659788
v 2.757595 -0.4467563 0.2207512
v 2.761012 -0.2710447 0.2146935
v 2.792037 -0.4467554 0.17859
v 2.787121 -0.3004443 0.1590535
v 2.839995 -0.4467553 0.1528185
v 2.844758 -0.2824326 0.1416574
v 2.899346 -0.4273316 0.1335276
v 2.896237 -0.2617585 0.1591147

vn 0 1 -1.685874E-07
vn 0.04343074 0.8328394 -0.5518082
vn -0.3166565 0.8944272 0.3157982
vn 0 0.4472134 -0.8944272
vn 0.214306 0.5589237 -0.8010476
vn 0.3827621 0.7109852 -0.5899093
vn -0.4722988 0.8719175 0.1292039
vn 0.6442289 0.5589226 -0.5220868
vn 0.7740186 0.5589258 -0.297485
vn 0.703082 0.708661 -0.05895224
vn 0.5221015 -0.5589265 -0.6442135
vn 0.5899038 -0.710982 -0.3827769
vn -0.1164053 -0.986394 0.11609
vn -0.4216675 -0.8726088 0.2464761
vn 0.8010426 -0.5589259 -0.2143193
vn 0.8302096 -0.5557539 -0.04346977
vn 0.2974522 -0.5589238 -0.7740324
vn 0.07013654 -0.4483192 -0.8911178
vn 0 -0.8944272 -0.4472134
vn 0 -1 1.685874E-07
vn 0.04343026 0.8328397 0.551808
vn 0 1 -1.685874E-07
vn -0.3166275 0.8944271 -0.3158276
vn 0 0.4472137 0.8944271
vn 0.2143053 0.558924 0.8010476
vn 0.3827624 0.7109854 0.589909
vn -0.2716827 0.9541481 -0.1256589
vn 0.6442289 0.5589228 0.5220866
vn 0.7740187 0.5589258 0.2974845
vn 0.8917264 0.4484388 0.06104668
vn 0.5221016 -0.5589263 0.6442137
vn 0.5899039 -0.7109819 0.3827769
vn -0.1164058 -0.986394 -0.116089
vn -0.628542 -0.7358275 -0.2519779
vn 0.8010426 -0.5589257 0.2143194
vn 0.5513268 -0.831626 0.0666106
vn 0.2974522 -0.5589237 0.7740327
vn 0.07013576 -0.4483189 0.891118
vn 0 -0.8944271 0.4472137
vn 0 -1 1.685874E-07
vn 0.7089906 0.7048787 0.02186782
vn -0.2716827 0.9541481 -0.1256589
vn -0.7090097 0.701396 0.07313571
vn 0.8917264 0.4484388 0.06104668
vn 0.4475264 0.8860863 0.1207114
vn -0.8945965 0.4428917 0.05953199
vn -0.7075717 0.705264 0.04410291
vn 0.7072389 0.7066038 0.02289975
vn -0.7074127 0.7067342 -0.009697586
vn 0.7070527 0.7068945 -0.019405
vn -0.4472557 0.8941081 -0.02308853
vn 0.894448 0.4470221 -0.01157376
vn 0.7237189 0.672888 -0.1531425
vn -0.7237269 0.622098 -0.2986864
vn 0.7138005 0.4890908 -0.5012775
vn -0.7137983 0.4147303 -0.5643499
vn 0.7545973 0.4913101 -0.4349681
vn -0.7548493 0.622969 -0.2052124
vn 0.703082 0.708661 -0.05895224
vn -0.4722988 0.8719175 0.1292039
vn -0.7070527 -0.7068945 0.019405
vn -0.7071838 -0.7067119 -0.02119989
vn 0.7074146 -0.7067323 0.00969763
vn 0.447336 -0.8942653 0.01342312
vn -0.8944887 -0.4470407 0.006678211
vn -0.7248496 -0.6739082 0.1429716
vn 0.724842 -0.6230058 0.2940541
vn -0.7135025 -0.4907416 0.5000867
vn 0.7135044 -0.4183011 0.5620816
vn -0.7514338 -0.4933161 0.4381626
vn 0.7514385 -0.6223663 0.2190897
vn -0.4216675 -0.8726088 0.2464761
vn 0.8302096 -0.5557539 -0.04346977
vn 0.7075732 -0.7052641 -0.04407687
vn -0.447527 -0.8860881 -0.1206957
vn 0.8945701 -0.4427289 -0.06112008
vn 0.708972 -0.7013789 -0.07366343
vn -0.7089912 -0.7048782 -0.02186275
vn 0.5513268 -0.831626 0.0666106
vn -0.628542 -0.7358275 -0.2519779
vn -0.4992863 0.4033061 -0.766849
vn 0.3530486 -0.3363175 -0.8730677
vn 0.7553118 0.3050573 -0.5800381
vn -0.3530486 -0.6343915 -0.6876802
vn 0.7166955 -0.6595481 -0.226592
vn 0.7197019 0.6447921 -0.2574339
vn 0.4334646 -0.8747554 -0.2165908
vn 0.1756359 0.6898593 -0.7023149
vn -0.7166955 -0.6881218 -0.1132959
vn -0.7197019 0.682247 -0.128717
vn -0.4810375 -0.7387697 -0.4720406
vn -0.2366885 0.9378984 -0.2536238
vn 0.2205259 0.8660334 -0.4487255
vn 0.3638838 -0.9160423 -0.1686864
vn 0.7197019 0.6447921 -0.2574339
vn 0.7166955 -0.6595481 -0.2265921
vn 0.6023962 0.2324218 -0.7636091
vn 0.4992861 -0.4575966 -0.7357437
vn -0.2768629 -0.5074908 -0.8159657
vn -0.6023963 0.4974704 -0.624213
vn -0.8077664 -0.5816713 -0.09576941
vn -0.8101833 0.5760146 -0.1086745
vn -0.3015113 0.904534 -0.3015115
vn -0.265228 -0.8052665 -0.5302828
vn -0.1874577 -0.982226 0.009567741
vn -0.4113458 -0.7018551 -0.5815446
vn -0.1486309 0.9887763 -0.015172
vn -0.346687 0.5826867 -0.7350404
vn 0.2528597 -0.9674169 0.01290561
vn 0.1600395 -0.3943785 -0.904905
vn 0.8918713 -0.3692517 -0.2611871
vn 0.3333333 0.6666666 -0.6666668
vn 0.5359567 0.2583015 -0.8037604
vn 0.92395 -0.3825131 6.448689E-08
vn 0.8944272 0.4472136 -7.539459E-08
vn 0.4472136 0.8944272 -1.507892E-07
vn 0.7071068 -0.7071068 1.192093E-07
vn 0.2352563 -0.2437516 -0.9408717
vn 0.6666667 -0.6666667 -0.3333332
vn 0.7020565 0.4110623 -0.581502
vn 0.2597724 0.6268839 -0.7345304
vn 0.3052412 0.9522433 -0.007789895
vn 0.9675612 0.2526365 -4.259134E-08
vn 0.7071068 -0.7071068 1.192093E-07
vn -0.9239405 0.3825363 -6.449081E-08
vn -0.8125854 0.3364328 -0.475939
vn -0.769781 -0.2443595 -0.5896827
vn -0.8138814 -0.581031 9.795452E-08
vn -0.8537312 -0.3279267 -0.4044838
vn -0.9568703 -0.2905155 4.897726E-08
vn -0.95879 0.2387286 -0.1540467
vn -0.8972126 0.4415991 -7.444806E-08
vn -0.8972124 0.4415992 -7.444807E-08
vn -0.4616918 0.2168795 -0.8601186
vn -0.9111245 -0.2378934 -0.3365395
vn -0.8629681 -0.5052584 8.518022E-08
vn -0.3575272 -0.6113657 0.7059789
vn 0.7172971 -0.656589 0.2331857
vn -0.7172971 -0.6869431 0.1165929
vn 0.3575272 -0.2863159 0.8889305
vn 0.4394688 -0.8710034 0.2195912
vn -0.4913737 -0.719318 0.4910533
vn -0.505613 0.4763152 0.7193604
vn 0.7607433 0.358331 0.5411734
vn 0.2040645 -0.8645529 -0.4592451
vn 0.1495353 -0.3900117 0.9085869
vn 0.3669514 -0.9106341 0.189979
vn 0.2152768 0.8766535 0.4302726
vn -0.2343202 0.9455897 0.2257306
vn 0 0.8895509 -0.4568362
vn 0.2144959 0.7223263 -0.6574468
vn 0.1725868 0.7028126 0.6901219
vn -0.7146146 0.6922095 0.1008562
vn 0.7146146 0.6698046 0.2017125
vn 0.2402238 0.6398215 0.7300144
vn 0 -0.7155672 -0.698544
vn -0.2357023 0.9428092 0.2357021
vn -0.862277 0.5011454 0.0730178
vn 0.7146146 0.6698046 0.2017125
vn -0.4082483 -0.8164965 0.4082484
vn -0.7172971 -0.6869431 0.1165929
vn 0.7172971 -0.656589 0.2331857
vn -0.2812019 -0.4706956 0.8362841
vn 0.5056199 -0.4231712 0.7518475
vn 0.6079234 0.2973255 0.7362246
vn -0.6079234 0.5617204 0.561159
vn -0.1898917 -0.7943117 -0.5770703
vn -0.3798124 -0.722999 0.5770743
vn -0.7883684 -0.5124806 -0.3403511
vn -0.904717 -0.2562239 0.3403476
vn -0.672583 0.3582293 -0.6475367
vn -0.4476022 0.2384012 0.8618683
vn -0.9351746 0.3033731 0.1827927
vn -0.3580726 0.1658171 -0.9188518
vn -0.3880185 -0.1477828 -0.9097263
vn -0.845551 -0.3409402 0.4108567
vn -0.631384 -0.4952085 -0.5967603
vn -0.763262 -0.2476043 0.5967605
vn -0.8780336 0.3986918 -0.2647673
vn -0.7981119 0.3624015 0.4813343
vn -0.3191275 0.6075428 0.7273578
vn -0.1595637 0.6674502 -0.727358
vn 0.4810382 -0.4984075 -0.7212436
vn 0.4082483 -0.4082484 -0.8164965
vn 0.9047164 0.2562255 -0.3403479
vn 0.6666667 -0.6666666 0.3333335
vn 0.2362024 -0.2276711 0.9446557
vn 0.679146 0.4414774 0.5863945
vn 0.5331982 0.2762282 0.7996234
vn 0.1839315 0.3479385 -0.9192976
vn 0.3333333 0.6666668 0.6666666
vn 0.8780587 -0.3986411 0.2647608
vn 0.6130421 -0.2783235 -0.739402
vn 0.8164966 0.4082482 -0.4082483
vn 0.8016449 -0.2678626 -0.5344296
vn -0.8019226 0.2666596 -0.5346147
vn -0.6664867 -0.6668916 -0.333243
vn 0.6668457 0.6664428 -0.3334228
vn 0.9968089 0.04623328 0.06507195
vn 0.5445656 0.5079406 0.6674163
vn 0.8868972 0.4013431 0.2287728
vn 0.4183576 0.7220254 0.5510501
vn 0.05201045 0.8399748 0.5401272
vn -0.5522805 0.6007379 0.5780141
vn -0.3946455 0.8070527 0.4392276
vn -0.7841334 0.5007974 0.3665196
vn -0.9887974 0.03602374 0.1448517
vn -0.9987128 -8.551108E-09 -0.0507221
vn -0.9991637 -6.893045E-09 -0.04088707
vn -0.6049443 -0.4508841 0.6563124
vn -0.8390661 -0.3931247 0.37606
vn -0.5014529 -0.7393313 0.4493711
vn -0.05248664 -0.8288688 0.5569753
vn 0.5544906 -0.5911567 0.5857252
vn 0.3925714 -0.8029623 0.4484856
vn 0.7826139 -0.4988266 0.3724079
vn 0.9945175 -0.02766111 0.1008452
vn 0.996747 0.004478422 -0.08046996
vn 0.6934112 0.06193726 0.7178751
vn 0.3766324 0.2174512 0.9004793
vn 0.6934157 0.06192014 0.7178723
vn 0.6314762 -0.293074 0.7178757
vn 0.6314728 -0.2930837 0.7178746
vn 0.4003305 -0.5695568 0.7178723
vn 0.4003319 -0.5695535 0.7178741
vn 0.06193754 -0.6934124 0.7178739
vn 0.06191845 -0.6934146 0.7178735
vn -0.2930743 -0.631476 0.7178758
vn -0.2930672 -0.6314808 0.7178744
vn -0.5695528 -0.4003339 0.7178735
vn -0.5695502 -0.4003345 0.7178752
vn -0.6934134 -0.06192831 0.7178738
vn -0.6934161 -0.06192125 0.7178718
vn -0.6314749 0.2930844 0.7178726
vn -0.6314753 0.2930769 0.7178751
vn -0.4003499 0.5695406 0.7178742
vn -0.400341 0.5695497 0.717872
vn -0.06193453 0.6934132 0.7178735
vn -0.06193883 0.6934111 0.717875
vn 0.347376 0.6016653 0.7192556
vn 0.444051 0.7690865 0.4597006
vn 0.6016757 0.3473551 0.7192572
vn 0.06193146 0.6934135 -0.7178734
vn 0.2174514 0.3766321 -0.9004794
vn 0.06193577 0.6934109 -0.7178757
vn 0.347381 0.6016613 -0.7192568
vn -0.2930772 0.6314749 -0.7178755
vn -0.2930722 0.6314813 -0.717872
vn -0.5695469 0.4003469 -0.717871
vn -0.5695438 0.4003431 -0.7178755
vn -0.6934105 0.06194877 -0.7178748
vn -0.6934137 0.06194079 -0.7178724
vn -0.6314809 -0.2930676 -0.7178741
vn -0.6314852 -0.2930556 -0.7178752
vn -0.4003471 -0.5695419 -0.7178747
vn -0.4003444 -0.5695457 -0.7178733
vn -0.0619285 -0.6934134 -0.7178737
vn -0.06194333 -0.6934126 -0.7178733
vn 0.2930668 -0.6314836 -0.717872
vn 0.2930682 -0.6314808 -0.717874
vn 0.5695364 -0.4003537 -0.7178756
vn 0.5695457 -0.4003443 -0.7178734
vn 0.6934137 -0.06193154 -0.7178732
vn 0.6934122 -0.0619488 -0.717873
vn 0.6016763 0.3473578 -0.7192553
vn 0.7690969 0.4440322 -0.4597015
vn 0.455056 0.7918323 -0.4073397
vn 0.7027683 0.3152859 -0.6377394
vn 0.3982458 0.4153912 -0.8178328
vn 0.9171599 0.03311102 -0.3971414
vn 0.8884322 0.04740144 -0.4565536
vn 0.9608549 -4.670748E-08 -0.277052
vn 0.4203381 -0.5138993 -0.7478123
vn 0.7984083 -0.3743833 -0.4715733
vn 0.4886216 -0.7197865 -0.4931087
vn 0.05393225 -0.8072543 -0.5877346
vn -0.05428942 0.8012586 -0.5958501
vn -0.4225972 0.5076477 -0.7508032
vn -0.4883383 0.7176234 -0.4965303
vn -0.7973401 0.373047 -0.4744309
vn -0.455247 -0.3697672 -0.8099521
vn -0.3740245 -0.7855767 -0.4929249
vn -0.7347242 -0.4870403 -0.4721993
vn -0.87185 -0.03695971 -0.4883764
vn -0.9752122 -3.730355E-08 -0.2212712
vn -0.962977 -4.544838E-08 -0.2695835
vn -0.8016444 0.2678646 0.5344292
vn -0.6668469 -0.6664414 0.3334233
vn 0.801923 -0.2666577 0.534615
vn 0.6664866 0.6668918 0.333243
vn 0.347376 0.6016653 0.7192556
vn 0.06193146 0.6934135 -0.7178734
vn -0.06193453 0.6934132 0.7178735
vn 0.347381 0.6016613 -0.7192568
vn -0.2930772 0.6314749 -0.7178755
vn -0.4003499 0.5695406 0.7178742
vn -0.5695469 0.4003469 -0.717871
vn -0.6314749 0.2930844 0.7178726
vn -0.6934105 0.06194877 -0.7178748
vn -0.6934134 -0.06192831 0.7178738
vn -0.6314809 -0.2930676 -0.7178741
vn -0.5695528 -0.4003339 0.7178735
vn -0.4003471 -0.5695419 -0.7178747
vn -0.2930743 -0.631476 0.7178758
vn -0.0619285 -0.6934134 -0.7178737
vn 0.06193754 -0.6934124 0.7178739
vn 0.2930668 -0.6314836 -0.717872
vn 0.4003305 -0.5695568 0.7178723
vn 0.5695364 -0.4003537 -0.7178756
vn 0.6314762 -0.293074 0.7178757
vn 0.6934137 -0.06193154 -0.7178732
vn 0.6934157 0.06192014 0.7178723
vn 0.6016763 0.3473578 -0.7192553
vn 0.6016757 0.3473551 0.7192572
vn -0.7131637 -0.3840324 0.586444
vn -0.5613132 -0.8101714 0.1689671
vn -0.713164 -0.6887651 -0.1303834
vn -0.3211553 -0.7825084 0.5334228
vn -0.7131642 -0.130385 0.6887646
vn -0.7131649 -0.5864365 -0.3840418
vn -0.7131643 0.1431261 0.6862299
vn -0.7131636 -0.3948363 -0.5792252
vn -0.7131636 0.3948363 0.5792252
vn -0.7131648 -0.1431197 -0.6862309
vn -0.6074445 0.6918811 0.3902712
vn -0.713164 0.1303824 -0.6887652
vn -0.836966 0.5432624 0.06598334
vn -0.7131636 0.3840263 -0.5864481
vn -0.5613112 0.8101729 -0.1689662
vn -0.321156 0.7825179 -0.5334086
vn 0.7131638 -0.3032439 0.632013
vn 0.5613102 -0.7807691 0.274464
vn 0.3211553 -0.7052529 0.6320423
vn 0.713166 -0.6999493 -0.03827827
vn 0.713166 -0.03827831 0.6999493
vn 0.7131637 -0.6320132 -0.3032438
vn 0.7131628 0.2324857 0.6613238
vn 0.7131649 -0.4678438 -0.5220326
vn 0.7131637 0.467851 0.5220277
vn 0.7131649 -0.2324583 -0.6613312
vn 0.8369644 0.4766566 0.2688665
vn 0.7131618 0.03830692 -0.6999519
vn 0.6074448 0.7885655 0.09578671
vn 0.7131659 0.3032176 -0.6320233
vn 0.561313 0.7807748 -0.274442
vn 0.3211553 0.7052534 -0.6320418
vn 0.8978513 0.4370846 0.05310455
vn 0.8978512 0.3834957 0.2163194
vn 0.4541817 0.8844087 0.1074247
vn 0.4541808 0.7759773 0.4376974
vn 0.713164 0.6613315 -0.2324602
vn 0.7131666 0.6862276 -0.1431259
vn 0.7131653 0.5220169 -0.4678607
vn 0.7131618 0.5792255 -0.3948392
vn 0.7131636 0.3032417 -0.6320143
vn 0.7131659 0.3840433 -0.5864342
vn 0.713164 0.03830731 -0.6999497
vn 0.7131631 0.130376 -0.6887673
vn 0.7131648 -0.2324716 -0.6613266
vn 0.713164 -0.1431075 -0.6862342
vn 0.7131636 -0.4678497 -0.522029
vn 0.7131659 -0.3948374 -0.5792218
vn 0.7131649 -0.632009 -0.30325
vn 0.7131628 -0.5864408 -0.384039
vn 0.713164 -0.6999497 -0.03830887
vn 0.713164 -0.6887639 -0.1303892
vn 0.7131649 -0.6613267 0.2324712
vn 0.7131658 -0.6862298 0.14312
vn 0.7131645 -0.522019 0.4678596
vn 0.7131654 -0.5792185 0.3948431
vn 0.7131642 -0.3032482 0.6320106
vn 0.7131639 -0.3840181 0.5864533
vn 0.7131645 -0.03830081 0.6999497
vn 0.7131633 -0.1303749 0.6887674
vn 0.7131639 0.2324784 0.6613253
vn 0.713164 0.1431086 0.6862341
vn 0.7131636 0.4678497 0.522029
vn 0.7131659 0.3948373 0.5792218
vn -0.8900501 0.4528108 0.05266136
vn -0.8918279 0.398049 0.2149418
vn -0.4541811 0.8844072 0.1074394
vn -0.4478793 0.7828343 0.4319428
vn -0.7080807 0.6673141 -0.2308973
vn -0.7032182 0.6968097 -0.1412102
vn -0.7095451 0.5289322 -0.4655927
vn -0.7068608 0.5837383 -0.3994964
vn -0.7094804 0.3017309 -0.6368644
vn -0.7054181 0.3800512 -0.5982862
vn -0.7080415 0.03804407 -0.7051454
vn -0.7028558 0.1285777 -0.6996153
vn -0.7080709 -0.2308766 -0.6673316
vn -0.7032095 -0.1411947 -0.6968219
vn -0.7095464 -0.4656073 -0.5289176
vn -0.7068555 -0.3995076 -0.5837371
vn -0.7094709 -0.6368704 -0.3017401
vn -0.7054101 -0.5983015 -0.380042
vn -0.7080421 -0.7051446 -0.0380438
vn -0.7028567 -0.6996136 -0.1285826
vn -0.7080715 -0.6673289 0.230883
vn -0.7032059 -0.6968227 0.1412071
vn -0.7095452 -0.5289187 0.4656078
vn -0.7068573 -0.5837407 0.3994991
vn -0.7094789 -0.3017219 0.6368701
vn -0.7054186 -0.3800516 0.5982853
vn -0.7080423 -0.03804298 0.7051445
vn -0.7028633 -0.1285805 0.6996072
vn -0.7080779 0.2308787 0.6673236
vn -0.7032174 0.141199 0.6968128
vn -0.7095465 0.4656073 0.5289174
vn -0.7068604 0.3995016 0.5837353
vn 0.7131636 0.4678544 0.5220248
vn 0.8978515 0.3834949 0.2163201
vn 0.7131656 0.2324707 0.6613261
vn 0.7131627 -0.03831314 0.6999506
vn 0.7131654 -0.3032455 0.6320106
vn 0.7131638 -0.5220242 0.4678548
vn 0.7131642 -0.6613244 0.2324799
vn 0.713164 -0.6999499 -0.03830577
vn 0.7131642 -0.6320131 -0.303243
vn 0.7131649 -0.4678557 -0.5220219
vn 0.7131648 -0.2324611 -0.6613303
vn 0.7131629 0.03831098 -0.6999506
vn 0.7131654 0.3032455 -0.6320106
vn 0.7131645 0.5220271 -0.4678507
vn 0.7131637 0.6613262 -0.232476
vn 0.4541812 0.8844087 0.1074277
vn 0.8978509 0.4370866 0.05309232
vn 0.8978515 0.3834949 0.2163201
vn 0.4541812 0.8844087 0.1074277
vn 0.4541818 0.775974 0.4377024
vn 0.7131637 0.6613262 -0.232476
vn 0.713164 0.6862313 -0.1431213
vn 0.7131645 0.5220271 -0.4678507
vn 0.7131656 0.5792211 -0.394839
vn 0.7131654 0.3032455 -0.6320106
vn 0.7131633 0.3840356 -0.5864424
vn 0.7131629 0.03831098 -0.6999506
vn 0.7131646 0.1303874 -0.6887637
vn 0.7131648 -0.2324611 -0.6613303
vn 0.7131642 -0.1431204 -0.6862314
vn 0.7131649 -0.4678557 -0.5220219
vn 0.7131656 -0.3948398 -0.5792205
vn 0.7131642 -0.6320131 -0.303243
vn 0.7131633 -0.5864418 -0.3840363
vn 0.713164 -0.6999499 -0.03830577
vn 0.7131642 -0.688766 -0.1303774
vn 0.7131642 -0.6613244 0.2324799
vn 0.7131642 -0.6862313 0.1431215
vn 0.7131638 -0.5220242 0.4678548
vn 0.7131642 -0.5792275 0.3948321
vn 0.7131654 -0.3032455 0.6320106
vn 0.7131664 -0.3840407 0.5864354
vn 0.7131627 -0.03831314 0.6999506
vn 0.7131628 -0.1303622 0.6887702
vn 0.7131656 0.2324707 0.6613261
vn 0.7131642 0.1431205 0.6862314
vn 0.7131636 0.4678544 0.5220248
vn 0.7131643 0.3948329 0.5792268
vn 0.8978519 0.4370862 0.0530807
vn 0.897851 0.3834968 0.2163184
vn 0.4541816 0.8844084 0.1074279
vn 0.4541815 0.77597 0.4377095
vn 0.713164 0.6613289 -0.2324678
vn 0.7131641 0.6862297 -0.143129
vn 0.7131649 0.5220212 -0.4678565
vn 0.7131634 0.5792344 -0.3948232
vn 0.7131642 0.3032539 -0.6320078
vn 0.7131672 0.384026 -0.586444
vn 0.7131644 0.03830474 -0.6999496
vn 0.7131615 0.1303597 -0.6887722
vn 0.7131641 -0.2324684 -0.6613286
vn 0.7131655 -0.1431093 -0.6862323
vn 0.7131649 -0.4678561 -0.5220216
vn 0.7131633 -0.3948238 -0.5792341
vn 0.713165 -0.6320106 -0.3032463
vn 0.7131647 -0.5864375 -0.3840407
vn 0.7131632 -0.6999512 -0.03829486
vn 0.713166 -0.6887657 -0.1303689
vn 0.7131642 -0.6613285 0.2324684
vn 0.7131627 -0.6862269 0.1431486
vn 0.7131636 -0.5220357 0.4678423
vn 0.7131633 -0.579235 0.3948225
vn 0.7131673 -0.3032382 0.6320119
vn 0.7131648 -0.3840414 0.5864368
vn 0.7131627 -0.0382922 0.6999519
vn 0.713166 -0.1303688 0.6887657
vn 0.7131641 0.2324684 0.6613286
vn 0.7131628 0.1431488 0.6862268
vn 0.7131643 0.4678505 0.5220274
vn 0.7131627 0.3948315 0.5792295
vn 0.7131637 0.467851 0.5220277
vn 0.8369644 0.4766566 0.2688665
vn 0.7131628 0.2324857 0.6613238
vn 0.713166 -0.03827831 0.6999493
vn 0.7131638 -0.3032439 0.632013
vn 0.3211553 -0.7052529 0.6320423
vn 0.5613102 -0.7807691 0.274464
vn 0.713166 -0.6999493 -0.03827827
vn 0.7131637 -0.6320132 -0.3032438
vn 0.7131649 -0.4678438 -0.5220326
vn 0.7131649 -0.2324583 -0.6613312
vn 0.7131618 0.03830692 -0.6999519
vn 0.7131659 0.3032176 -0.6320233
vn 0.3211553 0.7052534 -0.6320418
vn 0.561313 0.7807748 -0.274442
vn 0.6074448 0.7885655 0.09578671
vn 0.4541818 0.775974 0.4377024
vn 0.7131643 0.3948329 0.5792268
vn 0.7131642 0.1431205 0.6862314
vn 0.7131628 -0.1303622 0.6887702
vn 0.7131664 -0.3840407 0.5864354
vn 0.7131642 -0.5792275 0.3948321
vn 0.7131642 -0.6862313 0.1431215
vn 0.7131642 -0.688766 -0.1303774
vn 0.7131633 -0.5864418 -0.3840363
vn 0.7131656 -0.3948398 -0.5792205
vn 0.7131642 -0.1431204 -0.6862314
vn 0.7131646 0.1303874 -0.6887637
vn 0.7131633 0.3840356 -0.5864424
vn 0.7131656 0.5792211 -0.394839
vn 0.713164 0.6862313 -0.1431213
vn 0.8978509 0.4370866 0.05309232
vn 0.4541808 0.7759773 0.4376974
vn 0.7131659 0.3948373 0.5792218
vn 0.713164 0.1431086 0.6862341
vn 0.7131633 -0.1303749 0.6887674
vn 0.7131639 -0.3840181 0.5864533
vn 0.7131654 -0.5792185 0.3948431
vn 0.7131658 -0.6862298 0.14312
vn 0.713164 -0.6887639 -0.1303892
vn 0.7131628 -0.5864408 -0.384039
vn 0.7131659 -0.3948374 -0.5792218
vn 0.713164 -0.1431075 -0.6862342
vn 0.7131631 0.130376 -0.6887673
vn 0.7131659 0.3840433 -0.5864342
vn 0.7131618 0.5792255 -0.3948392
vn 0.7131666 0.6862276 -0.1431259
vn 0.8978513 0.4370846 0.05310455
vn 0.7131636 0.4678497 0.522029
vn -0.6074445 0.6918811 0.3902712
vn 0.8978512 0.3834957 0.2163194
vn -0.7131636 0.3948363 0.5792252
vn 0.7131639 0.2324784 0.6613253
vn -0.7131643 0.1431261 0.6862299
vn 0.7131645 -0.03830081 0.6999497
vn -0.7131642 -0.130385 0.6887646
vn 0.7131642 -0.3032482 0.6320106
vn -0.7131637 -0.3840324 0.586444
vn 0.7131645 -0.522019 0.4678596
vn -0.3211553 -0.7825084 0.5334228
vn 0.7131649 -0.6613267 0.2324712
vn -0.5613132 -0.8101714 0.1689671
vn 0.713164 -0.6999497 -0.03830887
vn -0.713164 -0.6887651 -0.1303834
vn 0.7131649 -0.632009 -0.30325
vn -0.7131649 -0.5864365 -0.3840418
vn 0.7131636 -0.4678497 -0.522029
vn -0.7131636 -0.3948363 -0.5792252
vn 0.7131648 -0.2324716 -0.6613266
vn -0.7131648 -0.1431197 -0.6862309
vn 0.713164 0.03830731 -0.6999497
vn -0.713164 0.1303824 -0.6887652
vn 0.7131636 0.3032417 -0.6320143
vn -0.7131636 0.3840263 -0.5864481
vn 0.7131653 0.5220169 -0.4678607
vn -0.321156 0.7825179 -0.5334086
vn 0.713164 0.6613315 -0.2324602
vn -0.5613112 0.8101729 -0.1689662
vn 0.4541817 0.8844087 0.1074247
vn -0.836966 0.5432624 0.06598334

vt 0.052228 0.095018
vt 0.111848 0.032062
vt 0.10929 0.095018
vt 0.054786 0.032062
vt 0.1313 0.035143
vt 0.148848 0.044084
vt 0.111844 0.097579
vt 0.162774 0.05801
vt 0.171715 0.075558
vt 0.174796 0.09501
vt 0.148848 0.044084
vt 0.162774 0.05801
vt 0.10929 0.095018
vt 0.111844 0.097579
vt 0.171715 0.075558
vt 0.174796 0.09501
vt 0.1313 0.035143
vt 0.111848 0.032062
vt 0.054786 0.032062
vt 0.052228 0.095018
vt 0.097114 0.815621
vt 0.060262 0.742467
vt 0.094142 0.742467
vt 0.063234 0.815621
vt 0.119717 0.812041
vt 0.140107 0.801652
vt 0.09711 0.739492
vt 0.156289 0.78547
vt 0.166679 0.765079
vt 0.170259 0.742476
vt 0.140107 0.801652
vt 0.156289 0.78547
vt 0.094142 0.742467
vt 0.09711 0.739492
vt 0.166679 0.765079
vt 0.170259 0.742476
vt 0.119717 0.812041
vt 0.097114 0.815621
vt 0.063234 0.815621
vt 0.060262 0.742467
vt 0.169984 0.681674
vt 0.098911 0.723422
vt 0.098915 0.681674
vt 0.169984 0.723422
vt 0.169984 0.640836
vt 0.098915 0.640836
vt 0.098896 0.633368
vt 0.169965 0.633368
vt 0.098915 0.221542
vt 0.169984 0.221542
vt 0.098915 0.210818
vt 0.169984 0.210818
vt 0.169984 0.168774
vt 0.098915 0.168807
vt 0.169984 0.165954
vt 0.098915 0.165987
vt 0.169984 0.150244
vt 0.098915 0.150271
vt 0.169984 0.129962
vt 0.098911 0.129962
vt 0.098915 0.221542
vt 0.098896 0.633368
vt 0.169984 0.221542
vt 0.169984 0.210818
vt 0.098915 0.210818
vt 0.098915 0.171399
vt 0.169984 0.171366
vt 0.098915 0.168579
vt 0.169984 0.168546
vt 0.098915 0.15233
vt 0.169984 0.152304
vt 0.098911 0.129962
vt 0.169984 0.129962
vt 0.169965 0.633368
vt 0.098915 0.640836
vt 0.169984 0.640836
vt 0.169984 0.681674
vt 0.098915 0.681674
vt 0.169984 0.723422
vt 0.098911 0.723422
vt 0.02832 0.770239
vt 0.049822 0.799412
vt 0.02832 0.770239
vt 0.049822 0.799412
vt 0.059141 0.798431
vt 0.032016 0.761628
vt 0.064751 0.794296
vt 0.037626 0.757493
vt 0.059141 0.798431
vt 0.032016 0.761628
vt 0.064751 0.794296
vt 0.037626 0.757493
vt 0.037626 0.757493
vt 0.064751 0.794296
vt 0.032016 0.761628
vt 0.059141 0.798431
vt 0.02832 0.770239
vt 0.049822 0.799412
vt 0.049822 0.799412
vt 0.02832 0.770239
vt 0.059141 0.798431
vt 0.032016 0.761628
vt 0.037626 0.757493
vt 0.064751 0.794296
vt 0.066995 0.792642
vt 0.064751 0.794296
vt 0.03987 0.755839
vt 0.037626 0.757493
vt 0.066995 0.792642
vt 0.064751 0.794296
vt 0.063594 0.792725
vt 0.060947 0.789135
vt 0.060947 0.789135
vt 0.065838 0.791071
vt 0.063191 0.787481
vt 0.063191 0.787481
vt 0.043674 0.761
vt 0.04143 0.762654
vt 0.04143 0.762654
vt 0.038784 0.759064
vt 0.037626 0.757493
vt 0.03987 0.755839
vt 0.041028 0.75741
vt 0.043674 0.761
vt 0.040862 0.757185
vt 0.038618 0.758839
vt 0.041099 0.762205
vt 0.043344 0.760552
vt 0.042753 0.76445
vt 0.044997 0.762796
vt 0.059624 0.787339
vt 0.061868 0.785685
vt 0.063522 0.787929
vt 0.061278 0.789583
vt 0.063759 0.792949
vt 0.066003 0.791296
vt 0.231163 0.033401
vt 0.237727 0.029799
vt 0.237727 0.029799
vt 0.231163 0.033401
vt 0.243471 0.029634
vt 0.243471 0.029634
vt 0.231911 0.059491
vt 0.231911 0.059491
vt 0.245768 0.029568
vt 0.243471 0.029634
vt 0.243471 0.029634
vt 0.244414 0.062547
vt 0.244414 0.062547
vt 0.246711 0.062481
vt 0.246711 0.062481
vt 0.244414 0.062547
vt 0.238671 0.062712
vt 0.238671 0.062712
vt 0.244414 0.062547
vt 0.245768 0.029568
vt 0.244414 0.062547
vt 0.238671 0.062712
vt 0.238671 0.062712
vt 0.243471 0.029634
vt 0.237727 0.029799
vt 0.237727 0.029799
vt 0.231163 0.033401
vt 0.231163 0.033401
vt 0.231911 0.059491
vt 0.231911 0.059491
vt 0.245768 0.029568
vt 0.243471 0.029634
vt 0.245802 0.030772
vt 0.243505 0.030838
vt 0.245889 0.033783
vt 0.243591 0.033848
vt 0.243649 0.035855
vt 0.245946 0.035789
vt 0.246533 0.05626
vt 0.244236 0.056326
vt 0.246591 0.058267
vt 0.244293 0.058333
vt 0.246677 0.061277
vt 0.24438 0.061343
vt 0.244414 0.062547
vt 0.246711 0.062481
vt 0.246579 0.057865
vt 0.246579 0.057865
vt 0.246671 0.061077
vt 0.244282 0.057931
vt 0.244282 0.057931
vt 0.244374 0.061142
vt 0.243603 0.03425
vt 0.2459 0.034184
vt 0.243603 0.03425
vt 0.243511 0.031039
vt 0.245808 0.030973
vt 0.2459 0.034184
vt 0.065926 0.793602
vt 0.040259 0.756105
vt 0.065926 0.793602
vt 0.040259 0.756105
vt 0.053194 0.765313
vt 0.04348 0.7539
vt 0.057366 0.763978
vt 0.054903 0.760374
vt 0.054001 0.759055
vt 0.04348 0.7539
vt 0.054903 0.760374
vt 0.057366 0.763978
vt 0.060731 0.768901
vt 0.053194 0.765313
vt 0.06175 0.777812
vt 0.069147 0.791398
vt 0.064097 0.773824
vt 0.06656 0.777428
vt 0.067462 0.778747
vt 0.069147 0.791398
vt 0.06656 0.777428
vt 0.064097 0.773824
vt 0.060732 0.768901
vt 0.06175 0.777812
vt 0.068291 0.763734
vt 0.064926 0.758811
vt 0.068291 0.763734
vt 0.071285 0.768115
vt 0.071656 0.768657
vt 0.073477 0.771321
vt 0.074119 0.772261
vt 0.074279 0.772495
vt 0.075021 0.77358
vt 0.073477 0.771321
vt 0.074119 0.772261
vt 0.071285 0.768115
vt 0.071656 0.768657
vt 0.068291 0.763734
vt 0.068291 0.763734
vt 0.065296 0.759354
vt 0.064925 0.758811
vt 0.063104 0.756147
vt 0.062462 0.755207
vt 0.062302 0.754973
vt 0.06156 0.753888
vt 0.063104 0.756147
vt 0.062462 0.755207
vt 0.065296 0.759354
vt 0.25731 0.056673
vt 0.257315 0.055957
vt 0.257304 0.057496
vt 0.25732 0.055244
vt 0.25732 0.055244
vt 0.257315 0.055957
vt 0.257347 0.051339
vt 0.257344 0.05175
vt 0.257384 0.046004
vt 0.257384 0.046004
vt 0.257421 0.04067
vt 0.257423 0.040258
vt 0.257448 0.036764
vt 0.257452 0.036051
vt 0.257457 0.035335
vt 0.257463 0.034512
vt 0.257448 0.036764
vt 0.257452 0.036051
vt 0.257421 0.040669
vt 0.257423 0.040258
vt 0.257384 0.046004
vt 0.257384 0.046004
vt 0.257347 0.051338
vt 0.257344 0.05175
vt 0.250626 0.05591
vt 0.250655 0.051704
vt 0.248376 0.062357
vt 0.248903 0.052964
vt 0.250695 0.045958
vt 0.248976 0.037736
vt 0.248579 0.029847
vt 0.250734 0.040212
vt 0.250763 0.036005
vt 0.250774 0.034465
vt 0.250616 0.05745
vt 0.248376 0.062357
vt 0.250626 0.055911
vt 0.250655 0.051704
vt 0.248579 0.029847
vt 0.250763 0.036005
vt 0.250734 0.040212
vt 0.250695 0.045958
vt 0.248976 0.037736
vt 0.248903 0.052964
vt 0.244452 0.062339
vt 0.244655 0.029828
vt 0.244655 0.029828
vt 0.244452 0.062339
vt 0.48058 0.068304
vt 0.249139 0.0695
vt 0.480581 0.069717
vt 0.249138 0.068086
vt 0.249138 0.068086
vt 0.48058 0.068304
vt 0.249136 0.064225
vt 0.480578 0.064442
vt 0.249133 0.058949
vt 0.480575 0.059167
vt 0.24913 0.053674
vt 0.480572 0.053891
vt 0.249128 0.049812
vt 0.48057 0.05003
vt 0.249127 0.048399
vt 0.480569 0.048616
vt 0.249128 0.049812
vt 0.48057 0.050029
vt 0.24913 0.053674
vt 0.480572 0.053891
vt 0.249133 0.058949
vt 0.480575 0.059166
vt 0.249136 0.064225
vt 0.480578 0.064442
vt 0.046516 0.594545
vt 0.053134 0.600326
vt 0.057408 0.600831
vt 0.049286 0.598125
vt 0.045304 0.590167
vt 0.061427 0.599625
vt 0.045854 0.585727
vt 0.064601 0.596954
vt 0.048046 0.581962
vt 0.066503 0.593257
vt 0.051479 0.579455
vt 0.066902 0.589079
vt 0.055575 0.578549
vt 0.065768 0.585002
vt 0.059699 0.579316
vt 0.063257 0.581586
vt 0.028535 0.84003
vt 0.018834 0.827647
vt 0.022453 0.834804
vt 0.018229 0.819651
vt 0.036154 0.842532
vt 0.020731 0.812032
vt 0.04415 0.841927
vt 0.025958 0.80595
vt 0.051307 0.838309
vt 0.033114 0.802331
vt 0.056534 0.832227
vt 0.041111 0.801726
vt 0.059035 0.824607
vt 0.04873 0.804228
vt 0.058431 0.816611
vt 0.054812 0.809455
vt 0.055875 0.584141
vt 0.060373 0.579375
vt 0.056514 0.578081
vt 0.057649 0.584768
vt 0.05256 0.578512
vt 0.054036 0.584312
vt 0.049094 0.580555
vt 0.052407 0.585244
vt 0.046602 0.583875
vt 0.051228 0.586791
vt 0.045418 0.587985
vt 0.050669 0.58872
vt 0.045703 0.592305
vt 0.050809 0.590748
vt 0.047428 0.596226
vt 0.051631 0.592577
vt 0.050371 0.599176
vt 0.053019 0.593934
vt 0.054129 0.600693
vt 0.054771 0.594609
vt 0.058155 0.600498
vt 0.056625 0.594489
vt 0.061821 0.598569
vt 0.058297 0.593581
vt 0.064526 0.595172
vt 0.059522 0.592018
vt 0.06581 0.59084
vt 0.060103 0.590041
vt 0.065454 0.586283
vt 0.059947 0.587962
vt 0.063528 0.582249
vt 0.059082 0.586109
vt 0.061179 0.557012
vt 0.054084 0.557244
vt 0.055907 0.557244
vt 0.05871 0.557012
vt 0.055466 0.557244
vt 0.060582 0.557012
vt 0.052829 0.557244
vt 0.05701 0.557012
vt 0.048397 0.557244
vt 0.051007 0.557012
vt 0.042846 0.557244
vt 0.043486 0.557012
vt 0.037019 0.557244
vt 0.035593 0.557011
vt 0.031804 0.557244
vt 0.028529 0.557011
vt 0.027996 0.557244
vt 0.02337 0.557011
vt 0.026173 0.557244
vt 0.020901 0.557011
vt 0.026613 0.557244
vt 0.021497 0.557011
vt 0.02925 0.557244
vt 0.025069 0.557011
vt 0.033682 0.557244
vt 0.031073 0.557011
vt 0.039234 0.557244
vt 0.038593 0.557011
vt 0.045061 0.557244
vt 0.046487 0.557012
vt 0.050275 0.557244
vt 0.053551 0.557012
vt 0.053551 0.528604
vt 0.05871 0.528604
vt 0.046487 0.528604
vt 0.038594 0.528604
vt 0.031073 0.528604
vt 0.02507 0.528604
vt 0.021498 0.528604
vt 0.020901 0.528604
vt 0.02337 0.528604
vt 0.028529 0.528604
vt 0.035593 0.528604
vt 0.043487 0.528604
vt 0.051007 0.528604
vt 0.057011 0.528604
vt 0.060583 0.528604
vt 0.061179 0.528604
vt 0.052159 0.523557
vt 0.053595 0.523557
vt 0.055262 0.523557
vt 0.050873 0.523557
vt 0.054859 0.523557
vt 0.051848 0.523557
vt 0.052448 0.523557
vt 0.049988 0.523557
vt 0.048397 0.523557
vt 0.046862 0.523556
vt 0.043322 0.523556
vt 0.042945 0.523556
vt 0.037996 0.523556
vt 0.038835 0.523556
vt 0.033229 0.523556
vt 0.035156 0.523556
vt 0.029747 0.523556
vt 0.032469 0.523556
vt 0.028081 0.523556
vt 0.031184 0.523556
vt 0.028484 0.523556
vt 0.031494 0.523556
vt 0.030894 0.523556
vt 0.033355 0.523556
vt 0.034945 0.523556
vt 0.036481 0.523556
vt 0.04002 0.523556
vt 0.040397 0.523556
vt 0.045347 0.523556
vt 0.044508 0.523556
vt 0.050114 0.523557
vt 0.048186 0.523557
vt 0.052346 0.515288
vt 0.054676 0.515288
vt 0.056582 0.515288
vt 0.05096 0.515288
vt 0.056121 0.515288
vt 0.052011 0.515288
vt 0.053365 0.515288
vt 0.050006 0.515288
vt 0.048732 0.515288
vt 0.046636 0.515288
vt 0.042928 0.515288
vt 0.042414 0.515288
vt 0.036837 0.515288
vt 0.037983 0.515288
vt 0.031386 0.515288
vt 0.034017 0.515288
vt 0.027405 0.515288
vt 0.031121 0.515288
vt 0.025499 0.515288
vt 0.029735 0.515288
vt 0.02596 0.515288
vt 0.03007 0.515288
vt 0.028716 0.515288
vt 0.032075 0.515288
vt 0.033349 0.515288
vt 0.035445 0.515288
vt 0.039153 0.515288
vt 0.039667 0.515288
vt 0.045244 0.515288
vt 0.044098 0.515288
vt 0.050695 0.515288
vt 0.048064 0.515288
vt 0.048064 0.478518
vt 0.050961 0.478518
vt 0.044099 0.478518
vt 0.039668 0.478518
vt 0.035446 0.478518
vt 0.032076 0.478518
vt 0.03007 0.478518
vt 0.029735 0.478518
vt 0.031121 0.478518
vt 0.034018 0.478518
vt 0.037983 0.478518
vt 0.042414 0.478518
vt 0.046636 0.478518
vt 0.050007 0.478518
vt 0.052012 0.478518
vt 0.052347 0.478518
vt 0.054676 0.528604
vt 0.050695 0.528604
vt 0.045244 0.528604
vt 0.039152 0.528604
vt 0.033349 0.528604
vt 0.028716 0.528604
vt 0.02596 0.528604
vt 0.025499 0.528604
vt 0.027404 0.528604
vt 0.031386 0.528604
vt 0.036837 0.528604
vt 0.042928 0.528604
vt 0.048732 0.528604
vt 0.053364 0.528604
vt 0.056121 0.528604
vt 0.056581 0.528604
vt 0.054084 0.567025
vt 0.050275 0.567025
vt 0.045061 0.567025
vt 0.039234 0.567025
vt 0.033682 0.567025
vt 0.02925 0.567024
vt 0.026613 0.567024
vt 0.026173 0.567024
vt 0.027995 0.567024
vt 0.031804 0.567024
vt 0.037019 0.567025
vt 0.042845 0.567025
vt 0.048397 0.567025
vt 0.052829 0.567025
vt 0.055466 0.567025
vt 0.055907 0.567025
vt 0.058225 0.572432
vt 0.065312 0.594443
vt 0.065312 0.572432
vt 0.058225 0.594443
vt 0.048522 0.572431
vt 0.048521 0.594443
vt 0.037679 0.572431
vt 0.037679 0.594442
vt 0.027348 0.572431
vt 0.027348 0.594442
vt 0.019102 0.572431
vt 0.019101 0.594442
vt 0.014195 0.572431
vt 0.014195 0.594442
vt 0.013375 0.572431
vt 0.013375 0.594442
vt 0.016767 0.572431
vt 0.016767 0.594442
vt 0.023854 0.572431
vt 0.023854 0.594442
vt 0.033557 0.572431
vt 0.033557 0.594442
vt 0.0444 0.572431
vt 0.0444 0.594442
vt 0.054731 0.572432
vt 0.05473 0.594443
vt 0.062977 0.572432
vt 0.062977 0.594443
vt 0.067884 0.572432
vt 0.067884 0.594443
vt 0.068704 0.572432
vt 0.068704 0.594443
f 2/2/2 1/1/1 3/3/3
f 4/4/4 1/1/1 2/2/2
f 3/3/3 5/5/5 2/2/2
f 6/6/6 5/5/5 3/3/3
f 7/7/7 6/6/6 3/3/3
f 8/8/8 6/6/6 7/7/7
f 9/9/9 8/8/8 7/7/7
f 10/10/10 9/9/9 7/7/7
f 6/6/6 8/8/8 11/11/11
f 11/11/11 8/8/8 12/12/12
f 9/9/9 12/12/12 8/8/8
f 12/12/12 13/13/13 11/11/11
f 14/14/14 13/13/13 12/12/12
f 14/14/14 3/3/3 13/13/13
f 7/7/7 3/3/3 14/14/14
f 15/15/15 14/14/14 12/12/12
f 15/15/15 12/12/12 9/9/9
f 10/10/10 15/15/15 9/9/9
f 15/15/15 16/16/16 14/14/14
f 16/16/16 15/15/15 10/10/10
f 11/11/11 13/13/13 17/17/17
f 17/17/17 6/6/6 11/11/11
f 5/5/5 6/6/6 17/17/17
f 13/13/13 18/18/18 17/17/17
f 18/18/18 5/5/5 17/17/17
f 18/18/18 13/13/13 19/19/19
f 4/4/4 18/18/18 19/19/19
f 19/19/19 13/13/13 20/20/20
f 2/2/2 5/5/5 18/18/18
f 2/2/2 18/18/18 4/4/4
f 22/22/22 21/21/21 23/23/23
f 24/24/24 21/21/21 22/22/22
f 21/21/21 25/25/25 23/23/23
f 23/23/23 25/25/25 26/26/26
f 23/23/23 26/26/26 27/27/27
f 27/27/27 26/26/26 28/28/28
f 27/27/27 28/28/28 29/29/29
f 27/27/27 29/29/29 30/30/30
f 31/31/31 28/28/28 26/26/26
f 32/32/32 28/28/28 31/31/31
f 28/28/28 32/32/32 29/29/29
f 31/31/31 33/33/33 32/32/32
f 32/32/32 33/33/33 34/34/34
f 34/34/34 23/23/23 27/27/27
f 33/33/33 23/23/23 34/34/34
f 32/32/32 34/34/34 35/35/35
f 29/29/29 32/32/32 35/35/35
f 29/29/29 35/35/35 30/30/30
f 34/34/34 36/36/36 35/35/35
f 30/30/30 35/35/35 36/36/36
f 37/37/37 33/33/33 31/31/31
f 37/37/37 26/26/26 25/25/25
f 31/31/31 26/26/26 37/37/37
f 37/37/37 38/38/38 33/33/33
f 37/37/37 25/25/25 38/38/38
f 39/39/39 33/33/33 38/38/38
f 39/39/39 38/38/38 24/24/24
f 40/40/40 33/33/33 39/39/39
f 38/38/38 25/25/25 21/21/21
f 24/24/24 38/38/38 21/21/21
f 42/42/42 41/41/41 43/43/43
f 44/44/44 41/41/41 42/42/42
f 41/41/41 45/45/45 43/43/43
f 43/43/43 45/45/45 46/46/46
f 45/45/45 47/47/47 46/46/46
f 48/48/48 47/47/47 45/45/45
f 47/47/47 48/48/48 49/49/49
f 49/49/49 48/48/48 50/50/50
f 50/50/50 51/51/51 49/49/49
f 52/52/52 51/51/51 50/50/50
f 53/53/53 51/51/51 52/52/52
f 54/54/54 51/51/51 53/53/53
f 55/55/55 54/54/54 53/53/53
f 56/56/56 54/54/54 55/55/55
f 57/57/57 56/56/56 55/55/55
f 58/58/58 56/56/56 57/57/57
f 59/59/59 58/58/58 57/57/57
f 60/60/60 58/58/58 59/59/59
f 61/61/61 47/47/47 49/49/49
f 62/62/62 47/47/47 61/61/61
f 63/63/63 62/62/62 61/61/61
f 50/50/50 63/63/63 52/52/52
f 61/61/61 64/64/64 63/63/63
f 52/52/52 63/63/63 64/64/64
f 65/65/65 64/64/64 61/61/61
f 54/54/54 65/65/65 51/51/51
f 66/66/66 64/64/64 65/65/65
f 66/66/66 65/65/65 54/54/54
f 56/56/56 66/66/66 54/54/54
f 67/67/67 64/64/64 66/66/66
f 67/67/67 52/52/52 64/64/64
f 53/53/53 52/52/52 67/67/67
f 68/68/68 67/67/67 66/66/66
f 68/68/68 66/66/66 56/56/56
f 58/58/58 68/68/68 56/56/56
f 69/69/69 67/67/67 68/68/68
f 70/70/70 69/69/69 68/68/68
f 70/70/70 68/68/68 58/58/58
f 60/60/60 70/70/70 58/58/58
f 71/71/71 69/69/69 70/70/70
f 72/72/72 71/71/71 70/70/70
f 72/72/72 70/70/70 60/60/60
f 73/73/73 71/71/71 72/72/72
f 74/74/74 62/62/62 63/63/63
f 62/62/62 74/74/74 75/75/75
f 75/75/75 74/74/74 76/76/76
f 77/77/77 75/75/75 76/76/76
f 78/78/78 75/75/75 77/77/77
f 79/79/79 78/78/78 77/77/77
f 80/80/80 78/78/78 79/79/79
f 69/69/69 53/53/53 67/67/67
f 55/55/55 53/53/53 69/69/69
f 71/71/71 55/55/55 69/69/69
f 57/57/57 55/55/55 71/71/71
f 73/73/73 57/57/57 71/71/71
f 59/59/59 57/57/57 73/73/73
f 48/48/48 76/76/76 74/74/74
f 48/48/48 74/74/74 50/50/50
f 50/50/50 74/74/74 63/63/63
f 45/45/45 76/76/76 48/48/48
f 78/78/78 46/46/46 75/75/75
f 46/46/46 62/62/62 75/75/75
f 47/47/47 62/62/62 46/46/46
f 43/43/43 46/46/46 78/78/78
f 80/80/80 43/43/43 78/78/78
f 79/79/79 77/77/77 44/44/44
f 42/42/42 43/43/43 80/80/80
f 41/41/41 76/76/76 45/45/45
f 77/77/77 76/76/76 41/41/41
f 44/44/44 77/77/77 41/41/41
f 49/49/49 65/65/65 61/61/61
f 51/51/51 65/65/65 49/49/49
f 82/82/82 81/81/81 83/83/83
f 84/84/84 81/81/81 82/82/82
f 82/82/82 83/83/83 85/85/85
f 82/82/82 85/85/85 84/84/84
f 85/85/85 83/83/83 86/86/86
f 83/83/83 81/81/81 86/86/86
f 85/85/85 86/86/86 87/87/87
f 87/87/87 86/86/86 88/88/88
f 89/89/89 81/81/81 84/84/84
f 84/84/84 85/85/85 89/89/89
f 85/85/85 87/87/87 89/89/89
f 90/90/90 81/81/81 89/89/89
f 86/86/86 81/81/81 90/90/90
f 86/86/86 90/90/90 88/88/88
f 89/89/89 91/91/91 90/90/90
f 89/89/89 87/87/87 91/91/91
f 90/90/90 91/91/91 92/92/92
f 88/88/88 90/90/90 92/92/92
f 91/91/91 93/93/93 92/92/92
f 94/94/94 93/93/93 91/91/91
f 94/94/94 95/95/95 93/93/93
f 96/96/96 95/95/95 94/94/94
f 96/96/96 97/97/97 95/95/95
f 98/98/98 97/97/97 96/96/96
f 98/98/98 99/99/99 97/97/97
f 98/98/98 96/96/96 99/99/99
f 97/97/97 99/99/99 100/100/100
f 97/97/97 100/100/100 95/95/95
f 99/99/99 101/101/101 100/100/100
f 99/99/99 96/96/96 101/101/101
f 96/96/96 94/94/94 101/101/101
f 100/100/100 101/101/101 102/102/102
f 95/95/95 100/100/100 102/102/102
f 95/95/95 102/102/102 93/93/93
f 93/93/93 102/102/102 103/103/103
f 101/101/101 94/94/94 104/104/104
f 105/105/105 104/104/104 94/94/94
f 106/106/106 104/104/104 105/105/105
f 103/103/103 107/107/107 93/93/93
f 93/93/93 107/107/107 92/92/92
f 108/108/108 107/107/107 103/103/103
f 105/105/105 94/94/94 109/109/109
f 109/109/109 94/94/94 91/91/91
f 109/109/109 91/91/91 87/87/87
f 110/110/110 109/109/109 87/87/87
f 111/111/111 109/109/109 110/110/110
f 110/110/110 112/112/112 111/111/111
f 113/113/113 112/112/112 110/110/110
f 114/114/114 109/109/109 111/111/111
f 115/115/115 111/111/111 112/112/112
f 114/114/114 111/111/111 115/115/115
f 116/116/116 112/112/112 113/113/113
f 115/115/115 112/112/112 116/116/116
f 116/116/116 113/113/113 117/117/117
f 117/117/117 113/113/113 118/118/118
f 119/119/119 117/117/117 118/118/118
f 118/118/118 120/120/120 119/119/119
f 121/121/121 120/120/120 118/118/118
f 121/121/121 122/122/122 120/120/120
f 121/121/121 88/88/88 122/122/122
f 87/87/87 88/88/88 110/110/110
f 110/110/110 88/88/88 113/113/113
f 113/113/113 88/88/88 118/118/118
f 118/118/118 88/88/88 121/121/121
f 92/92/92 122/122/122 88/88/88
f 92/92/92 107/107/107 122/122/122
f 120/120/120 122/122/122 123/123/123
f 123/123/123 119/119/119 120/120/120
f 124/124/124 119/119/119 123/123/123
f 124/124/124 117/117/117 119/119/119
f 107/107/107 108/108/108 125/125/125
f 125/125/125 108/108/108 126/126/126
f 127/127/127 125/125/125 126/126/126
f 127/127/127 126/126/126 108/108/108
f 128/128/128 125/125/125 127/127/127
f 129/129/129 128/128/128 127/127/127
f 127/127/127 108/108/108 129/129/129
f 130/130/130 128/128/128 129/129/129
f 131/131/131 130/130/130 129/129/129
f 132/132/132 130/130/130 131/131/131
f 132/132/132 131/131/131 133/133/133
f 133/133/133 131/131/131 134/134/134
f 135/135/135 133/133/133 134/134/134
f 136/136/136 133/133/133 135/135/135
f 106/106/106 136/136/136 135/135/135
f 135/135/135 134/134/134 106/106/106
f 105/105/105 136/136/136 106/106/106
f 106/106/106 134/134/134 104/104/104
f 104/104/104 134/134/134 131/131/131
f 129/129/129 108/108/108 103/103/103
f 131/131/131 101/101/101 104/104/104
f 131/131/131 102/102/102 101/101/101
f 129/129/129 102/102/102 131/131/131
f 103/103/103 102/102/102 129/129/129
f 138/138/138 137/137/137 139/139/139
f 140/140/140 137/137/137 138/138/138
f 138/138/138 139/139/139 141/141/141
f 141/141/141 139/139/139 142/142/142
f 140/140/140 143/143/143 137/137/137
f 137/137/137 143/143/143 139/139/139
f 144/144/144 143/143/143 140/140/140
f 140/140/140 138/138/138 144/144/144
f 142/142/142 145/145/145 141/141/141
f 146/146/146 141/141/141 145/145/145
f 147/147/147 145/145/145 142/142/142
f 147/147/147 142/142/142 148/148/148
f 148/148/148 142/142/142 149/149/149
f 148/148/148 149/149/149 150/150/150
f 150/150/150 149/149/149 151/151/151
f 149/149/149 152/152/152 151/151/151
f 152/152/152 141/141/141 146/146/146
f 153/153/153 152/152/152 149/149/149
f 142/142/142 153/153/153 149/149/149
f 139/139/139 153/153/153 142/142/142
f 139/139/139 143/143/143 153/153/153
f 154/154/154 152/152/152 153/153/153
f 154/154/154 141/141/141 152/152/152
f 154/154/154 143/143/143 144/144/144
f 153/153/153 143/143/143 154/154/154
f 155/155/155 151/151/151 152/152/152
f 156/156/156 145/145/145 147/147/147
f 157/157/157 148/148/148 150/150/150
f 158/158/158 148/148/148 157/157/157
f 159/159/159 148/148/148 158/158/158
f 159/159/159 147/147/147 148/148/148
f 160/160/160 156/156/156 147/147/147
f 147/147/147 161/161/161 160/160/160
f 158/158/158 160/160/160 161/161/161
f 162/162/162 161/161/161 147/147/147
f 162/162/162 147/147/147 159/159/159
f 162/162/162 163/163/163 161/161/161
f 164/164/164 163/163/163 162/162/162
f 164/164/164 165/165/165 163/163/163
f 165/165/165 162/162/162 159/159/159
f 164/164/164 162/162/162 165/165/165
f 163/163/163 165/165/165 166/166/166
f 161/161/161 166/166/166 158/158/158
f 163/163/163 166/166/166 161/161/161
f 166/166/166 159/159/159 158/158/158
f 165/165/165 159/159/159 166/166/166
f 160/160/160 167/167/167 156/156/156
f 168/168/168 167/167/167 160/160/160
f 167/167/167 168/168/168 169/169/169
f 169/169/169 168/168/168 170/170/170
f 169/169/169 170/170/170 171/171/171
f 169/169/169 171/171/171 167/167/167
f 167/167/167 171/171/171 156/156/156
f 171/171/171 170/170/170 172/172/172
f 172/172/172 170/170/170 168/168/168
f 172/172/172 168/168/168 160/160/160
f 173/173/173 171/171/171 172/172/172
f 172/172/172 160/160/160 173/173/173
f 158/158/158 173/173/173 160/160/160
f 174/174/174 171/171/171 173/173/173
f 174/174/174 173/173/173 175/175/175
f 175/175/175 173/173/173 176/176/176
f 175/175/175 176/176/176 177/177/177
f 177/177/177 176/176/176 178/178/178
f 177/177/177 178/178/178 179/179/179
f 179/179/179 178/178/178 180/180/180
f 181/181/181 179/179/179 180/180/180
f 180/180/180 178/178/178 181/181/181
f 181/181/181 178/178/178 176/176/176
f 182/182/182 179/179/179 181/181/181
f 177/177/177 179/179/179 182/182/182
f 177/177/177 182/182/182 175/175/175
f 181/181/181 157/157/157 182/182/182
f 181/181/181 176/176/176 157/157/157
f 182/182/182 157/157/157 150/150/150
f 175/175/175 182/182/182 150/150/150
f 150/150/150 151/151/151 175/175/175
f 175/175/175 151/151/151 183/183/183
f 183/183/183 151/151/151 184/184/184
f 184/184/184 151/151/151 185/185/185
f 184/184/184 186/186/186 183/183/183
f 184/184/184 185/185/185 186/186/186
f 183/183/183 186/186/186 187/187/187
f 188/188/188 187/187/187 186/186/186
f 186/186/186 185/185/185 188/188/188
f 151/151/151 188/188/188 185/185/185
f 155/155/155 187/187/187 188/188/188
f 155/155/155 188/188/188 151/151/151
f 189/189/189 183/183/183 187/187/187
f 190/190/190 183/183/183 189/189/189
f 191/191/191 190/190/190 189/189/189
f 189/189/189 146/146/146 191/191/191
f 191/191/191 146/146/146 192/192/192
f 145/145/145 192/192/192 146/146/146
f 145/145/145 190/190/190 193/193/193
f 193/193/193 192/192/192 145/145/145
f 193/193/193 190/190/190 194/194/194
f 192/192/192 194/194/194 191/191/191
f 193/193/193 194/194/194 192/192/192
f 194/194/194 190/190/190 191/191/191
f 190/190/190 145/145/145 174/174/174
f 174/174/174 145/145/145 156/156/156
f 174/174/174 175/175/175 190/190/190
f 190/190/190 175/175/175 183/183/183
f 152/152/152 146/146/146 189/189/189
f 152/152/152 189/189/189 187/187/187
f 152/152/152 187/187/187 155/155/155
f 156/156/156 171/171/171 174/174/174
f 196/196/196 195/195/195 197/197/197
f 198/198/198 195/195/195 196/196/196
f 198/198/198 199/199/199 195/195/195
f 198/198/198 200/200/200 199/199/199
f 200/200/200 201/201/201 199/199/199
f 201/201/201 200/200/200 202/202/202
f 202/202/202 200/200/200 203/203/203
f 200/200/200 204/204/204 203/203/203
f 198/198/198 204/204/204 200/200/200
f 196/196/196 204/204/204 198/198/198
f 203/203/203 204/204/204 205/205/205
f 205/205/205 204/204/204 206/206/206
f 206/206/206 204/204/204 207/207/207
f 207/207/207 204/204/204 208/208/208
f 196/196/196 208/208/208 204/204/204
f 208/208/208 209/209/209 207/207/207
f 209/209/209 196/196/196 197/197/197
f 208/208/208 196/196/196 209/209/209
f 209/209/209 210/210/210 207/207/207
f 210/210/210 209/209/209 197/197/197
f 207/207/207 210/210/210 211/211/211
f 211/211/211 210/210/210 212/212/212
f 212/212/212 210/210/210 213/213/213
f 213/213/213 210/210/210 214/214/214
f 213/213/213 214/214/214 215/215/215
f 215/215/215 214/214/214 216/216/216
f 214/214/214 217/217/217 216/216/216
f 218/218/218 217/217/217 214/214/214
f 199/199/199 217/217/217 218/218/218
f 199/199/199 201/201/201 217/217/217
f 201/201/201 219/219/219 217/217/217
f 220/220/220 219/219/219 201/201/201
f 220/220/220 221/221/221 219/219/219
f 221/221/221 222/222/222 219/219/219
f 219/219/219 222/222/222 223/223/223
f 217/217/217 223/223/223 216/216/216
f 219/219/219 223/223/223 217/217/217
f 222/222/222 224/224/224 223/223/223
f 223/223/223 224/224/224 225/225/225
f 216/216/216 225/225/225 215/215/215
f 223/223/223 225/225/225 216/216/216
f 224/224/224 226/226/226 225/225/225
f 225/225/225 226/226/226 227/227/227
f 225/225/225 227/227/227 215/215/215
f 226/226/226 228/228/228 227/227/227
f 227/227/227 228/228/228 229/229/229
f 228/228/228 230/230/230 229/229/229
f 229/229/229 230/230/230 231/231/231
f 230/230/230 232/232/232 231/231/231
f 231/231/231 232/232/232 233/233/233
f 232/232/232 234/234/234 233/233/233
f 233/233/233 234/234/234 235/235/235
f 234/234/234 236/236/236 235/235/235
f 235/235/235 236/236/236 237/237/237
f 236/236/236 238/238/238 237/237/237
f 237/237/237 238/238/238 239/239/239
f 238/238/238 240/240/240 239/239/239
f 239/239/239 240/240/240 241/241/241
f 241/241/241 240/240/240 220/220/220
f 220/220/220 240/240/240 242/242/242
f 242/242/242 221/221/221 220/220/220
f 201/201/201 241/241/241 220/220/220
f 202/202/202 241/241/241 201/201/201
f 231/231/231 233/233/233 211/211/211
f 211/211/211 233/233/233 207/207/207
f 233/233/233 235/235/235 207/207/207
f 207/207/207 235/235/235 206/206/206
f 235/235/235 237/237/237 206/206/206
f 206/206/206 237/237/237 205/205/205
f 237/237/237 239/239/239 205/205/205
f 205/205/205 239/239/239 203/203/203
f 203/203/203 241/241/241 202/202/202
f 239/239/239 241/241/241 203/203/203
f 212/212/212 231/231/231 211/211/211
f 229/229/229 231/231/231 212/212/212
f 213/213/213 229/229/229 212/212/212
f 227/227/227 229/229/229 213/213/213
f 215/215/215 227/227/227 213/213/213
f 244/244/244 243/243/243 245/245/245
f 246/246/246 243/243/243 244/244/244
f 243/243/243 247/247/247 245/245/245
f 245/245/245 247/247/247 248/248/248
f 247/247/247 249/249/249 248/248/248
f 248/248/248 249/249/249 250/250/250
f 249/249/249 251/251/251 250/250/250
f 250/250/250 251/251/251 252/252/252
f 251/251/251 253/253/253 252/252/252
f 252/252/252 253/253/253 254/254/254
f 253/253/253 255/255/255 254/254/254
f 254/254/254 255/255/255 256/256/256
f 255/255/255 257/257/257 256/256/256
f 256/256/256 257/257/257 258/258/258
f 257/257/257 259/259/259 258/258/258
f 258/258/258 259/259/259 260/260/260
f 259/259/259 261/261/261 260/260/260
f 260/260/260 261/261/261 262/262/262
f 261/261/261 263/263/263 262/262/262
f 262/262/262 263/263/263 264/264/264
f 263/263/263 265/265/265 264/264/264
f 264/264/264 265/265/265 266/266/266
f 266/266/266 265/265/265 244/244/244
f 244/244/244 265/265/265 246/246/246
f 267/267/267 266/266/266 244/244/244
f 268/268/268 266/266/266 267/267/267
f 267/267/267 269/269/269 268/268/268
f 270/270/270 268/268/268 269/269/269
f 271/271/271 268/268/268 270/270/270
f 271/271/271 266/266/266 268/268/268
f 264/264/264 266/266/266 271/271/271
f 272/272/272 271/271/271 270/270/270
f 273/273/273 271/271/271 272/272/272
f 274/274/274 271/271/271 273/273/273
f 274/274/274 264/264/264 271/271/271
f 262/262/262 264/264/264 274/274/274
f 274/274/274 273/273/273 275/275/275
f 275/275/275 262/262/262 274/274/274
f 275/275/275 273/273/273 276/276/276
f 277/277/277 269/269/269 267/267/267
f 277/277/277 278/278/278 269/269/269
f 279/279/279 278/278/278 277/277/277
f 280/280/280 278/278/278 279/279/279
f 273/273/273 281/281/281 276/276/276
f 276/276/276 281/281/281 282/282/282
f 282/282/282 281/281/281 283/283/283
f 283/283/283 281/281/281 284/284/284
f 284/284/284 278/278/278 280/280/280
f 284/284/284 281/281/281 285/285/285
f 284/284/284 285/285/285 286/286/286
f 286/286/286 278/278/278 284/284/284
f 276/276/276 260/260/260 275/275/275
f 260/260/260 262/262/262 275/275/275
f 258/258/258 260/260/260 276/276/276
f 282/282/282 258/258/258 276/276/276
f 256/256/256 258/258/258 282/282/282
f 283/283/283 256/256/256 282/282/282
f 254/254/254 256/256/256 283/283/283
f 284/284/284 254/254/254 283/283/283
f 252/252/252 254/254/254 284/284/284
f 280/280/280 252/252/252 284/284/284
f 250/250/250 252/252/252 280/280/280
f 279/279/279 250/250/250 280/280/280
f 248/248/248 250/250/250 279/279/279
f 277/277/277 248/248/248 279/279/279
f 245/245/245 248/248/248 277/277/277
f 267/267/267 245/245/245 277/277/277
f 244/244/244 245/245/245 267/267/267
f 285/285/285 287/287/287 286/286/286
f 288/288/288 287/287/287 285/285/285
f 288/288/288 289/289/289 287/287/287
f 287/287/287 289/289/289 290/290/290
f 289/289/289 288/288/288 273/273/273
f 273/273/273 288/288/288 281/281/281
f 288/288/288 285/285/285 281/281/281
f 290/290/290 278/278/278 287/287/287
f 269/269/269 278/278/278 290/290/290
f 289/289/289 270/270/270 290/290/290
f 270/270/270 269/269/269 290/290/290
f 272/272/272 270/270/270 289/289/289
f 273/273/273 272/272/272 289/289/289
f 278/278/278 286/286/286 287/287/287
f 292/292/292 291/291/291 293/293/293
f 294/294/294 291/291/291 292/292/292
f 292/292/292 293/293/293 295/295/295
f 295/295/295 293/293/293 296/296/296
f 295/295/295 296/296/296 297/297/297
f 297/297/297 296/296/296 298/298/298
f 297/297/297 298/298/298 299/299/299
f 299/299/299 298/298/298 300/300/300
f 299/299/299 300/300/300 301/301/301
f 301/301/301 300/300/300 302/302/302
f 301/301/301 302/302/302 303/303/303
f 303/303/303 302/302/302 304/304/304
f 303/303/303 304/304/304 305/305/305
f 305/305/305 304/304/304 306/306/306
f 305/305/305 306/306/306 307/307/307
f 307/307/307 306/306/306 308/308/308
f 307/307/307 308/308/308 309/309/309
f 309/309/309 308/308/308 310/310/310
f 309/309/309 310/310/310 311/311/311
f 311/311/311 310/310/310 312/312/312
f 311/311/311 312/312/312 313/313/313
f 313/313/313 312/312/312 314/314/314
f 291/291/291 313/313/313 314/314/314
f 294/294/294 313/313/313 291/291/291
f 195/195/195 218/218/218 214/214/214
f 195/195/195 199/199/199 218/218/218
f 214/214/214 197/197/197 195/195/195
f 210/210/210 197/197/197 214/214/214
f 138/138/138 141/141/141 154/154/154
f 144/144/144 138/138/138 154/154/154
f 158/158/158 176/176/176 173/173/173
f 158/158/158 157/157/157 176/176/176
f 316/316/316 315/315/315 317/317/317
f 318/318/318 315/315/315 316/316/316
f 315/315/315 319/319/319 317/317/317
f 317/317/317 319/319/319 320/320/320
f 319/319/319 321/321/321 320/320/320
f 320/320/320 321/321/321 322/322/322
f 321/321/321 323/323/323 322/322/322
f 322/322/322 323/323/323 324/324/324
f 323/323/323 325/325/325 324/324/324
f 324/324/324 325/325/325 326/326/326
f 325/325/325 327/327/327 326/326/326
f 326/326/326 327/327/327 328/328/328
f 329/329/329 328/328/328 327/327/327
f 330/330/330 328/328/328 329/329/329
f 332/332/332 331/331/331 333/333/333
f 334/334/334 331/331/331 332/332/332
f 334/334/334 335/335/335 331/331/331
f 336/336/336 335/335/335 334/334/334
f 336/336/336 337/337/337 335/335/335
f 338/338/338 337/337/337 336/336/336
f 338/338/338 339/339/339 337/337/337
f 340/340/340 339/339/339 338/338/338
f 340/340/340 341/341/341 339/339/339
f 342/342/342 341/341/341 340/340/340
f 341/341/341 342/342/342 343/343/343
f 343/343/343 342/342/342 344/344/344
f 344/344/344 345/345/345 343/343/343
f 346/346/346 345/345/345 344/344/344
f 348/348/348 347/347/347 349/349/349
f 350/350/350 347/347/347 348/348/348
f 349/349/349 347/347/347 351/351/351
f 351/351/351 347/347/347 352/352/352
f 351/351/351 352/352/352 353/353/353
f 353/353/353 352/352/352 354/354/354
f 353/353/353 354/354/354 355/355/355
f 355/355/355 354/354/354 356/356/356
f 355/355/355 356/356/356 357/357/357
f 357/357/357 356/356/356 358/358/358
f 357/357/357 358/358/358 359/359/359
f 359/359/359 358/358/358 360/360/360
f 359/359/359 360/360/360 361/361/361
f 361/361/361 360/360/360 362/362/362
f 361/361/361 362/362/362 363/363/363
f 363/363/363 362/362/362 364/364/364
f 363/363/363 364/364/364 365/365/365
f 365/365/365 364/364/364 366/366/366
f 365/365/365 366/366/366 367/367/367
f 367/367/367 366/366/366 368/368/368
f 367/367/367 368/368/368 369/369/369
f 369/369/369 368/368/368 370/370/370
f 369/369/369 370/370/370 371/371/371
f 371/371/371 370/370/370 372/372/372
f 371/371/371 372/372/372 373/373/373
f 373/373/373 372/372/372 374/374/374
f 373/373/373 374/374/374 375/375/375
f 375/375/375 374/374/374 376/376/376
f 375/375/375 376/376/376 377/377/377
f 377/377/377 376/376/376 378/378/378
f 377/377/377 378/378/378 348/348/348
f 348/348/348 378/378/378 350/350/350
f 380/380/380 379/379/379 381/381/381
f 382/382/382 379/379/379 380/380/380
f 381/381/381 379/379/379 383/383/383
f 383/383/383 379/379/379 384/384/384
f 383/383/383 384/384/384 385/385/385
f 385/385/385 384/384/384 386/386/386
f 385/385/385 386/386/386 387/387/387
f 387/387/387 386/386/386 388/388/388
f 387/387/387 388/388/388 389/389/389
f 389/389/389 388/388/388 390/390/390
f 389/389/389 390/390/390 391/391/391
f 391/391/391 390/390/390 392/392/392
f 391/391/391 392/392/392 393/393/393
f 393/393/393 392/392/392 394/394/394
f 393/393/393 394/394/394 395/395/395
f 395/395/395 394/394/394 396/396/396
f 395/395/395 396/396/396 397/397/397
f 397/397/397 396/396/396 398/398/398
f 397/397/397 398/398/398 399/399/399
f 399/399/399 398/398/398 400/400/400
f 399/399/399 400/400/400 401/401/401
f 401/401/401 400/400/400 402/402/402
f 401/401/401 402/402/402 403/403/403
f 403/403/403 402/402/402 404/404/404
f 403/403/403 404/404/404 405/405/405
f 405/405/405 404/404/404 406/406/406
f 405/405/405 406/406/406 407/407/407
f 407/407/407 406/406/406 408/408/408
f 407/407/407 408/408/408 409/409/409
f 409/409/409 408/408/408 410/410/410
f 409/409/409 410/410/410 380/380/380
f 380/380/380 410/410/410 382/382/382
f 410/410/410 411/411/411 382/382/382
f 382/382/382 411/411/411 412/412/412
f 410/410/410 413/413/413 411/411/411
f 408/408/408 413/413/413 410/410/410
f 408/408/408 414/414/414 413/413/413
f 406/406/406 414/414/414 408/408/408
f 406/406/406 415/415/415 414/414/414
f 404/404/404 415/415/415 406/406/406
f 404/404/404 416/416/416 415/415/415
f 402/402/402 416/416/416 404/404/404
f 402/402/402 417/417/417 416/416/416
f 400/400/400 417/417/417 402/402/402
f 400/400/400 418/418/418 417/417/417
f 398/398/398 418/418/418 400/400/400
f 398/398/398 419/419/419 418/418/418
f 396/396/396 419/419/419 398/398/398
f 396/396/396 420/420/420 419/419/419
f 394/394/394 420/420/420 396/396/396
f 394/394/394 421/421/421 420/420/420
f 392/392/392 421/421/421 394/394/394
f 392/392/392 422/422/422 421/421/421
f 390/390/390 422/422/422 392/392/392
f 390/390/390 423/423/423 422/422/422
f 388/388/388 423/423/423 390/390/390
f 388/388/388 424/424/424 423/423/423
f 386/386/386 424/424/424 388/388/388
f 386/386/386 425/425/425 424/424/424
f 384/384/384 425/425/425 386/386/386
f 384/384/384 426/426/426 425/425/425
f 379/379/379 426/426/426 384/384/384
f 382/382/382 426/426/426 379/379/379
f 412/412/412 426/426/426 382/382/382
f 428/428/428 427/427/427 429/429/429
f 430/430/430 427/427/427 428/428/428
f 429/429/429 427/427/427 431/431/431
f 431/431/431 427/427/427 432/432/432
f 431/431/431 432/432/432 433/433/433
f 433/433/433 432/432/432 434/434/434
f 433/433/433 434/434/434 435/435/435
f 435/435/435 434/434/434 436/436/436
f 435/435/435 436/436/436 437/437/437
f 437/437/437 436/436/436 438/438/438
f 437/437/437 438/438/438 439/439/439
f 439/439/439 438/438/438 440/440/440
f 439/439/439 440/440/440 441/441/441
f 441/441/441 440/440/440 442/442/442
f 441/441/441 442/442/442 443/443/443
f 443/443/443 442/442/442 444/444/444
f 443/443/443 444/444/444 445/445/445
f 445/445/445 444/444/444 446/446/446
f 445/445/445 446/446/446 447/447/447
f 447/447/447 446/446/446 448/448/448
f 447/447/447 448/448/448 449/449/449
f 449/449/449 448/448/448 450/450/450
f 449/449/449 450/450/450 451/451/451
f 451/451/451 450/450/450 452/452/452
f 451/451/451 452/452/452 453/453/453
f 453/453/453 452/452/452 454/454/454
f 453/453/453 454/454/454 455/455/455
f 455/455/455 454/454/454 456/456/456
f 455/455/455 456/456/456 457/457/457
f 457/457/457 456/456/456 458/458/458
f 457/457/457 458/458/458 428/428/428
f 428/428/428 458/458/458 430/430/430
f 460/460/460 459/459/459 461/461/461
f 462/462/462 459/459/459 460/460/460
f 461/461/461 459/459/459 463/463/463
f 463/463/463 459/459/459 464/464/464
f 463/463/463 464/464/464 465/465/465
f 465/465/465 464/464/464 466/466/466
f 465/465/465 466/466/466 467/467/467
f 467/467/467 466/466/466 468/468/468
f 467/467/467 468/468/468 469/469/469
f 469/469/469 468/468/468 470/470/470
f 469/469/469 470/470/470 471/471/471
f 471/471/471 470/470/470 472/472/472
f 471/471/471 472/472/472 473/473/473
f 473/473/473 472/472/472 474/474/474
f 473/473/473 474/474/474 475/475/475
f 475/475/475 474/474/474 476/476/476
f 475/475/475 476/476/476 477/477/477
f 477/477/477 476/476/476 478/478/478
f 477/477/477 478/478/478 479/479/479
f 479/479/479 478/478/478 480/480/480
f 479/479/479 480/480/480 481/481/481
f 481/481/481 480/480/480 482/482/482
f 481/481/481 482/482/482 483/483/483
f 483/483/483 482/482/482 484/484/484
f 483/483/483 484/484/484 485/485/485
f 485/485/485 484/484/484 486/486/486
f 485/485/485 486/486/486 487/487/487
f 487/487/487 486/486/486 488/488/488
f 487/487/487 488/488/488 489/489/489
f 489/489/489 488/488/488 490/490/490
f 489/489/489 490/490/490 460/460/460
f 460/460/460 490/490/490 462/462/462
f 490/490/490 491/491/491 462/462/462
f 462/462/462 491/491/491 492/492/492
f 490/490/490 493/493/493 491/491/491
f 488/488/488 493/493/493 490/490/490
f 488/488/488 494/494/494 493/493/493
f 486/486/486 494/494/494 488/488/488
f 486/486/486 495/495/495 494/494/494
f 484/484/484 495/495/495 486/486/486
f 484/484/484 496/496/496 495/495/495
f 482/482/482 496/496/496 484/484/484
f 482/482/482 497/497/497 496/496/496
f 480/480/480 497/497/497 482/482/482
f 480/480/480 498/498/498 497/497/497
f 478/478/478 498/498/498 480/480/480
f 478/478/478 499/499/499 498/498/498
f 476/476/476 499/499/499 478/478/478
f 476/476/476 500/500/500 499/499/499
f 474/474/474 500/500/500 476/476/476
f 474/474/474 501/501/501 500/500/500
f 472/472/472 501/501/501 474/474/474
f 472/472/472 502/502/502 501/501/501
f 470/470/470 502/502/502 472/472/472
f 470/470/470 503/503/503 502/502/502
f 468/468/468 503/503/503 470/470/470
f 468/468/468 504/504/504 503/503/503
f 466/466/466 504/504/504 468/468/468
f 466/466/466 505/505/505 504/504/504
f 464/464/464 505/505/505 466/466/466
f 464/464/464 506/506/506 505/505/505
f 459/459/459 506/506/506 464/464/464
f 462/462/462 506/506/506 459/459/459
f 492/492/492 506/506/506 462/462/462
f 507/507/507 489/489/489 460/460/460
f 508/508/508 489/489/489 507/507/507
f 508/508/508 487/487/487 489/489/489
f 509/509/509 487/487/487 508/508/508
f 509/509/509 485/485/485 487/487/487
f 510/510/510 485/485/485 509/509/509
f 510/510/510 483/483/483 485/485/485
f 511/511/511 483/483/483 510/510/510
f 511/511/511 481/481/481 483/483/483
f 512/512/512 481/481/481 511/511/511
f 512/512/512 479/479/479 481/481/481
f 513/513/513 479/479/479 512/512/512
f 513/513/513 477/477/477 479/479/479
f 514/514/514 477/477/477 513/513/513
f 514/514/514 475/475/475 477/477/477
f 515/515/515 475/475/475 514/514/514
f 515/515/515 473/473/473 475/475/475
f 516/516/516 473/473/473 515/515/515
f 516/516/516 471/471/471 473/473/473
f 517/517/517 471/471/471 516/516/516
f 517/517/517 469/469/469 471/471/471
f 518/518/518 469/469/469 517/517/517
f 518/518/518 467/467/467 469/469/469
f 519/519/519 467/467/467 518/518/518
f 519/519/519 465/465/465 467/467/467
f 520/520/520 465/465/465 519/519/519
f 520/520/520 463/463/463 465/465/465
f 521/521/521 463/463/463 520/520/520
f 521/521/521 461/461/461 463/463/463
f 522/522/522 461/461/461 521/521/521
f 507/507/507 461/461/461 522/522/522
f 460/460/460 461/461/461 507/507/507
f 523/523/523 409/409/409 380/380/380
f 524/524/524 409/409/409 523/523/523
f 524/524/524 407/407/407 409/409/409
f 525/525/525 407/407/407 524/524/524
f 525/525/525 405/405/405 407/407/407
f 526/526/526 405/405/405 525/525/525
f 526/526/526 403/403/403 405/405/405
f 527/527/527 403/403/403 526/526/526
f 527/527/527 401/401/401 403/403/403
f 528/528/528 401/401/401 527/527/527
f 528/528/528 399/399/399 401/401/401
f 529/529/529 399/399/399 528/528/528
f 529/529/529 397/397/397 399/399/399
f 530/530/530 397/397/397 529/529/529
f 530/530/530 395/395/395 397/397/397
f 531/531/531 395/395/395 530/530/530
f 531/531/531 393/393/393 395/395/395
f 532/532/532 393/393/393 531/531/531
f 532/532/532 391/391/391 393/393/393
f 533/533/533 391/391/391 532/532/532
f 533/533/533 389/389/389 391/391/391
f 534/534/534 389/389/389 533/533/533
f 534/534/534 387/387/387 389/389/389
f 535/535/535 387/387/387 534/534/534
f 535/535/535 385/385/385 387/387/387
f 536/536/536 385/385/385 535/535/535
f 536/536/536 383/383/383 385/385/385
f 537/537/537 383/383/383 536/536/536
f 537/537/537 381/381/381 383/383/383
f 538/538/538 381/381/381 537/537/537
f 523/523/523 381/381/381 538/538/538
f 380/380/380 381/381/381 523/523/523
f 540/540/540 539/539/539 541/541/541
f 542/542/542 539/539/539 540/540/540
f 542/542/542 543/543/543 539/539/539
f 544/544/544 543/543/543 542/542/542
f 544/544/544 545/545/545 543/543/543
f 546/546/546 545/545/545 544/544/544
f 546/546/546 547/547/547 545/545/545
f 548/548/548 547/547/547 546/546/546
f 548/548/548 549/549/549 547/547/547
f 550/550/550 549/549/549 548/548/548
f 550/550/550 551/551/551 549/549/549
f 552/552/552 551/551/551 550/550/550
f 552/552/552 553/553/553 551/551/551
f 554/554/554 553/553/553 552/552/552
f 554/554/554 555/555/555 553/553/553
f 556/556/556 555/555/555 554/554/554
f 556/556/556 557/557/557 555/555/555
f 558/558/558 557/557/557 556/556/556
f 558/558/558 559/559/559 557/557/557
f 560/560/560 559/559/559 558/558/558
f 560/560/560 561/561/561 559/559/559
f 562/562/562 561/561/561 560/560/560
f 562/562/562 563/563/563 561/561/561
f 564/564/564 563/563/563 562/562/562
f 564/564/564 565/565/565 563/563/563
f 566/566/566 565/565/565 564/564/564
f 566/566/566 567/567/567 565/565/565
f 568/568/568 567/567/567 566/566/566
f 567/567/567 568/568/568 569/569/569
f 569/569/569 568/568/568 570/570/570
f 540/540/540 569/569/569 570/570/570
f 541/541/541 569/569/569 540/540/540
v 2.934411 -0.5209334 0.2874879
v 2.933441 -0.6841285 0.2776366
v 2.940776 -0.6769118 0.2877456
v 2.939633 -0.5281501 0.276142
v 2.936519 -0.6769118 0.2658733
v 2.935538 -0.5256059 0.2658054
v 2.930534 -0.6794561 0.2564431
v 2.930307 -0.5256059 0.2561032
v 2.923573 -0.6794561 0.247897
v 2.923283 -0.5256059 0.2476078
v 2.915077 -0.6794561 0.2408732
v 2.914737 -0.5256059 0.240646
v 2.905375 -0.6794561 0.2356418
v 2.904997 -0.5256059 0.2354852
v 2.894838 -0.6794561 0.2324036
v 2.894437 -0.5256059 0.232324
v 2.883873 -0.6794561 0.2312836
v 2.883464 -0.5256059 0.2312833
v 2.872899 -0.6794561 0.232324
v 2.872498 -0.5256059 0.2324037
v 2.862339 -0.6794561 0.2354854
v 2.861961 -0.5256059 0.2356419
v 2.852599 -0.6794561 0.240646
v 2.852259 -0.5256059 0.2408732
v 2.844053 -0.6794561 0.2476079
v 2.843764 -0.5256059 0.2478971
v 2.837029 -0.6794561 0.2561032
v 2.836802 -0.5256059 0.2564432
v 2.831798 -0.6794561 0.2658054
v 2.831641 -0.5256059 0.2661833
v 2.828559 -0.6794561 0.2763421
v 2.82848 -0.5256059 0.2767431
v 2.827439 -0.6794561 0.2873076
v 2.827439 -0.5256059 0.2877168
v 2.82848 -0.6794561 0.2982813
v 2.828559 -0.5256059 0.2986824
v 2.831641 -0.6794561 0.3088411
v 2.831798 -0.5256059 0.309219
v 2.836802 -0.6794561 0.3185813
v 2.837029 -0.5256059 0.3189212
v 2.843764 -0.6794561 0.3271274
v 2.844053 -0.5256059 0.3274166
v 2.852259 -0.6794561 0.3341512
v 2.852599 -0.5256059 0.3343784
v 2.861961 -0.6794561 0.3393826
v 2.862339 -0.5256059 0.3395392
v 2.872498 -0.6794561 0.3426208
v 2.872899 -0.5256059 0.3427006
v 2.883463 -0.6794561 0.3437411
v 2.883873 -0.5256059 0.3437411
v 2.894437 -0.6794561 0.3427006
v 2.894838 -0.5256059 0.3426208
v 2.904997 -0.6794561 0.3395392
v 2.905375 -0.5256059 0.3393825
v 2.914737 -0.6794561 0.3343784
v 2.915077 -0.5256059 0.3341511
v 2.923284 -0.6794561 0.3274165
v 2.923573 -0.5256059 0.3271273
v 2.930307 -0.6794561 0.3189212
v 2.930534 -0.5256059 0.3185812
v 2.935538 -0.6794561 0.309219
v 2.935695 -0.5256059 0.3088411
v 2.938776 -0.6794561 0.2986823
v 2.939724 -0.5281501 0.2984244

vn -0.9950796 -0.00325067 -0.0990288
vn 0.9950796 -0.01613101 -0.09776025
vn 0.3174501 0.03111476 -0.9477645
vn -0.3174503 -0.2154164 -0.9234831
vn 0.3174501 -0.3339478 -0.8875272
vn -0.5563475 -0.343011 -0.7568494
vn 0.5563474 -0.4387347 -0.7056839
vn -0.5563477 -0.4840766 -0.675387
vn 0.5563471 -0.567976 -0.6065325
vn -0.5563475 -0.6065327 -0.5679754
vn 0.5563473 -0.6753876 -0.4840764
vn -0.5563478 -0.7056841 -0.4387341
vn 0.5563472 -0.75685 -0.3430108
vn -0.5563477 -0.7777182 -0.2926297
vn 0.5563473 -0.809226 -0.1887638
vn -0.5563478 -0.8198643 -0.135279
vn 0.556347 -0.8305031 -0.02726464
vn -0.5563476 -0.8305027 0.02726492
vn 0.5563472 -0.8198646 0.1352793
vn -0.5563478 -0.8092255 0.1887641
vn 0.5563472 -0.7777185 0.29263
vn -0.5563477 -0.7568495 0.343011
vn 0.5563473 -0.7056844 0.4387344
vn -0.5563478 -0.675387 0.4840766
vn 0.5563471 -0.6065329 0.5679756
vn -0.5563475 -0.5679754 0.6065327
vn 0.5563473 -0.4840767 0.6753871
vn -0.5563477 -0.4387341 0.7056841
vn 0.5563473 -0.3430111 0.7568495
vn -0.5563475 -0.2926296 0.7777181
vn 0.5563475 -0.1887641 0.8092255
vn -0.5563475 -0.1352789 0.8198642
vn 0.5563473 -0.02726485 0.8305026
vn -0.5563473 0.02726513 0.8305026
vn 0.5563475 0.1352791 0.8198642
vn -0.5563475 0.1887644 0.8092254
vn 0.5563475 0.2926299 0.777718
vn -0.5563473 0.3430113 0.7568494
vn 0.5563475 0.4387328 0.7056849
vn -0.5563472 0.484074 0.6753891
vn 0.5563477 0.5679745 0.6065333
vn -0.5563473 0.6065348 0.5679734
vn 0.5563477 0.6753905 0.4840717
vn -0.5563472 0.7056871 0.4387301
vn 0.5563476 0.7568505 0.3430091
vn -0.5563471 0.7777186 0.29263
vn 0.5563478 0.8092251 0.1887654
vn -0.5563473 0.8198645 0.1352798
vn 0.5563476 0.8305027 0.02726491
vn -0.5563471 0.8305031 -0.02726437
vn 0.5563478 0.8198641 -0.1352795
vn -0.5563473 0.8092256 -0.1887654
vn 0.5563478 0.7777172 -0.2926326
vn -0.5563473 0.7568486 -0.343014
vn 0.5563476 0.7056841 -0.4387346
vn -0.5563471 0.6753894 -0.484074
vn 0.5563478 0.6065341 -0.5679738
vn -0.5563473 0.5679741 -0.6065341
vn 0.5563476 0.4840717 -0.6753904
vn -0.5563473 0.4387304 -0.7056866
vn 0.5563475 0.3430083 -0.7568507
vn -0.5563474 0.2926288 -0.7777187
vn 0.5563476 0.188764 -0.8092255
vn -0.3174502 0.1543804 -0.9356239

vt 0 0
vt 0 0
vt 0 0
vt 0 0
vt 0 0
vt 0 0
vt 0 0
vt 0 0
vt 0 0
vt 0 0
vt 0 0
vt 0 0
vt 0 0
vt 0 0
vt 0 0
vt 0 0
vt 0 0
vt 0 0
vt 0 0
vt 0 0
vt 0 0
vt 0 0
vt 0 0
vt 0 0
vt 0 0
vt 0 0
vt 0 0
vt 0 0
vt 0 0
vt 0 0
vt 0 0
vt 0 0
vt 0 0
vt 0 0
vt 0 0
vt 0 0
vt 0 0
vt 0 0
vt 0 0
vt 0 0
vt 0 0
vt 0 0
vt 0 0
vt 0 0
vt 0 0
vt 0 0
vt 0 0
vt 0 0
vt 0 0
vt 0 0
vt 0 0
vt 0 0
vt 0 0
vt 0 0
vt 0 0
vt 0 0
vt 0 0
vt 0 0
vt 0 0
vt 0 0
vt 0 0
vt 0 0
vt 0 0
vt 0 0
f 572/572/572 571/571/571 573/573/573
f 574/574/574 571/571/571 572/572/572
f 575/575/575 574/574/574 572/572/572
f 576/576/576 574/574/574 575/575/575
f 576/576/576 571/571/571 574/574/574
f 577/577/577 576/576/576 575/575/575
f 575/575/575 572/572/572 577/577/577
f 578/578/578 576/576/576 577/577/577
f 578/578/578 571/571/571 576/576/576
f 579/579/579 578/578/578 577/577/577
f 577/577/577 572/572/572 579/579/579
f 580/580/580 578/578/578 579/579/579
f 580/580/580 571/571/571 578/578/578
f 581/581/581 580/580/580 579/579/579
f 579/579/579 572/572/572 581/581/581
f 582/582/582 580/580/580 581/581/581
f 582/582/582 571/571/571 580/580/580
f 583/583/583 582/582/582 581/581/581
f 581/581/581 572/572/572 583/583/583
f 584/584/584 582/582/582 583/583/583
f 584/584/584 571/571/571 582/582/582
f 585/585/585 584/584/584 583/583/583
f 583/583/583 572/572/572 585/585/585
f 586/586/586 584/584/584 585/585/585
f 586/586/586 571/571/571 584/584/584
f 587/587/587 586/586/586 585/585/585
f 585/585/585 572/572/572 587/587/587
f 588/588/588 586/586/586 587/587/587
f 589/589/589 588/588/588 587/587/587
f 590/590/590 588/588/588 589/589/589
f 591/591/591 590/590/590 589/589/589
f 592/592/592 590/590/590 591/591/591
f 593/593/593 592/592/592 591/591/591
f 594/594/594 592/592/592 593/593/593
f 595/595/595 594/594/594 593/593/593
f 596/596/596 594/594/594 595/595/595
f 597/597/597 596/596/596 595/595/595
f 598/598/598 596/596/596 597/597/597
f 599/599/599 598/598/598 597/597/597
f 600/600/600 598/598/598 599/599/599
f 601/601/601 600/600/600 599/599/599
f 602/602/602 600/600/600 601/601/601
f 603/603/603 602/602/602 601/601/601
f 604/604/604 602/602/602 603/603/603
f 605/605/605 604/604/604 603/603/603
f 606/606/606 604/604/604 605/605/605
f 607/607/607 606/606/606 605/605/605
f 608/608/608 606/606/606 607/607/607
f 609/609/609 608/608/608 607/607/607
f 610/610/610 608/608/608 609/609/609
f 611/611/611 610/610/610 609/609/609
f 612/612/612 610/610/610 611/611/611
f 613/613/613 612/612/612 611/611/611
f 614/614/614 612/612/612 613/613/613
f 615/615/615 614/614/614 613/613/613
f 616/616/616 614/614/614 615/615/615
f 617/617/617 616/616/616 615/615/615
f 618/618/618 616/616/616 617/617/617
f 619/619/619 618/618/618 617/617/617
f 620/620/620 618/618/618 619/619/619
f 621/621/621 620/620/620 619/619/619
f 622/622/622 620/620/620 621/621/621
f 623/623/623 622/622/622 621/621/621
f 624/624/624 622/622/622 623/623/623
f 625/625/625 624/624/624 623/623/623
f 626/626/626 624/624/624 625/625/625
f 627/627/627 626/626/626 625/625/625
f 628/628/628 626/626/626 627/627/627
f 629/629/629 628/628/628 627/627/627
f 630/630/630 628/628/628 629/629/629
f 631/631/631 630/630/630 629/629/629
f 632/632/632 630/630/630 631/631/631
f 629/629/629 572/572/572 631/631/631
f 627/627/627 572/572/572 629/629/629
f 625/625/625 572/572/572 627/627/627
f 623/623/623 572/572/572 625/625/625
f 621/621/621 572/572/572 623/623/623
f 619/619/619 572/572/572 621/621/621
f 631/631/631 572/572/572 633/633/633
f 633/633/633 632/632/632 631/631/631
f 633/633/633 572/572/572 573/573/573
f 573/573/573 634/634/634 633/633/633
f 634/634/634 632/632/632 633/633/633
f 571/571/571 634/634/634 573/573/573
f 624/624/624 571/571/571 622/622/622
f 626/626/626 571/571/571 624/624/624
f 628/628/628 571/571/571 626/626/626
f 630/630/630 571/571/571 628/628/628
f 632/632/632 571/571/571 630/630/630
f 634/634/634 571/571/571 632/632/632
f 622/622/622 571/571/571 620/620/620
f 620/620/620 571/571/571 618/618/618
f 618/618/618 571/571/571 616/616/616
f 616/616/616 571/571/571 614/614/614
f 614/614/614 571/571/571 612/612/612
f 612/612/612 571/571/571 610/610/610
f 610/610/610 571/571/571 608/608/608
f 608/608/608 571/571/571 606/606/606
f 606/606/606 571/571/571 604/604/604
f 604/604/604 571/571/571 602/602/602
f 602/602/602 571/571/571 600/600/600
f 600/600/600 571/571/571 598/598/598
f 598/598/598 571/571/571 596/596/596
f 596/596/596 571/571/571 594/594/594
f 594/594/594 571/571/571 592/592/592
f 592/592/592 571/571/571 590/590/590
f 590/590/590 571/571/571 588/588/588
f 588/588/588 571/571/571 586/586/586
f 617/617/617 572/572/572 619/619/619
f 615/615/615 572/572/572 617/617/617
f 613/613/613 572/572/572 615/615/615
f 611/611/611 572/572/572 613/613/613
f 609/609/609 572/572/572 611/611/611
f 607/607/607 572/572/572 609/609/609
f 605/605/605 572/572/572 607/607/607
f 603/603/603 572/572/572 605/605/605
f 601/601/601 572/572/572 603/603/603
f 599/599/599 572/572/572 601/601/601
f 597/597/597 572/572/572 599/599/599
f 595/595/595 572/572/572 597/597/597
f 593/593/593 572/572/572 595/595/595
f 591/591/591 572/572/572 593/593/593
f 589/589/589 572/572/572 591/591/591
f 587/587/587 572/572/572 589/589/589
